<?xml version="1.0" encoding="utf-8" standalone="no"?>
<!DOCTYPE svg PUBLIC "-//W3C//DTD SVG 1.1//EN"
  "http://www.w3.org/Graphics/SVG/1.1/DTD/svg11.dtd">
<!-- Created with matplotlib (https://matplotlib.org/) -->
<svg height="429.84pt" version="1.1" viewBox="0 0 1382.4 429.84" width="1382.4pt" xmlns="http://www.w3.org/2000/svg" xmlns:xlink="http://www.w3.org/1999/xlink">
 <defs>
  <style type="text/css">
*{stroke-linecap:butt;stroke-linejoin:round;}
  </style>
 </defs>
 <g id="figure_1">
  <g id="patch_1">
   <path d="M 0 429.84 
L 1382.4 429.84 
L 1382.4 0 
L 0 0 
z
" style="fill:#ffffff;"/>
  </g>
  <g id="axes_1">
   <g id="patch_2">
    <path d="M 69.12 382.5576 
L 443.181176 382.5576 
L 443.181176 51.5808 
L 69.12 51.5808 
z
" style="fill:#ffffff;"/>
   </g>
   <g id="matplotlib.axis_1">
    <g id="xtick_1">
     <g id="line2d_1">
      <path clip-path="url(#p59c5c8c4ff)" d="M 69.12 382.5576 
L 69.12 51.5808 
" style="fill:none;stroke:#b0b0b0;stroke-dasharray:2.96,1.28;stroke-dashoffset:0;stroke-width:0.8;"/>
     </g>
     <g id="line2d_2">
      <defs>
       <path d="M 0 0 
L 0 3.5 
" id="m304a2b1484" style="stroke:#000000;stroke-width:0.8;"/>
      </defs>
      <g>
       <use style="stroke:#000000;stroke-width:0.8;" x="69.12" xlink:href="#m304a2b1484" y="382.5576"/>
      </g>
     </g>
     <g id="text_1">
      <!-- 0.0 -->
      <defs>
       <path d="M 31.78125 66.40625 
Q 24.171875 66.40625 20.328125 58.90625 
Q 16.5 51.421875 16.5 36.375 
Q 16.5 21.390625 20.328125 13.890625 
Q 24.171875 6.390625 31.78125 6.390625 
Q 39.453125 6.390625 43.28125 13.890625 
Q 47.125 21.390625 47.125 36.375 
Q 47.125 51.421875 43.28125 58.90625 
Q 39.453125 66.40625 31.78125 66.40625 
z
M 31.78125 74.21875 
Q 44.046875 74.21875 50.515625 64.515625 
Q 56.984375 54.828125 56.984375 36.375 
Q 56.984375 17.96875 50.515625 8.265625 
Q 44.046875 -1.421875 31.78125 -1.421875 
Q 19.53125 -1.421875 13.0625 8.265625 
Q 6.59375 17.96875 6.59375 36.375 
Q 6.59375 54.828125 13.0625 64.515625 
Q 19.53125 74.21875 31.78125 74.21875 
z
" id="DejaVuSans-48"/>
       <path d="M 10.6875 12.40625 
L 21 12.40625 
L 21 0 
L 10.6875 0 
z
" id="DejaVuSans-46"/>
      </defs>
      <g transform="translate(61.168437 397.156037)scale(0.1 -0.1)">
       <use xlink:href="#DejaVuSans-48"/>
       <use x="63.623047" xlink:href="#DejaVuSans-46"/>
       <use x="95.410156" xlink:href="#DejaVuSans-48"/>
      </g>
     </g>
    </g>
    <g id="xtick_2">
     <g id="line2d_3">
      <path clip-path="url(#p59c5c8c4ff)" d="M 143.932235 382.5576 
L 143.932235 51.5808 
" style="fill:none;stroke:#b0b0b0;stroke-dasharray:2.96,1.28;stroke-dashoffset:0;stroke-width:0.8;"/>
     </g>
     <g id="line2d_4">
      <g>
       <use style="stroke:#000000;stroke-width:0.8;" x="143.932235" xlink:href="#m304a2b1484" y="382.5576"/>
      </g>
     </g>
     <g id="text_2">
      <!-- 0.2 -->
      <defs>
       <path d="M 19.1875 8.296875 
L 53.609375 8.296875 
L 53.609375 0 
L 7.328125 0 
L 7.328125 8.296875 
Q 12.9375 14.109375 22.625 23.890625 
Q 32.328125 33.6875 34.8125 36.53125 
Q 39.546875 41.84375 41.421875 45.53125 
Q 43.3125 49.21875 43.3125 52.78125 
Q 43.3125 58.59375 39.234375 62.25 
Q 35.15625 65.921875 28.609375 65.921875 
Q 23.96875 65.921875 18.8125 64.3125 
Q 13.671875 62.703125 7.8125 59.421875 
L 7.8125 69.390625 
Q 13.765625 71.78125 18.9375 73 
Q 24.125 74.21875 28.421875 74.21875 
Q 39.75 74.21875 46.484375 68.546875 
Q 53.21875 62.890625 53.21875 53.421875 
Q 53.21875 48.921875 51.53125 44.890625 
Q 49.859375 40.875 45.40625 35.40625 
Q 44.1875 33.984375 37.640625 27.21875 
Q 31.109375 20.453125 19.1875 8.296875 
z
" id="DejaVuSans-50"/>
      </defs>
      <g transform="translate(135.980673 397.156037)scale(0.1 -0.1)">
       <use xlink:href="#DejaVuSans-48"/>
       <use x="63.623047" xlink:href="#DejaVuSans-46"/>
       <use x="95.410156" xlink:href="#DejaVuSans-50"/>
      </g>
     </g>
    </g>
    <g id="xtick_3">
     <g id="line2d_5">
      <path clip-path="url(#p59c5c8c4ff)" d="M 218.744471 382.5576 
L 218.744471 51.5808 
" style="fill:none;stroke:#b0b0b0;stroke-dasharray:2.96,1.28;stroke-dashoffset:0;stroke-width:0.8;"/>
     </g>
     <g id="line2d_6">
      <g>
       <use style="stroke:#000000;stroke-width:0.8;" x="218.744471" xlink:href="#m304a2b1484" y="382.5576"/>
      </g>
     </g>
     <g id="text_3">
      <!-- 0.4 -->
      <defs>
       <path d="M 37.796875 64.3125 
L 12.890625 25.390625 
L 37.796875 25.390625 
z
M 35.203125 72.90625 
L 47.609375 72.90625 
L 47.609375 25.390625 
L 58.015625 25.390625 
L 58.015625 17.1875 
L 47.609375 17.1875 
L 47.609375 0 
L 37.796875 0 
L 37.796875 17.1875 
L 4.890625 17.1875 
L 4.890625 26.703125 
z
" id="DejaVuSans-52"/>
      </defs>
      <g transform="translate(210.792908 397.156037)scale(0.1 -0.1)">
       <use xlink:href="#DejaVuSans-48"/>
       <use x="63.623047" xlink:href="#DejaVuSans-46"/>
       <use x="95.410156" xlink:href="#DejaVuSans-52"/>
      </g>
     </g>
    </g>
    <g id="xtick_4">
     <g id="line2d_7">
      <path clip-path="url(#p59c5c8c4ff)" d="M 293.556706 382.5576 
L 293.556706 51.5808 
" style="fill:none;stroke:#b0b0b0;stroke-dasharray:2.96,1.28;stroke-dashoffset:0;stroke-width:0.8;"/>
     </g>
     <g id="line2d_8">
      <g>
       <use style="stroke:#000000;stroke-width:0.8;" x="293.556706" xlink:href="#m304a2b1484" y="382.5576"/>
      </g>
     </g>
     <g id="text_4">
      <!-- 0.6 -->
      <defs>
       <path d="M 33.015625 40.375 
Q 26.375 40.375 22.484375 35.828125 
Q 18.609375 31.296875 18.609375 23.390625 
Q 18.609375 15.53125 22.484375 10.953125 
Q 26.375 6.390625 33.015625 6.390625 
Q 39.65625 6.390625 43.53125 10.953125 
Q 47.40625 15.53125 47.40625 23.390625 
Q 47.40625 31.296875 43.53125 35.828125 
Q 39.65625 40.375 33.015625 40.375 
z
M 52.59375 71.296875 
L 52.59375 62.3125 
Q 48.875 64.0625 45.09375 64.984375 
Q 41.3125 65.921875 37.59375 65.921875 
Q 27.828125 65.921875 22.671875 59.328125 
Q 17.53125 52.734375 16.796875 39.40625 
Q 19.671875 43.65625 24.015625 45.921875 
Q 28.375 48.1875 33.59375 48.1875 
Q 44.578125 48.1875 50.953125 41.515625 
Q 57.328125 34.859375 57.328125 23.390625 
Q 57.328125 12.15625 50.6875 5.359375 
Q 44.046875 -1.421875 33.015625 -1.421875 
Q 20.359375 -1.421875 13.671875 8.265625 
Q 6.984375 17.96875 6.984375 36.375 
Q 6.984375 53.65625 15.1875 63.9375 
Q 23.390625 74.21875 37.203125 74.21875 
Q 40.921875 74.21875 44.703125 73.484375 
Q 48.484375 72.75 52.59375 71.296875 
z
" id="DejaVuSans-54"/>
      </defs>
      <g transform="translate(285.605143 397.156037)scale(0.1 -0.1)">
       <use xlink:href="#DejaVuSans-48"/>
       <use x="63.623047" xlink:href="#DejaVuSans-46"/>
       <use x="95.410156" xlink:href="#DejaVuSans-54"/>
      </g>
     </g>
    </g>
    <g id="xtick_5">
     <g id="line2d_9">
      <path clip-path="url(#p59c5c8c4ff)" d="M 368.368941 382.5576 
L 368.368941 51.5808 
" style="fill:none;stroke:#b0b0b0;stroke-dasharray:2.96,1.28;stroke-dashoffset:0;stroke-width:0.8;"/>
     </g>
     <g id="line2d_10">
      <g>
       <use style="stroke:#000000;stroke-width:0.8;" x="368.368941" xlink:href="#m304a2b1484" y="382.5576"/>
      </g>
     </g>
     <g id="text_5">
      <!-- 0.8 -->
      <defs>
       <path d="M 31.78125 34.625 
Q 24.75 34.625 20.71875 30.859375 
Q 16.703125 27.09375 16.703125 20.515625 
Q 16.703125 13.921875 20.71875 10.15625 
Q 24.75 6.390625 31.78125 6.390625 
Q 38.8125 6.390625 42.859375 10.171875 
Q 46.921875 13.96875 46.921875 20.515625 
Q 46.921875 27.09375 42.890625 30.859375 
Q 38.875 34.625 31.78125 34.625 
z
M 21.921875 38.8125 
Q 15.578125 40.375 12.03125 44.71875 
Q 8.5 49.078125 8.5 55.328125 
Q 8.5 64.0625 14.71875 69.140625 
Q 20.953125 74.21875 31.78125 74.21875 
Q 42.671875 74.21875 48.875 69.140625 
Q 55.078125 64.0625 55.078125 55.328125 
Q 55.078125 49.078125 51.53125 44.71875 
Q 48 40.375 41.703125 38.8125 
Q 48.828125 37.15625 52.796875 32.3125 
Q 56.78125 27.484375 56.78125 20.515625 
Q 56.78125 9.90625 50.3125 4.234375 
Q 43.84375 -1.421875 31.78125 -1.421875 
Q 19.734375 -1.421875 13.25 4.234375 
Q 6.78125 9.90625 6.78125 20.515625 
Q 6.78125 27.484375 10.78125 32.3125 
Q 14.796875 37.15625 21.921875 38.8125 
z
M 18.3125 54.390625 
Q 18.3125 48.734375 21.84375 45.5625 
Q 25.390625 42.390625 31.78125 42.390625 
Q 38.140625 42.390625 41.71875 45.5625 
Q 45.3125 48.734375 45.3125 54.390625 
Q 45.3125 60.0625 41.71875 63.234375 
Q 38.140625 66.40625 31.78125 66.40625 
Q 25.390625 66.40625 21.84375 63.234375 
Q 18.3125 60.0625 18.3125 54.390625 
z
" id="DejaVuSans-56"/>
      </defs>
      <g transform="translate(360.417379 397.156037)scale(0.1 -0.1)">
       <use xlink:href="#DejaVuSans-48"/>
       <use x="63.623047" xlink:href="#DejaVuSans-46"/>
       <use x="95.410156" xlink:href="#DejaVuSans-56"/>
      </g>
     </g>
    </g>
    <g id="xtick_6">
     <g id="line2d_11">
      <path clip-path="url(#p59c5c8c4ff)" d="M 443.181176 382.5576 
L 443.181176 51.5808 
" style="fill:none;stroke:#b0b0b0;stroke-dasharray:2.96,1.28;stroke-dashoffset:0;stroke-width:0.8;"/>
     </g>
     <g id="line2d_12">
      <g>
       <use style="stroke:#000000;stroke-width:0.8;" x="443.181176" xlink:href="#m304a2b1484" y="382.5576"/>
      </g>
     </g>
     <g id="text_6">
      <!-- 1.0 -->
      <defs>
       <path d="M 12.40625 8.296875 
L 28.515625 8.296875 
L 28.515625 63.921875 
L 10.984375 60.40625 
L 10.984375 69.390625 
L 28.421875 72.90625 
L 38.28125 72.90625 
L 38.28125 8.296875 
L 54.390625 8.296875 
L 54.390625 0 
L 12.40625 0 
z
" id="DejaVuSans-49"/>
      </defs>
      <g transform="translate(435.229614 397.156037)scale(0.1 -0.1)">
       <use xlink:href="#DejaVuSans-49"/>
       <use x="63.623047" xlink:href="#DejaVuSans-46"/>
       <use x="95.410156" xlink:href="#DejaVuSans-48"/>
      </g>
     </g>
    </g>
    <g id="text_7">
     <!-- α -->
     <defs>
      <path d="M 41.3125 25.4375 
L 39.15625 36.71875 
Q 36.96875 48.296875 28.265625 48.296875 
Q 21.734375 48.296875 18.75 42.921875 
Q 14.984375 36.1875 14.984375 27.296875 
Q 14.984375 16.546875 18.65625 11.421875 
Q 22.359375 6.203125 28.265625 6.203125 
Q 34.8125 6.203125 38.328125 16.609375 
z
M 46.34375 40.375 
L 51.171875 54.6875 
L 59.1875 54.6875 
L 49.171875 25.046875 
L 51.125 14.359375 
Q 51.5625 11.96875 53.265625 9.96875 
Q 55.28125 7.625 56.84375 7.625 
L 61.140625 7.625 
L 61.140625 0 
L 55.765625 0 
Q 51.171875 0 47.078125 4.109375 
Q 45.0625 6.15625 44.234375 10.453125 
Q 42 5.03125 37.40625 0.78125 
Q 35.25 -1.21875 28.265625 -1.21875 
Q 16.796875 -1.21875 11.234375 6.203125 
Q 5.515625 13.875 5.515625 27.296875 
Q 5.515625 41.65625 11.71875 48.390625 
Q 18.609375 55.90625 28.265625 55.90625 
Q 43.453125 55.90625 46.34375 40.375 
z
" id="DejaVuSans-945"/>
     </defs>
     <g transform="translate(252.854494 410.834162)scale(0.1 -0.1)">
      <use xlink:href="#DejaVuSans-945"/>
     </g>
    </g>
   </g>
   <g id="matplotlib.axis_2">
    <g id="ytick_1">
     <g id="line2d_13">
      <path clip-path="url(#p59c5c8c4ff)" d="M 69.12 382.5576 
L 443.181176 382.5576 
" style="fill:none;stroke:#b0b0b0;stroke-dasharray:2.96,1.28;stroke-dashoffset:0;stroke-width:0.8;"/>
     </g>
     <g id="line2d_14">
      <defs>
       <path d="M 0 0 
L -3.5 0 
" id="mb53ceebef7" style="stroke:#000000;stroke-width:0.8;"/>
      </defs>
      <g>
       <use style="stroke:#000000;stroke-width:0.8;" x="69.12" xlink:href="#mb53ceebef7" y="382.5576"/>
      </g>
     </g>
     <g id="text_8">
      <!-- 0.0 -->
      <g transform="translate(46.216875 386.356819)scale(0.1 -0.1)">
       <use xlink:href="#DejaVuSans-48"/>
       <use x="63.623047" xlink:href="#DejaVuSans-46"/>
       <use x="95.410156" xlink:href="#DejaVuSans-48"/>
      </g>
     </g>
    </g>
    <g id="ytick_2">
     <g id="line2d_15">
      <path clip-path="url(#p59c5c8c4ff)" d="M 69.12 316.36224 
L 443.181176 316.36224 
" style="fill:none;stroke:#b0b0b0;stroke-dasharray:2.96,1.28;stroke-dashoffset:0;stroke-width:0.8;"/>
     </g>
     <g id="line2d_16">
      <g>
       <use style="stroke:#000000;stroke-width:0.8;" x="69.12" xlink:href="#mb53ceebef7" y="316.36224"/>
      </g>
     </g>
     <g id="text_9">
      <!-- 0.2 -->
      <g transform="translate(46.216875 320.161459)scale(0.1 -0.1)">
       <use xlink:href="#DejaVuSans-48"/>
       <use x="63.623047" xlink:href="#DejaVuSans-46"/>
       <use x="95.410156" xlink:href="#DejaVuSans-50"/>
      </g>
     </g>
    </g>
    <g id="ytick_3">
     <g id="line2d_17">
      <path clip-path="url(#p59c5c8c4ff)" d="M 69.12 250.16688 
L 443.181176 250.16688 
" style="fill:none;stroke:#b0b0b0;stroke-dasharray:2.96,1.28;stroke-dashoffset:0;stroke-width:0.8;"/>
     </g>
     <g id="line2d_18">
      <g>
       <use style="stroke:#000000;stroke-width:0.8;" x="69.12" xlink:href="#mb53ceebef7" y="250.16688"/>
      </g>
     </g>
     <g id="text_10">
      <!-- 0.4 -->
      <g transform="translate(46.216875 253.966099)scale(0.1 -0.1)">
       <use xlink:href="#DejaVuSans-48"/>
       <use x="63.623047" xlink:href="#DejaVuSans-46"/>
       <use x="95.410156" xlink:href="#DejaVuSans-52"/>
      </g>
     </g>
    </g>
    <g id="ytick_4">
     <g id="line2d_19">
      <path clip-path="url(#p59c5c8c4ff)" d="M 69.12 183.97152 
L 443.181176 183.97152 
" style="fill:none;stroke:#b0b0b0;stroke-dasharray:2.96,1.28;stroke-dashoffset:0;stroke-width:0.8;"/>
     </g>
     <g id="line2d_20">
      <g>
       <use style="stroke:#000000;stroke-width:0.8;" x="69.12" xlink:href="#mb53ceebef7" y="183.97152"/>
      </g>
     </g>
     <g id="text_11">
      <!-- 0.6 -->
      <g transform="translate(46.216875 187.770739)scale(0.1 -0.1)">
       <use xlink:href="#DejaVuSans-48"/>
       <use x="63.623047" xlink:href="#DejaVuSans-46"/>
       <use x="95.410156" xlink:href="#DejaVuSans-54"/>
      </g>
     </g>
    </g>
    <g id="ytick_5">
     <g id="line2d_21">
      <path clip-path="url(#p59c5c8c4ff)" d="M 69.12 117.77616 
L 443.181176 117.77616 
" style="fill:none;stroke:#b0b0b0;stroke-dasharray:2.96,1.28;stroke-dashoffset:0;stroke-width:0.8;"/>
     </g>
     <g id="line2d_22">
      <g>
       <use style="stroke:#000000;stroke-width:0.8;" x="69.12" xlink:href="#mb53ceebef7" y="117.77616"/>
      </g>
     </g>
     <g id="text_12">
      <!-- 0.8 -->
      <g transform="translate(46.216875 121.575379)scale(0.1 -0.1)">
       <use xlink:href="#DejaVuSans-48"/>
       <use x="63.623047" xlink:href="#DejaVuSans-46"/>
       <use x="95.410156" xlink:href="#DejaVuSans-56"/>
      </g>
     </g>
    </g>
    <g id="ytick_6">
     <g id="line2d_23">
      <path clip-path="url(#p59c5c8c4ff)" d="M 69.12 51.5808 
L 443.181176 51.5808 
" style="fill:none;stroke:#b0b0b0;stroke-dasharray:2.96,1.28;stroke-dashoffset:0;stroke-width:0.8;"/>
     </g>
     <g id="line2d_24">
      <g>
       <use style="stroke:#000000;stroke-width:0.8;" x="69.12" xlink:href="#mb53ceebef7" y="51.5808"/>
      </g>
     </g>
     <g id="text_13">
      <!-- 1.0 -->
      <g transform="translate(46.216875 55.380019)scale(0.1 -0.1)">
       <use xlink:href="#DejaVuSans-49"/>
       <use x="63.623047" xlink:href="#DejaVuSans-46"/>
       <use x="95.410156" xlink:href="#DejaVuSans-48"/>
      </g>
     </g>
    </g>
    <g id="text_14">
     <!-- y -->
     <defs>
      <path d="M 32.171875 -5.078125 
Q 28.375 -14.84375 24.75 -17.8125 
Q 21.140625 -20.796875 15.09375 -20.796875 
L 7.90625 -20.796875 
L 7.90625 -13.28125 
L 13.1875 -13.28125 
Q 16.890625 -13.28125 18.9375 -11.515625 
Q 21 -9.765625 23.484375 -3.21875 
L 25.09375 0.875 
L 2.984375 54.6875 
L 12.5 54.6875 
L 29.59375 11.921875 
L 46.6875 54.6875 
L 56.203125 54.6875 
z
" id="DejaVuSans-121"/>
     </defs>
     <g transform="translate(40.137187 220.028575)rotate(-90)scale(0.1 -0.1)">
      <use xlink:href="#DejaVuSans-121"/>
     </g>
    </g>
   </g>
   <g id="line2d_25">
    <path clip-path="url(#p59c5c8c4ff)" d="M 69.12 51.5808 
L 72.860612 52.408242 
L 76.601224 53.235684 
L 80.341835 54.063126 
L 84.082447 54.890568 
L 87.823059 55.71801 
L 91.563671 56.545452 
L 95.304282 57.372894 
L 99.044894 58.200336 
L 102.785506 59.027778 
L 106.526118 59.85522 
L 110.266729 60.682662 
L 114.007341 61.510104 
L 117.747953 62.337546 
L 121.488565 63.164988 
L 125.229176 63.99243 
L 128.969788 64.819872 
L 132.7104 65.647314 
L 136.451012 66.474756 
L 140.191624 67.302198 
L 143.932235 68.12964 
L 147.672847 68.957082 
L 151.413459 69.784524 
L 155.154071 70.611966 
L 158.894682 71.439408 
L 162.635294 72.26685 
L 166.375906 73.094292 
L 170.116518 73.921734 
L 173.857129 74.749176 
L 177.597741 75.576618 
L 181.338353 76.40406 
L 185.078965 77.231502 
L 188.819576 78.058944 
L 192.560188 78.886386 
L 196.3008 79.713828 
L 200.041412 80.54127 
L 203.782024 81.368712 
L 207.522635 82.196154 
L 211.263247 83.023596 
L 215.003859 83.851038 
L 218.744471 84.67848 
L 222.485082 85.505922 
L 226.225694 86.333364 
L 229.966306 87.160806 
L 233.706918 87.988248 
L 237.447529 88.81569 
L 241.188141 89.643132 
L 244.928753 90.470574 
L 248.669365 91.298016 
L 252.409976 92.125458 
L 256.150588 92.9529 
L 259.8912 93.780342 
L 263.631812 94.607784 
L 267.372424 95.435226 
L 271.113035 96.262668 
L 274.853647 97.09011 
L 278.594259 97.917552 
L 282.334871 98.744994 
L 286.075482 99.572436 
L 289.816094 100.399878 
L 293.556706 101.22732 
L 297.297318 102.054762 
L 301.037929 102.882204 
L 304.778541 103.709646 
L 308.519153 104.537088 
L 312.259765 105.36453 
L 316.000376 106.191972 
L 319.740988 107.019414 
L 323.4816 107.846856 
L 327.222212 108.674298 
L 330.962824 109.50174 
L 334.703435 110.329182 
L 338.444047 111.156624 
L 342.184659 111.984066 
L 345.925271 112.811508 
L 349.665882 113.63895 
L 353.406494 114.466392 
L 357.147106 115.293834 
L 360.887718 116.121276 
L 364.628329 116.948718 
L 368.368941 117.77616 
L 372.109553 118.603602 
L 375.850165 119.431044 
L 379.590776 120.258486 
L 383.331388 121.085928 
L 387.072 121.91337 
L 390.812612 122.740812 
L 394.553224 123.568254 
L 398.293835 124.395696 
L 402.034447 125.223138 
L 405.775059 126.05058 
L 409.515671 126.878022 
L 413.256282 127.705464 
L 416.996894 128.532906 
L 420.737506 129.360348 
L 424.478118 130.18779 
L 428.218729 131.015232 
L 431.959341 131.842674 
L 435.699953 132.670116 
L 439.440565 133.497558 
L 443.181176 134.325 
" style="fill:none;stroke:#1f77b4;stroke-linecap:square;stroke-width:1.5;"/>
   </g>
   <g id="line2d_26">
    <path clip-path="url(#p59c5c8c4ff)" d="M 69.12 382.5576 
L 72.860612 381.730158 
L 76.601224 380.902716 
L 80.341835 380.075274 
L 84.082447 379.247832 
L 87.823059 378.42039 
L 91.563671 377.592948 
L 95.304282 376.765506 
L 99.044894 375.938064 
L 102.785506 375.110622 
L 106.526118 374.28318 
L 110.266729 373.455738 
L 114.007341 372.628296 
L 117.747953 371.800854 
L 121.488565 370.973412 
L 125.229176 370.14597 
L 128.969788 369.318528 
L 132.7104 368.491086 
L 136.451012 367.663644 
L 140.191624 366.836202 
L 143.932235 366.00876 
L 147.672847 365.181318 
L 151.413459 364.353876 
L 155.154071 363.526434 
L 158.894682 362.698992 
L 162.635294 361.87155 
L 166.375906 361.044108 
L 170.116518 360.216666 
L 173.857129 359.389224 
L 177.597741 358.561782 
L 181.338353 357.73434 
L 185.078965 356.906898 
L 188.819576 356.079456 
L 192.560188 355.252014 
L 196.3008 354.424572 
L 200.041412 353.59713 
L 203.782024 352.769688 
L 207.522635 351.942246 
L 211.263247 351.114804 
L 215.003859 350.287362 
L 218.744471 349.45992 
L 222.485082 348.632478 
L 226.225694 347.805036 
L 229.966306 346.977594 
L 233.706918 346.150152 
L 237.447529 345.32271 
L 241.188141 344.495268 
L 244.928753 343.667826 
L 248.669365 342.840384 
L 252.409976 342.012942 
L 256.150588 341.1855 
L 259.8912 340.358058 
L 263.631812 339.530616 
L 267.372424 338.703174 
L 271.113035 337.875732 
L 274.853647 337.04829 
L 278.594259 336.220848 
L 282.334871 335.393406 
L 286.075482 334.565964 
L 289.816094 333.738522 
L 293.556706 332.91108 
L 297.297318 332.083638 
L 301.037929 331.256196 
L 304.778541 330.428754 
L 308.519153 329.601312 
L 312.259765 328.77387 
L 316.000376 327.946428 
L 319.740988 327.118986 
L 323.4816 326.291544 
L 327.222212 325.464102 
L 330.962824 324.63666 
L 334.703435 323.809218 
L 338.444047 322.981776 
L 342.184659 322.154334 
L 345.925271 321.326892 
L 349.665882 320.49945 
L 353.406494 319.672008 
L 357.147106 318.844566 
L 360.887718 318.017124 
L 364.628329 317.189682 
L 368.368941 316.36224 
L 372.109553 315.534798 
L 375.850165 314.707356 
L 379.590776 313.879914 
L 383.331388 313.052472 
L 387.072 312.22503 
L 390.812612 311.397588 
L 394.553224 310.570146 
L 398.293835 309.742704 
L 402.034447 308.915262 
L 405.775059 308.08782 
L 409.515671 307.260378 
L 413.256282 306.432936 
L 416.996894 305.605494 
L 420.737506 304.778052 
L 424.478118 303.95061 
L 428.218729 303.123168 
L 431.959341 302.295726 
L 435.699953 301.468284 
L 439.440565 300.640842 
L 443.181176 299.8134 
" style="fill:none;stroke:#ff7f0e;stroke-linecap:square;stroke-width:1.5;"/>
   </g>
   <g id="line2d_27">
    <path clip-path="url(#p59c5c8c4ff)" d="M 69.12 134.325 
L 72.860612 134.325 
L 76.601224 134.325 
L 80.341835 134.325 
L 84.082447 134.325 
L 87.823059 134.325 
L 91.563671 134.325 
L 95.304282 134.325 
L 99.044894 134.325 
L 102.785506 134.325 
L 106.526118 134.325 
L 110.266729 134.325 
L 114.007341 134.325 
L 117.747953 134.325 
L 121.488565 134.325 
L 125.229176 134.325 
L 128.969788 134.325 
L 132.7104 134.325 
L 136.451012 134.325 
L 140.191624 134.325 
L 143.932235 134.325 
L 147.672847 134.325 
L 151.413459 134.325 
L 155.154071 134.325 
L 158.894682 134.325 
L 162.635294 134.325 
L 166.375906 134.325 
L 170.116518 134.325 
L 173.857129 134.325 
L 177.597741 134.325 
L 181.338353 134.325 
L 185.078965 134.325 
L 188.819576 134.325 
L 192.560188 134.325 
L 196.3008 134.325 
L 200.041412 134.325 
L 203.782024 134.325 
L 207.522635 134.325 
L 211.263247 134.325 
L 215.003859 134.325 
L 218.744471 134.325 
L 222.485082 134.325 
L 226.225694 134.325 
L 229.966306 134.325 
L 233.706918 134.325 
L 237.447529 134.325 
L 241.188141 134.325 
L 244.928753 134.325 
L 248.669365 134.325 
L 252.409976 134.325 
L 256.150588 134.325 
L 259.8912 134.325 
L 263.631812 134.325 
L 267.372424 134.325 
L 271.113035 134.325 
L 274.853647 134.325 
L 278.594259 134.325 
L 282.334871 134.325 
L 286.075482 134.325 
L 289.816094 134.325 
L 293.556706 134.325 
L 297.297318 134.325 
L 301.037929 134.325 
L 304.778541 134.325 
L 308.519153 134.325 
L 312.259765 134.325 
L 316.000376 134.325 
L 319.740988 134.325 
L 323.4816 134.325 
L 327.222212 134.325 
L 330.962824 134.325 
L 334.703435 134.325 
L 338.444047 134.325 
L 342.184659 134.325 
L 345.925271 134.325 
L 349.665882 134.325 
L 353.406494 134.325 
L 357.147106 134.325 
L 360.887718 134.325 
L 364.628329 134.325 
L 368.368941 134.325 
L 372.109553 134.325 
L 375.850165 134.325 
L 379.590776 134.325 
L 383.331388 134.325 
L 387.072 134.325 
L 390.812612 134.325 
L 394.553224 134.325 
L 398.293835 134.325 
L 402.034447 134.325 
L 405.775059 134.325 
L 409.515671 134.325 
L 413.256282 134.325 
L 416.996894 134.325 
L 420.737506 134.325 
L 424.478118 134.325 
L 428.218729 134.325 
L 431.959341 134.325 
L 435.699953 134.325 
L 439.440565 134.325 
L 443.181176 134.325 
" style="fill:none;stroke:#2ca02c;stroke-dasharray:9.6,2.4,1.5,2.4;stroke-dashoffset:0;stroke-width:1.5;"/>
   </g>
   <g id="line2d_28">
    <path clip-path="url(#p59c5c8c4ff)" d="M 69.12 299.8134 
L 72.860612 299.8134 
L 76.601224 299.8134 
L 80.341835 299.8134 
L 84.082447 299.8134 
L 87.823059 299.8134 
L 91.563671 299.8134 
L 95.304282 299.8134 
L 99.044894 299.8134 
L 102.785506 299.8134 
L 106.526118 299.8134 
L 110.266729 299.8134 
L 114.007341 299.8134 
L 117.747953 299.8134 
L 121.488565 299.8134 
L 125.229176 299.8134 
L 128.969788 299.8134 
L 132.7104 299.8134 
L 136.451012 299.8134 
L 140.191624 299.8134 
L 143.932235 299.8134 
L 147.672847 299.8134 
L 151.413459 299.8134 
L 155.154071 299.8134 
L 158.894682 299.8134 
L 162.635294 299.8134 
L 166.375906 299.8134 
L 170.116518 299.8134 
L 173.857129 299.8134 
L 177.597741 299.8134 
L 181.338353 299.8134 
L 185.078965 299.8134 
L 188.819576 299.8134 
L 192.560188 299.8134 
L 196.3008 299.8134 
L 200.041412 299.8134 
L 203.782024 299.8134 
L 207.522635 299.8134 
L 211.263247 299.8134 
L 215.003859 299.8134 
L 218.744471 299.8134 
L 222.485082 299.8134 
L 226.225694 299.8134 
L 229.966306 299.8134 
L 233.706918 299.8134 
L 237.447529 299.8134 
L 241.188141 299.8134 
L 244.928753 299.8134 
L 248.669365 299.8134 
L 252.409976 299.8134 
L 256.150588 299.8134 
L 259.8912 299.8134 
L 263.631812 299.8134 
L 267.372424 299.8134 
L 271.113035 299.8134 
L 274.853647 299.8134 
L 278.594259 299.8134 
L 282.334871 299.8134 
L 286.075482 299.8134 
L 289.816094 299.8134 
L 293.556706 299.8134 
L 297.297318 299.8134 
L 301.037929 299.8134 
L 304.778541 299.8134 
L 308.519153 299.8134 
L 312.259765 299.8134 
L 316.000376 299.8134 
L 319.740988 299.8134 
L 323.4816 299.8134 
L 327.222212 299.8134 
L 330.962824 299.8134 
L 334.703435 299.8134 
L 338.444047 299.8134 
L 342.184659 299.8134 
L 345.925271 299.8134 
L 349.665882 299.8134 
L 353.406494 299.8134 
L 357.147106 299.8134 
L 360.887718 299.8134 
L 364.628329 299.8134 
L 368.368941 299.8134 
L 372.109553 299.8134 
L 375.850165 299.8134 
L 379.590776 299.8134 
L 383.331388 299.8134 
L 387.072 299.8134 
L 390.812612 299.8134 
L 394.553224 299.8134 
L 398.293835 299.8134 
L 402.034447 299.8134 
L 405.775059 299.8134 
L 409.515671 299.8134 
L 413.256282 299.8134 
L 416.996894 299.8134 
L 420.737506 299.8134 
L 424.478118 299.8134 
L 428.218729 299.8134 
L 431.959341 299.8134 
L 435.699953 299.8134 
L 439.440565 299.8134 
L 443.181176 299.8134 
" style="fill:none;stroke:#d62728;stroke-dasharray:9.6,2.4,1.5,2.4;stroke-dashoffset:0;stroke-width:1.5;"/>
   </g>
   <g id="patch_3">
    <path d="M 69.12 382.5576 
L 69.12 51.5808 
" style="fill:none;stroke:#000000;stroke-linecap:square;stroke-linejoin:miter;stroke-width:0.8;"/>
   </g>
   <g id="patch_4">
    <path d="M 443.181176 382.5576 
L 443.181176 51.5808 
" style="fill:none;stroke:#000000;stroke-linecap:square;stroke-linejoin:miter;stroke-width:0.8;"/>
   </g>
   <g id="patch_5">
    <path d="M 69.12 382.5576 
L 443.181176 382.5576 
" style="fill:none;stroke:#000000;stroke-linecap:square;stroke-linejoin:miter;stroke-width:0.8;"/>
   </g>
   <g id="patch_6">
    <path d="M 69.12 51.5808 
L 443.181176 51.5808 
" style="fill:none;stroke:#000000;stroke-linecap:square;stroke-linejoin:miter;stroke-width:0.8;"/>
   </g>
   <g id="text_15">
    <!-- 0.5&lt;β&lt;=1 -->
    <defs>
     <path d="M 10.796875 72.90625 
L 49.515625 72.90625 
L 49.515625 64.59375 
L 19.828125 64.59375 
L 19.828125 46.734375 
Q 21.96875 47.46875 24.109375 47.828125 
Q 26.265625 48.1875 28.421875 48.1875 
Q 40.625 48.1875 47.75 41.5 
Q 54.890625 34.8125 54.890625 23.390625 
Q 54.890625 11.625 47.5625 5.09375 
Q 40.234375 -1.421875 26.90625 -1.421875 
Q 22.3125 -1.421875 17.546875 -0.640625 
Q 12.796875 0.140625 7.71875 1.703125 
L 7.71875 11.625 
Q 12.109375 9.234375 16.796875 8.0625 
Q 21.484375 6.890625 26.703125 6.890625 
Q 35.15625 6.890625 40.078125 11.328125 
Q 45.015625 15.765625 45.015625 23.390625 
Q 45.015625 31 40.078125 35.4375 
Q 35.15625 39.890625 26.703125 39.890625 
Q 22.75 39.890625 18.8125 39.015625 
Q 14.890625 38.140625 10.796875 36.28125 
z
" id="DejaVuSans-53"/>
     <path d="M 73.1875 49.21875 
L 22.796875 31.296875 
L 73.1875 13.484375 
L 73.1875 4.59375 
L 10.59375 27.296875 
L 10.59375 35.40625 
L 73.1875 58.109375 
z
" id="DejaVuSans-60"/>
     <path d="M 18.40625 3.375 
L 18.40625 -20.796875 
L 9.375 -20.796875 
L 9.375 54.34375 
Q 9.375 76.609375 30.171875 76.609375 
Q 51.375 76.609375 51.375 57.8125 
Q 51.375 44.4375 42.96875 39.546875 
Q 56.640625 35.15625 56.640625 22.125 
Q 56.640625 -1.03125 33.109375 -1.03125 
Q 22.75 -1.03125 18.40625 3.375 
z
M 18.40625 15.09375 
Q 23.828125 6.640625 33.453125 6.640625 
Q 47.515625 6.640625 47.515625 21.96875 
Q 47.515625 35.75 24.859375 34.671875 
L 24.859375 42.96875 
Q 42.578125 42.96875 42.578125 58.59375 
Q 42.578125 69.28125 31.15625 69.28125 
Q 18.40625 69.28125 18.40625 54.046875 
z
" id="DejaVuSans-946"/>
     <path d="M 10.59375 45.40625 
L 73.1875 45.40625 
L 73.1875 37.203125 
L 10.59375 37.203125 
z
M 10.59375 25.484375 
L 73.1875 25.484375 
L 73.1875 17.1875 
L 10.59375 17.1875 
z
" id="DejaVuSans-61"/>
    </defs>
    <g transform="translate(223.879026 45.5808)scale(0.12 -0.12)">
     <use xlink:href="#DejaVuSans-48"/>
     <use x="63.623047" xlink:href="#DejaVuSans-46"/>
     <use x="95.410156" xlink:href="#DejaVuSans-53"/>
     <use x="159.033203" xlink:href="#DejaVuSans-60"/>
     <use x="242.822266" xlink:href="#DejaVuSans-946"/>
     <use x="306.640625" xlink:href="#DejaVuSans-60"/>
     <use x="390.429688" xlink:href="#DejaVuSans-61"/>
     <use x="474.21875" xlink:href="#DejaVuSans-49"/>
    </g>
   </g>
   <g id="legend_1">
    <g id="patch_7">
     <path d="M 373.531176 118.4183 
L 436.181176 118.4183 
Q 438.181176 118.4183 438.181176 116.4183 
L 438.181176 58.5808 
Q 438.181176 56.5808 436.181176 56.5808 
L 373.531176 56.5808 
Q 371.531176 56.5808 371.531176 58.5808 
L 371.531176 116.4183 
Q 371.531176 118.4183 373.531176 118.4183 
z
" style="fill:#ffffff;opacity:0.8;stroke:#cccccc;stroke-linejoin:miter;"/>
    </g>
    <g id="line2d_29">
     <path d="M 375.531176 64.679238 
L 395.531176 64.679238 
" style="fill:none;stroke:#1f77b4;stroke-linecap:square;stroke-width:1.5;"/>
    </g>
    <g id="line2d_30"/>
    <g id="text_16">
     <!-- t -->
     <defs>
      <path d="M 18.3125 70.21875 
L 18.3125 54.6875 
L 36.8125 54.6875 
L 36.8125 47.703125 
L 18.3125 47.703125 
L 18.3125 18.015625 
Q 18.3125 11.328125 20.140625 9.421875 
Q 21.96875 7.515625 27.59375 7.515625 
L 36.8125 7.515625 
L 36.8125 0 
L 27.59375 0 
Q 17.1875 0 13.234375 3.875 
Q 9.28125 7.765625 9.28125 18.015625 
L 9.28125 47.703125 
L 2.6875 47.703125 
L 2.6875 54.6875 
L 9.28125 54.6875 
L 9.28125 70.21875 
z
" id="DejaVuSans-116"/>
     </defs>
     <g transform="translate(403.531176 68.179238)scale(0.1 -0.1)">
      <use xlink:href="#DejaVuSans-116"/>
     </g>
    </g>
    <g id="line2d_31">
     <path d="M 375.531176 79.357363 
L 395.531176 79.357363 
" style="fill:none;stroke:#ff7f0e;stroke-linecap:square;stroke-width:1.5;"/>
    </g>
    <g id="line2d_32"/>
    <g id="text_17">
     <!-- e -->
     <defs>
      <path d="M 56.203125 29.59375 
L 56.203125 25.203125 
L 14.890625 25.203125 
Q 15.484375 15.921875 20.484375 11.0625 
Q 25.484375 6.203125 34.421875 6.203125 
Q 39.59375 6.203125 44.453125 7.46875 
Q 49.3125 8.734375 54.109375 11.28125 
L 54.109375 2.78125 
Q 49.265625 0.734375 44.1875 -0.34375 
Q 39.109375 -1.421875 33.890625 -1.421875 
Q 20.796875 -1.421875 13.15625 6.1875 
Q 5.515625 13.8125 5.515625 26.8125 
Q 5.515625 40.234375 12.765625 48.109375 
Q 20.015625 56 32.328125 56 
Q 43.359375 56 49.78125 48.890625 
Q 56.203125 41.796875 56.203125 29.59375 
z
M 47.21875 32.234375 
Q 47.125 39.59375 43.09375 43.984375 
Q 39.0625 48.390625 32.421875 48.390625 
Q 24.90625 48.390625 20.390625 44.140625 
Q 15.875 39.890625 15.1875 32.171875 
z
" id="DejaVuSans-101"/>
     </defs>
     <g transform="translate(403.531176 82.857363)scale(0.1 -0.1)">
      <use xlink:href="#DejaVuSans-101"/>
     </g>
    </g>
    <g id="line2d_33">
     <path d="M 375.531176 94.097988 
L 395.531176 94.097988 
" style="fill:none;stroke:#2ca02c;stroke-dasharray:9.6,2.4,1.5,2.4;stroke-dashoffset:0;stroke-width:1.5;"/>
    </g>
    <g id="line2d_34"/>
    <g id="text_18">
     <!-- y=β -->
     <g transform="translate(403.531176 97.597988)scale(0.1 -0.1)">
      <use xlink:href="#DejaVuSans-121"/>
      <use x="59.179688" xlink:href="#DejaVuSans-61"/>
      <use x="142.96875" xlink:href="#DejaVuSans-946"/>
     </g>
    </g>
    <g id="line2d_35">
     <path d="M 375.531176 108.838613 
L 395.531176 108.838613 
" style="fill:none;stroke:#d62728;stroke-dasharray:9.6,2.4,1.5,2.4;stroke-dashoffset:0;stroke-width:1.5;"/>
    </g>
    <g id="line2d_36"/>
    <g id="text_19">
     <!-- y=1-β -->
     <defs>
      <path d="M 4.890625 31.390625 
L 31.203125 31.390625 
L 31.203125 23.390625 
L 4.890625 23.390625 
z
" id="DejaVuSans-45"/>
     </defs>
     <g transform="translate(403.531176 112.338613)scale(0.1 -0.1)">
      <use xlink:href="#DejaVuSans-121"/>
      <use x="59.179688" xlink:href="#DejaVuSans-61"/>
      <use x="142.96875" xlink:href="#DejaVuSans-49"/>
      <use x="206.591797" xlink:href="#DejaVuSans-45"/>
      <use x="242.675781" xlink:href="#DejaVuSans-946"/>
     </g>
    </g>
   </g>
  </g>
  <g id="axes_2">
   <g id="patch_8">
    <path d="M 517.993412 382.5576 
L 892.054588 382.5576 
L 892.054588 51.5808 
L 517.993412 51.5808 
z
" style="fill:#ffffff;"/>
   </g>
   <g id="matplotlib.axis_3">
    <g id="xtick_7">
     <g id="line2d_37">
      <path clip-path="url(#p9bd9e34ae5)" d="M 517.993412 382.5576 
L 517.993412 51.5808 
" style="fill:none;stroke:#b0b0b0;stroke-dasharray:2.96,1.28;stroke-dashoffset:0;stroke-width:0.8;"/>
     </g>
     <g id="line2d_38">
      <g>
       <use style="stroke:#000000;stroke-width:0.8;" x="517.993412" xlink:href="#m304a2b1484" y="382.5576"/>
      </g>
     </g>
     <g id="text_20">
      <!-- 0.0 -->
      <g transform="translate(510.041849 397.156037)scale(0.1 -0.1)">
       <use xlink:href="#DejaVuSans-48"/>
       <use x="63.623047" xlink:href="#DejaVuSans-46"/>
       <use x="95.410156" xlink:href="#DejaVuSans-48"/>
      </g>
     </g>
    </g>
    <g id="xtick_8">
     <g id="line2d_39">
      <path clip-path="url(#p9bd9e34ae5)" d="M 592.805647 382.5576 
L 592.805647 51.5808 
" style="fill:none;stroke:#b0b0b0;stroke-dasharray:2.96,1.28;stroke-dashoffset:0;stroke-width:0.8;"/>
     </g>
     <g id="line2d_40">
      <g>
       <use style="stroke:#000000;stroke-width:0.8;" x="592.805647" xlink:href="#m304a2b1484" y="382.5576"/>
      </g>
     </g>
     <g id="text_21">
      <!-- 0.2 -->
      <g transform="translate(584.854085 397.156037)scale(0.1 -0.1)">
       <use xlink:href="#DejaVuSans-48"/>
       <use x="63.623047" xlink:href="#DejaVuSans-46"/>
       <use x="95.410156" xlink:href="#DejaVuSans-50"/>
      </g>
     </g>
    </g>
    <g id="xtick_9">
     <g id="line2d_41">
      <path clip-path="url(#p9bd9e34ae5)" d="M 667.617882 382.5576 
L 667.617882 51.5808 
" style="fill:none;stroke:#b0b0b0;stroke-dasharray:2.96,1.28;stroke-dashoffset:0;stroke-width:0.8;"/>
     </g>
     <g id="line2d_42">
      <g>
       <use style="stroke:#000000;stroke-width:0.8;" x="667.617882" xlink:href="#m304a2b1484" y="382.5576"/>
      </g>
     </g>
     <g id="text_22">
      <!-- 0.4 -->
      <g transform="translate(659.66632 397.156037)scale(0.1 -0.1)">
       <use xlink:href="#DejaVuSans-48"/>
       <use x="63.623047" xlink:href="#DejaVuSans-46"/>
       <use x="95.410156" xlink:href="#DejaVuSans-52"/>
      </g>
     </g>
    </g>
    <g id="xtick_10">
     <g id="line2d_43">
      <path clip-path="url(#p9bd9e34ae5)" d="M 742.430118 382.5576 
L 742.430118 51.5808 
" style="fill:none;stroke:#b0b0b0;stroke-dasharray:2.96,1.28;stroke-dashoffset:0;stroke-width:0.8;"/>
     </g>
     <g id="line2d_44">
      <g>
       <use style="stroke:#000000;stroke-width:0.8;" x="742.430118" xlink:href="#m304a2b1484" y="382.5576"/>
      </g>
     </g>
     <g id="text_23">
      <!-- 0.6 -->
      <g transform="translate(734.478555 397.156037)scale(0.1 -0.1)">
       <use xlink:href="#DejaVuSans-48"/>
       <use x="63.623047" xlink:href="#DejaVuSans-46"/>
       <use x="95.410156" xlink:href="#DejaVuSans-54"/>
      </g>
     </g>
    </g>
    <g id="xtick_11">
     <g id="line2d_45">
      <path clip-path="url(#p9bd9e34ae5)" d="M 817.242353 382.5576 
L 817.242353 51.5808 
" style="fill:none;stroke:#b0b0b0;stroke-dasharray:2.96,1.28;stroke-dashoffset:0;stroke-width:0.8;"/>
     </g>
     <g id="line2d_46">
      <g>
       <use style="stroke:#000000;stroke-width:0.8;" x="817.242353" xlink:href="#m304a2b1484" y="382.5576"/>
      </g>
     </g>
     <g id="text_24">
      <!-- 0.8 -->
      <g transform="translate(809.29079 397.156037)scale(0.1 -0.1)">
       <use xlink:href="#DejaVuSans-48"/>
       <use x="63.623047" xlink:href="#DejaVuSans-46"/>
       <use x="95.410156" xlink:href="#DejaVuSans-56"/>
      </g>
     </g>
    </g>
    <g id="xtick_12">
     <g id="line2d_47">
      <path clip-path="url(#p9bd9e34ae5)" d="M 892.054588 382.5576 
L 892.054588 51.5808 
" style="fill:none;stroke:#b0b0b0;stroke-dasharray:2.96,1.28;stroke-dashoffset:0;stroke-width:0.8;"/>
     </g>
     <g id="line2d_48">
      <g>
       <use style="stroke:#000000;stroke-width:0.8;" x="892.054588" xlink:href="#m304a2b1484" y="382.5576"/>
      </g>
     </g>
     <g id="text_25">
      <!-- 1.0 -->
      <g transform="translate(884.103026 397.156037)scale(0.1 -0.1)">
       <use xlink:href="#DejaVuSans-49"/>
       <use x="63.623047" xlink:href="#DejaVuSans-46"/>
       <use x="95.410156" xlink:href="#DejaVuSans-48"/>
      </g>
     </g>
    </g>
    <g id="text_26">
     <!-- α -->
     <g transform="translate(701.727906 410.834162)scale(0.1 -0.1)">
      <use xlink:href="#DejaVuSans-945"/>
     </g>
    </g>
   </g>
   <g id="matplotlib.axis_4">
    <g id="ytick_7">
     <g id="line2d_49">
      <path clip-path="url(#p9bd9e34ae5)" d="M 517.993412 382.5576 
L 892.054588 382.5576 
" style="fill:none;stroke:#b0b0b0;stroke-dasharray:2.96,1.28;stroke-dashoffset:0;stroke-width:0.8;"/>
     </g>
     <g id="line2d_50">
      <g>
       <use style="stroke:#000000;stroke-width:0.8;" x="517.993412" xlink:href="#mb53ceebef7" y="382.5576"/>
      </g>
     </g>
     <g id="text_27">
      <!-- 0.0 -->
      <g transform="translate(495.090287 386.356819)scale(0.1 -0.1)">
       <use xlink:href="#DejaVuSans-48"/>
       <use x="63.623047" xlink:href="#DejaVuSans-46"/>
       <use x="95.410156" xlink:href="#DejaVuSans-48"/>
      </g>
     </g>
    </g>
    <g id="ytick_8">
     <g id="line2d_51">
      <path clip-path="url(#p9bd9e34ae5)" d="M 517.993412 316.36224 
L 892.054588 316.36224 
" style="fill:none;stroke:#b0b0b0;stroke-dasharray:2.96,1.28;stroke-dashoffset:0;stroke-width:0.8;"/>
     </g>
     <g id="line2d_52">
      <g>
       <use style="stroke:#000000;stroke-width:0.8;" x="517.993412" xlink:href="#mb53ceebef7" y="316.36224"/>
      </g>
     </g>
     <g id="text_28">
      <!-- 0.2 -->
      <g transform="translate(495.090287 320.161459)scale(0.1 -0.1)">
       <use xlink:href="#DejaVuSans-48"/>
       <use x="63.623047" xlink:href="#DejaVuSans-46"/>
       <use x="95.410156" xlink:href="#DejaVuSans-50"/>
      </g>
     </g>
    </g>
    <g id="ytick_9">
     <g id="line2d_53">
      <path clip-path="url(#p9bd9e34ae5)" d="M 517.993412 250.16688 
L 892.054588 250.16688 
" style="fill:none;stroke:#b0b0b0;stroke-dasharray:2.96,1.28;stroke-dashoffset:0;stroke-width:0.8;"/>
     </g>
     <g id="line2d_54">
      <g>
       <use style="stroke:#000000;stroke-width:0.8;" x="517.993412" xlink:href="#mb53ceebef7" y="250.16688"/>
      </g>
     </g>
     <g id="text_29">
      <!-- 0.4 -->
      <g transform="translate(495.090287 253.966099)scale(0.1 -0.1)">
       <use xlink:href="#DejaVuSans-48"/>
       <use x="63.623047" xlink:href="#DejaVuSans-46"/>
       <use x="95.410156" xlink:href="#DejaVuSans-52"/>
      </g>
     </g>
    </g>
    <g id="ytick_10">
     <g id="line2d_55">
      <path clip-path="url(#p9bd9e34ae5)" d="M 517.993412 183.97152 
L 892.054588 183.97152 
" style="fill:none;stroke:#b0b0b0;stroke-dasharray:2.96,1.28;stroke-dashoffset:0;stroke-width:0.8;"/>
     </g>
     <g id="line2d_56">
      <g>
       <use style="stroke:#000000;stroke-width:0.8;" x="517.993412" xlink:href="#mb53ceebef7" y="183.97152"/>
      </g>
     </g>
     <g id="text_30">
      <!-- 0.6 -->
      <g transform="translate(495.090287 187.770739)scale(0.1 -0.1)">
       <use xlink:href="#DejaVuSans-48"/>
       <use x="63.623047" xlink:href="#DejaVuSans-46"/>
       <use x="95.410156" xlink:href="#DejaVuSans-54"/>
      </g>
     </g>
    </g>
    <g id="ytick_11">
     <g id="line2d_57">
      <path clip-path="url(#p9bd9e34ae5)" d="M 517.993412 117.77616 
L 892.054588 117.77616 
" style="fill:none;stroke:#b0b0b0;stroke-dasharray:2.96,1.28;stroke-dashoffset:0;stroke-width:0.8;"/>
     </g>
     <g id="line2d_58">
      <g>
       <use style="stroke:#000000;stroke-width:0.8;" x="517.993412" xlink:href="#mb53ceebef7" y="117.77616"/>
      </g>
     </g>
     <g id="text_31">
      <!-- 0.8 -->
      <g transform="translate(495.090287 121.575379)scale(0.1 -0.1)">
       <use xlink:href="#DejaVuSans-48"/>
       <use x="63.623047" xlink:href="#DejaVuSans-46"/>
       <use x="95.410156" xlink:href="#DejaVuSans-56"/>
      </g>
     </g>
    </g>
    <g id="ytick_12">
     <g id="line2d_59">
      <path clip-path="url(#p9bd9e34ae5)" d="M 517.993412 51.5808 
L 892.054588 51.5808 
" style="fill:none;stroke:#b0b0b0;stroke-dasharray:2.96,1.28;stroke-dashoffset:0;stroke-width:0.8;"/>
     </g>
     <g id="line2d_60">
      <g>
       <use style="stroke:#000000;stroke-width:0.8;" x="517.993412" xlink:href="#mb53ceebef7" y="51.5808"/>
      </g>
     </g>
     <g id="text_32">
      <!-- 1.0 -->
      <g transform="translate(495.090287 55.380019)scale(0.1 -0.1)">
       <use xlink:href="#DejaVuSans-49"/>
       <use x="63.623047" xlink:href="#DejaVuSans-46"/>
       <use x="95.410156" xlink:href="#DejaVuSans-48"/>
      </g>
     </g>
    </g>
    <g id="text_33">
     <!-- y -->
     <g transform="translate(489.010599 220.028575)rotate(-90)scale(0.1 -0.1)">
      <use xlink:href="#DejaVuSans-121"/>
     </g>
    </g>
   </g>
   <g id="line2d_61">
    <path clip-path="url(#p9bd9e34ae5)" d="M 517.993412 51.5808 
L 521.734024 53.235684 
L 525.474635 54.890568 
L 529.215247 56.545452 
L 532.955859 58.200336 
L 536.696471 59.85522 
L 540.437082 61.510104 
L 544.177694 63.164988 
L 547.918306 64.819872 
L 551.658918 66.474756 
L 555.399529 68.12964 
L 559.140141 69.784524 
L 562.880753 71.439408 
L 566.621365 73.094292 
L 570.361976 74.749176 
L 574.102588 76.40406 
L 577.8432 78.058944 
L 581.583812 79.713828 
L 585.324424 81.368712 
L 589.065035 83.023596 
L 592.805647 84.67848 
L 596.546259 86.333364 
L 600.286871 87.988248 
L 604.027482 89.643132 
L 607.768094 91.298016 
L 611.508706 92.9529 
L 615.249318 94.607784 
L 618.989929 96.262668 
L 622.730541 97.917552 
L 626.471153 99.572436 
L 630.211765 101.22732 
L 633.952376 102.882204 
L 637.692988 104.537088 
L 641.4336 106.191972 
L 645.174212 107.846856 
L 648.914824 109.50174 
L 652.655435 111.156624 
L 656.396047 112.811508 
L 660.136659 114.466392 
L 663.877271 116.121276 
L 667.617882 117.77616 
L 671.358494 119.431044 
L 675.099106 121.085928 
L 678.839718 122.740812 
L 682.580329 124.395696 
L 686.320941 126.05058 
L 690.061553 127.705464 
L 693.802165 129.360348 
L 697.542776 131.015232 
L 701.283388 132.670116 
L 705.024 134.325 
L 708.764612 135.979884 
L 712.505224 137.634768 
L 716.245835 139.289652 
L 719.986447 140.944536 
L 723.727059 142.59942 
L 727.467671 144.254304 
L 731.208282 145.909188 
L 734.948894 147.564072 
L 738.689506 149.218956 
L 742.430118 150.87384 
L 746.170729 152.528724 
L 749.911341 154.183608 
L 753.651953 155.838492 
L 757.392565 157.493376 
L 761.133176 159.14826 
L 764.873788 160.803144 
L 768.6144 162.458028 
L 772.355012 164.112912 
L 776.095624 165.767796 
L 779.836235 167.42268 
L 783.576847 169.077564 
L 787.317459 170.732448 
L 791.058071 172.387332 
L 794.798682 174.042216 
L 798.539294 175.6971 
L 802.279906 177.351984 
L 806.020518 179.006868 
L 809.761129 180.661752 
L 813.501741 182.316636 
L 817.242353 183.97152 
L 820.982965 185.626404 
L 824.723576 187.281288 
L 828.464188 188.936172 
L 832.2048 190.591056 
L 835.945412 192.24594 
L 839.686024 193.900824 
L 843.426635 195.555708 
L 847.167247 197.210592 
L 850.907859 198.865476 
L 854.648471 200.52036 
L 858.389082 202.175244 
L 862.129694 203.830128 
L 865.870306 205.485012 
L 869.610918 207.139896 
L 873.351529 208.79478 
L 877.092141 210.449664 
L 880.832753 212.104548 
L 884.573365 213.759432 
L 888.313976 215.414316 
L 892.054588 217.0692 
" style="fill:none;stroke:#1f77b4;stroke-linecap:square;stroke-width:1.5;"/>
   </g>
   <g id="line2d_62">
    <path clip-path="url(#p9bd9e34ae5)" d="M 517.993412 382.5576 
L 521.734024 380.902716 
L 525.474635 379.247832 
L 529.215247 377.592948 
L 532.955859 375.938064 
L 536.696471 374.28318 
L 540.437082 372.628296 
L 544.177694 370.973412 
L 547.918306 369.318528 
L 551.658918 367.663644 
L 555.399529 366.00876 
L 559.140141 364.353876 
L 562.880753 362.698992 
L 566.621365 361.044108 
L 570.361976 359.389224 
L 574.102588 357.73434 
L 577.8432 356.079456 
L 581.583812 354.424572 
L 585.324424 352.769688 
L 589.065035 351.114804 
L 592.805647 349.45992 
L 596.546259 347.805036 
L 600.286871 346.150152 
L 604.027482 344.495268 
L 607.768094 342.840384 
L 611.508706 341.1855 
L 615.249318 339.530616 
L 618.989929 337.875732 
L 622.730541 336.220848 
L 626.471153 334.565964 
L 630.211765 332.91108 
L 633.952376 331.256196 
L 637.692988 329.601312 
L 641.4336 327.946428 
L 645.174212 326.291544 
L 648.914824 324.63666 
L 652.655435 322.981776 
L 656.396047 321.326892 
L 660.136659 319.672008 
L 663.877271 318.017124 
L 667.617882 316.36224 
L 671.358494 314.707356 
L 675.099106 313.052472 
L 678.839718 311.397588 
L 682.580329 309.742704 
L 686.320941 308.08782 
L 690.061553 306.432936 
L 693.802165 304.778052 
L 697.542776 303.123168 
L 701.283388 301.468284 
L 705.024 299.8134 
L 708.764612 298.158516 
L 712.505224 296.503632 
L 716.245835 294.848748 
L 719.986447 293.193864 
L 723.727059 291.53898 
L 727.467671 289.884096 
L 731.208282 288.229212 
L 734.948894 286.574328 
L 738.689506 284.919444 
L 742.430118 283.26456 
L 746.170729 281.609676 
L 749.911341 279.954792 
L 753.651953 278.299908 
L 757.392565 276.645024 
L 761.133176 274.99014 
L 764.873788 273.335256 
L 768.6144 271.680372 
L 772.355012 270.025488 
L 776.095624 268.370604 
L 779.836235 266.71572 
L 783.576847 265.060836 
L 787.317459 263.405952 
L 791.058071 261.751068 
L 794.798682 260.096184 
L 798.539294 258.4413 
L 802.279906 256.786416 
L 806.020518 255.131532 
L 809.761129 253.476648 
L 813.501741 251.821764 
L 817.242353 250.16688 
L 820.982965 248.511996 
L 824.723576 246.857112 
L 828.464188 245.202228 
L 832.2048 243.547344 
L 835.945412 241.89246 
L 839.686024 240.237576 
L 843.426635 238.582692 
L 847.167247 236.927808 
L 850.907859 235.272924 
L 854.648471 233.61804 
L 858.389082 231.963156 
L 862.129694 230.308272 
L 865.870306 228.653388 
L 869.610918 226.998504 
L 873.351529 225.34362 
L 877.092141 223.688736 
L 880.832753 222.033852 
L 884.573365 220.378968 
L 888.313976 218.724084 
L 892.054588 217.0692 
" style="fill:none;stroke:#ff7f0e;stroke-linecap:square;stroke-width:1.5;"/>
   </g>
   <g id="line2d_63">
    <path clip-path="url(#p9bd9e34ae5)" d="M 517.993412 217.0692 
L 521.734024 217.0692 
L 525.474635 217.0692 
L 529.215247 217.0692 
L 532.955859 217.0692 
L 536.696471 217.0692 
L 540.437082 217.0692 
L 544.177694 217.0692 
L 547.918306 217.0692 
L 551.658918 217.0692 
L 555.399529 217.0692 
L 559.140141 217.0692 
L 562.880753 217.0692 
L 566.621365 217.0692 
L 570.361976 217.0692 
L 574.102588 217.0692 
L 577.8432 217.0692 
L 581.583812 217.0692 
L 585.324424 217.0692 
L 589.065035 217.0692 
L 592.805647 217.0692 
L 596.546259 217.0692 
L 600.286871 217.0692 
L 604.027482 217.0692 
L 607.768094 217.0692 
L 611.508706 217.0692 
L 615.249318 217.0692 
L 618.989929 217.0692 
L 622.730541 217.0692 
L 626.471153 217.0692 
L 630.211765 217.0692 
L 633.952376 217.0692 
L 637.692988 217.0692 
L 641.4336 217.0692 
L 645.174212 217.0692 
L 648.914824 217.0692 
L 652.655435 217.0692 
L 656.396047 217.0692 
L 660.136659 217.0692 
L 663.877271 217.0692 
L 667.617882 217.0692 
L 671.358494 217.0692 
L 675.099106 217.0692 
L 678.839718 217.0692 
L 682.580329 217.0692 
L 686.320941 217.0692 
L 690.061553 217.0692 
L 693.802165 217.0692 
L 697.542776 217.0692 
L 701.283388 217.0692 
L 705.024 217.0692 
L 708.764612 217.0692 
L 712.505224 217.0692 
L 716.245835 217.0692 
L 719.986447 217.0692 
L 723.727059 217.0692 
L 727.467671 217.0692 
L 731.208282 217.0692 
L 734.948894 217.0692 
L 738.689506 217.0692 
L 742.430118 217.0692 
L 746.170729 217.0692 
L 749.911341 217.0692 
L 753.651953 217.0692 
L 757.392565 217.0692 
L 761.133176 217.0692 
L 764.873788 217.0692 
L 768.6144 217.0692 
L 772.355012 217.0692 
L 776.095624 217.0692 
L 779.836235 217.0692 
L 783.576847 217.0692 
L 787.317459 217.0692 
L 791.058071 217.0692 
L 794.798682 217.0692 
L 798.539294 217.0692 
L 802.279906 217.0692 
L 806.020518 217.0692 
L 809.761129 217.0692 
L 813.501741 217.0692 
L 817.242353 217.0692 
L 820.982965 217.0692 
L 824.723576 217.0692 
L 828.464188 217.0692 
L 832.2048 217.0692 
L 835.945412 217.0692 
L 839.686024 217.0692 
L 843.426635 217.0692 
L 847.167247 217.0692 
L 850.907859 217.0692 
L 854.648471 217.0692 
L 858.389082 217.0692 
L 862.129694 217.0692 
L 865.870306 217.0692 
L 869.610918 217.0692 
L 873.351529 217.0692 
L 877.092141 217.0692 
L 880.832753 217.0692 
L 884.573365 217.0692 
L 888.313976 217.0692 
L 892.054588 217.0692 
" style="fill:none;stroke:#2ca02c;stroke-dasharray:9.6,2.4,1.5,2.4;stroke-dashoffset:0;stroke-width:1.5;"/>
   </g>
   <g id="patch_9">
    <path d="M 517.993412 382.5576 
L 517.993412 51.5808 
" style="fill:none;stroke:#000000;stroke-linecap:square;stroke-linejoin:miter;stroke-width:0.8;"/>
   </g>
   <g id="patch_10">
    <path d="M 892.054588 382.5576 
L 892.054588 51.5808 
" style="fill:none;stroke:#000000;stroke-linecap:square;stroke-linejoin:miter;stroke-width:0.8;"/>
   </g>
   <g id="patch_11">
    <path d="M 517.993412 382.5576 
L 892.054588 382.5576 
" style="fill:none;stroke:#000000;stroke-linecap:square;stroke-linejoin:miter;stroke-width:0.8;"/>
   </g>
   <g id="patch_12">
    <path d="M 517.993412 51.5808 
L 892.054588 51.5808 
" style="fill:none;stroke:#000000;stroke-linecap:square;stroke-linejoin:miter;stroke-width:0.8;"/>
   </g>
   <g id="text_34">
    <!-- β=0.5 -->
    <g transform="translate(686.625562 45.5808)scale(0.12 -0.12)">
     <use xlink:href="#DejaVuSans-946"/>
     <use x="63.818359" xlink:href="#DejaVuSans-61"/>
     <use x="147.607422" xlink:href="#DejaVuSans-48"/>
     <use x="211.230469" xlink:href="#DejaVuSans-46"/>
     <use x="243.017578" xlink:href="#DejaVuSans-53"/>
    </g>
   </g>
   <g id="legend_2">
    <g id="patch_13">
     <path d="M 822.390526 103.677675 
L 885.054588 103.677675 
Q 887.054588 103.677675 887.054588 101.677675 
L 887.054588 58.5808 
Q 887.054588 56.5808 885.054588 56.5808 
L 822.390526 56.5808 
Q 820.390526 56.5808 820.390526 58.5808 
L 820.390526 101.677675 
Q 820.390526 103.677675 822.390526 103.677675 
z
" style="fill:#ffffff;opacity:0.8;stroke:#cccccc;stroke-linejoin:miter;"/>
    </g>
    <g id="line2d_64">
     <path d="M 824.390526 64.679237 
L 844.390526 64.679237 
" style="fill:none;stroke:#1f77b4;stroke-linecap:square;stroke-width:1.5;"/>
    </g>
    <g id="line2d_65"/>
    <g id="text_35">
     <!-- t -->
     <g transform="translate(852.390526 68.179237)scale(0.1 -0.1)">
      <use xlink:href="#DejaVuSans-116"/>
     </g>
    </g>
    <g id="line2d_66">
     <path d="M 824.390526 79.357363 
L 844.390526 79.357363 
" style="fill:none;stroke:#ff7f0e;stroke-linecap:square;stroke-width:1.5;"/>
    </g>
    <g id="line2d_67"/>
    <g id="text_36">
     <!-- e -->
     <g transform="translate(852.390526 82.857363)scale(0.1 -0.1)">
      <use xlink:href="#DejaVuSans-101"/>
     </g>
    </g>
    <g id="line2d_68">
     <path d="M 824.390526 94.097987 
L 844.390526 94.097987 
" style="fill:none;stroke:#2ca02c;stroke-dasharray:9.6,2.4,1.5,2.4;stroke-dashoffset:0;stroke-width:1.5;"/>
    </g>
    <g id="line2d_69"/>
    <g id="text_37">
     <!-- β=0.5 -->
     <g transform="translate(852.390526 97.597987)scale(0.1 -0.1)">
      <use xlink:href="#DejaVuSans-946"/>
      <use x="63.818359" xlink:href="#DejaVuSans-61"/>
      <use x="147.607422" xlink:href="#DejaVuSans-48"/>
      <use x="211.230469" xlink:href="#DejaVuSans-46"/>
      <use x="243.017578" xlink:href="#DejaVuSans-53"/>
     </g>
    </g>
   </g>
  </g>
  <g id="axes_3">
   <g id="patch_14">
    <path d="M 966.866824 382.5576 
L 1340.928 382.5576 
L 1340.928 51.5808 
L 966.866824 51.5808 
z
" style="fill:#ffffff;"/>
   </g>
   <g id="matplotlib.axis_5">
    <g id="xtick_13">
     <g id="line2d_70">
      <path clip-path="url(#p0bb67785d6)" d="M 966.866824 382.5576 
L 966.866824 51.5808 
" style="fill:none;stroke:#b0b0b0;stroke-dasharray:2.96,1.28;stroke-dashoffset:0;stroke-width:0.8;"/>
     </g>
     <g id="line2d_71">
      <g>
       <use style="stroke:#000000;stroke-width:0.8;" x="966.866824" xlink:href="#m304a2b1484" y="382.5576"/>
      </g>
     </g>
     <g id="text_38">
      <!-- 0.0 -->
      <g transform="translate(958.915261 397.156037)scale(0.1 -0.1)">
       <use xlink:href="#DejaVuSans-48"/>
       <use x="63.623047" xlink:href="#DejaVuSans-46"/>
       <use x="95.410156" xlink:href="#DejaVuSans-48"/>
      </g>
     </g>
    </g>
    <g id="xtick_14">
     <g id="line2d_72">
      <path clip-path="url(#p0bb67785d6)" d="M 1041.679059 382.5576 
L 1041.679059 51.5808 
" style="fill:none;stroke:#b0b0b0;stroke-dasharray:2.96,1.28;stroke-dashoffset:0;stroke-width:0.8;"/>
     </g>
     <g id="line2d_73">
      <g>
       <use style="stroke:#000000;stroke-width:0.8;" x="1041.679059" xlink:href="#m304a2b1484" y="382.5576"/>
      </g>
     </g>
     <g id="text_39">
      <!-- 0.2 -->
      <g transform="translate(1033.727496 397.156037)scale(0.1 -0.1)">
       <use xlink:href="#DejaVuSans-48"/>
       <use x="63.623047" xlink:href="#DejaVuSans-46"/>
       <use x="95.410156" xlink:href="#DejaVuSans-50"/>
      </g>
     </g>
    </g>
    <g id="xtick_15">
     <g id="line2d_74">
      <path clip-path="url(#p0bb67785d6)" d="M 1116.491294 382.5576 
L 1116.491294 51.5808 
" style="fill:none;stroke:#b0b0b0;stroke-dasharray:2.96,1.28;stroke-dashoffset:0;stroke-width:0.8;"/>
     </g>
     <g id="line2d_75">
      <g>
       <use style="stroke:#000000;stroke-width:0.8;" x="1116.491294" xlink:href="#m304a2b1484" y="382.5576"/>
      </g>
     </g>
     <g id="text_40">
      <!-- 0.4 -->
      <g transform="translate(1108.539732 397.156037)scale(0.1 -0.1)">
       <use xlink:href="#DejaVuSans-48"/>
       <use x="63.623047" xlink:href="#DejaVuSans-46"/>
       <use x="95.410156" xlink:href="#DejaVuSans-52"/>
      </g>
     </g>
    </g>
    <g id="xtick_16">
     <g id="line2d_76">
      <path clip-path="url(#p0bb67785d6)" d="M 1191.303529 382.5576 
L 1191.303529 51.5808 
" style="fill:none;stroke:#b0b0b0;stroke-dasharray:2.96,1.28;stroke-dashoffset:0;stroke-width:0.8;"/>
     </g>
     <g id="line2d_77">
      <g>
       <use style="stroke:#000000;stroke-width:0.8;" x="1191.303529" xlink:href="#m304a2b1484" y="382.5576"/>
      </g>
     </g>
     <g id="text_41">
      <!-- 0.6 -->
      <g transform="translate(1183.351967 397.156037)scale(0.1 -0.1)">
       <use xlink:href="#DejaVuSans-48"/>
       <use x="63.623047" xlink:href="#DejaVuSans-46"/>
       <use x="95.410156" xlink:href="#DejaVuSans-54"/>
      </g>
     </g>
    </g>
    <g id="xtick_17">
     <g id="line2d_78">
      <path clip-path="url(#p0bb67785d6)" d="M 1266.115765 382.5576 
L 1266.115765 51.5808 
" style="fill:none;stroke:#b0b0b0;stroke-dasharray:2.96,1.28;stroke-dashoffset:0;stroke-width:0.8;"/>
     </g>
     <g id="line2d_79">
      <g>
       <use style="stroke:#000000;stroke-width:0.8;" x="1266.115765" xlink:href="#m304a2b1484" y="382.5576"/>
      </g>
     </g>
     <g id="text_42">
      <!-- 0.8 -->
      <g transform="translate(1258.164202 397.156037)scale(0.1 -0.1)">
       <use xlink:href="#DejaVuSans-48"/>
       <use x="63.623047" xlink:href="#DejaVuSans-46"/>
       <use x="95.410156" xlink:href="#DejaVuSans-56"/>
      </g>
     </g>
    </g>
    <g id="xtick_18">
     <g id="line2d_80">
      <path clip-path="url(#p0bb67785d6)" d="M 1340.928 382.5576 
L 1340.928 51.5808 
" style="fill:none;stroke:#b0b0b0;stroke-dasharray:2.96,1.28;stroke-dashoffset:0;stroke-width:0.8;"/>
     </g>
     <g id="line2d_81">
      <g>
       <use style="stroke:#000000;stroke-width:0.8;" x="1340.928" xlink:href="#m304a2b1484" y="382.5576"/>
      </g>
     </g>
     <g id="text_43">
      <!-- 1.0 -->
      <g transform="translate(1332.976437 397.156037)scale(0.1 -0.1)">
       <use xlink:href="#DejaVuSans-49"/>
       <use x="63.623047" xlink:href="#DejaVuSans-46"/>
       <use x="95.410156" xlink:href="#DejaVuSans-48"/>
      </g>
     </g>
    </g>
    <g id="text_44">
     <!-- α -->
     <g transform="translate(1150.601318 410.834162)scale(0.1 -0.1)">
      <use xlink:href="#DejaVuSans-945"/>
     </g>
    </g>
   </g>
   <g id="matplotlib.axis_6">
    <g id="ytick_13">
     <g id="line2d_82">
      <path clip-path="url(#p0bb67785d6)" d="M 966.866824 382.5576 
L 1340.928 382.5576 
" style="fill:none;stroke:#b0b0b0;stroke-dasharray:2.96,1.28;stroke-dashoffset:0;stroke-width:0.8;"/>
     </g>
     <g id="line2d_83">
      <g>
       <use style="stroke:#000000;stroke-width:0.8;" x="966.866824" xlink:href="#mb53ceebef7" y="382.5576"/>
      </g>
     </g>
     <g id="text_45">
      <!-- 0.0 -->
      <g transform="translate(943.963699 386.356819)scale(0.1 -0.1)">
       <use xlink:href="#DejaVuSans-48"/>
       <use x="63.623047" xlink:href="#DejaVuSans-46"/>
       <use x="95.410156" xlink:href="#DejaVuSans-48"/>
      </g>
     </g>
    </g>
    <g id="ytick_14">
     <g id="line2d_84">
      <path clip-path="url(#p0bb67785d6)" d="M 966.866824 316.36224 
L 1340.928 316.36224 
" style="fill:none;stroke:#b0b0b0;stroke-dasharray:2.96,1.28;stroke-dashoffset:0;stroke-width:0.8;"/>
     </g>
     <g id="line2d_85">
      <g>
       <use style="stroke:#000000;stroke-width:0.8;" x="966.866824" xlink:href="#mb53ceebef7" y="316.36224"/>
      </g>
     </g>
     <g id="text_46">
      <!-- 0.2 -->
      <g transform="translate(943.963699 320.161459)scale(0.1 -0.1)">
       <use xlink:href="#DejaVuSans-48"/>
       <use x="63.623047" xlink:href="#DejaVuSans-46"/>
       <use x="95.410156" xlink:href="#DejaVuSans-50"/>
      </g>
     </g>
    </g>
    <g id="ytick_15">
     <g id="line2d_86">
      <path clip-path="url(#p0bb67785d6)" d="M 966.866824 250.16688 
L 1340.928 250.16688 
" style="fill:none;stroke:#b0b0b0;stroke-dasharray:2.96,1.28;stroke-dashoffset:0;stroke-width:0.8;"/>
     </g>
     <g id="line2d_87">
      <g>
       <use style="stroke:#000000;stroke-width:0.8;" x="966.866824" xlink:href="#mb53ceebef7" y="250.16688"/>
      </g>
     </g>
     <g id="text_47">
      <!-- 0.4 -->
      <g transform="translate(943.963699 253.966099)scale(0.1 -0.1)">
       <use xlink:href="#DejaVuSans-48"/>
       <use x="63.623047" xlink:href="#DejaVuSans-46"/>
       <use x="95.410156" xlink:href="#DejaVuSans-52"/>
      </g>
     </g>
    </g>
    <g id="ytick_16">
     <g id="line2d_88">
      <path clip-path="url(#p0bb67785d6)" d="M 966.866824 183.97152 
L 1340.928 183.97152 
" style="fill:none;stroke:#b0b0b0;stroke-dasharray:2.96,1.28;stroke-dashoffset:0;stroke-width:0.8;"/>
     </g>
     <g id="line2d_89">
      <g>
       <use style="stroke:#000000;stroke-width:0.8;" x="966.866824" xlink:href="#mb53ceebef7" y="183.97152"/>
      </g>
     </g>
     <g id="text_48">
      <!-- 0.6 -->
      <g transform="translate(943.963699 187.770739)scale(0.1 -0.1)">
       <use xlink:href="#DejaVuSans-48"/>
       <use x="63.623047" xlink:href="#DejaVuSans-46"/>
       <use x="95.410156" xlink:href="#DejaVuSans-54"/>
      </g>
     </g>
    </g>
    <g id="ytick_17">
     <g id="line2d_90">
      <path clip-path="url(#p0bb67785d6)" d="M 966.866824 117.77616 
L 1340.928 117.77616 
" style="fill:none;stroke:#b0b0b0;stroke-dasharray:2.96,1.28;stroke-dashoffset:0;stroke-width:0.8;"/>
     </g>
     <g id="line2d_91">
      <g>
       <use style="stroke:#000000;stroke-width:0.8;" x="966.866824" xlink:href="#mb53ceebef7" y="117.77616"/>
      </g>
     </g>
     <g id="text_49">
      <!-- 0.8 -->
      <g transform="translate(943.963699 121.575379)scale(0.1 -0.1)">
       <use xlink:href="#DejaVuSans-48"/>
       <use x="63.623047" xlink:href="#DejaVuSans-46"/>
       <use x="95.410156" xlink:href="#DejaVuSans-56"/>
      </g>
     </g>
    </g>
    <g id="ytick_18">
     <g id="line2d_92">
      <path clip-path="url(#p0bb67785d6)" d="M 966.866824 51.5808 
L 1340.928 51.5808 
" style="fill:none;stroke:#b0b0b0;stroke-dasharray:2.96,1.28;stroke-dashoffset:0;stroke-width:0.8;"/>
     </g>
     <g id="line2d_93">
      <g>
       <use style="stroke:#000000;stroke-width:0.8;" x="966.866824" xlink:href="#mb53ceebef7" y="51.5808"/>
      </g>
     </g>
     <g id="text_50">
      <!-- 1.0 -->
      <g transform="translate(943.963699 55.380019)scale(0.1 -0.1)">
       <use xlink:href="#DejaVuSans-49"/>
       <use x="63.623047" xlink:href="#DejaVuSans-46"/>
       <use x="95.410156" xlink:href="#DejaVuSans-48"/>
      </g>
     </g>
    </g>
    <g id="text_51">
     <!-- y -->
     <g transform="translate(937.884011 220.028575)rotate(-90)scale(0.1 -0.1)">
      <use xlink:href="#DejaVuSans-121"/>
     </g>
    </g>
   </g>
   <g id="line2d_94">
    <path clip-path="url(#p0bb67785d6)" d="M 966.866824 51.5808 
L 970.607435 54.063126 
L 974.348047 56.545452 
L 978.088659 59.027778 
L 981.829271 61.510104 
L 985.569882 63.99243 
L 989.310494 66.474756 
L 993.051106 68.957082 
L 996.791718 71.439408 
L 1000.532329 73.921734 
L 1004.272941 76.40406 
L 1008.013553 78.886386 
L 1011.754165 81.368712 
L 1015.494776 83.851038 
L 1019.235388 86.333364 
L 1022.976 88.81569 
L 1026.716612 91.298016 
L 1030.457224 93.780342 
L 1034.197835 96.262668 
L 1037.938447 98.744994 
L 1041.679059 101.22732 
L 1045.419671 103.709646 
L 1049.160282 106.191972 
L 1052.900894 108.674298 
L 1056.641506 111.156624 
L 1060.382118 113.63895 
L 1064.122729 116.121276 
L 1067.863341 118.603602 
L 1071.603953 121.085928 
L 1075.344565 123.568254 
L 1079.085176 126.05058 
L 1082.825788 128.532906 
L 1086.5664 131.015232 
L 1090.307012 133.497558 
L 1094.047624 135.979884 
L 1097.788235 138.46221 
L 1101.528847 140.944536 
L 1105.269459 143.426862 
L 1109.010071 145.909188 
L 1112.750682 148.391514 
L 1116.491294 150.87384 
L 1120.231906 153.356166 
L 1123.972518 155.838492 
L 1127.713129 158.320818 
L 1131.453741 160.803144 
L 1135.194353 163.28547 
L 1138.934965 165.767796 
L 1142.675576 168.250122 
L 1146.416188 170.732448 
L 1150.1568 173.214774 
L 1153.897412 175.6971 
L 1157.638024 178.179426 
L 1161.378635 180.661752 
L 1165.119247 183.144078 
L 1168.859859 185.626404 
L 1172.600471 188.10873 
L 1176.341082 190.591056 
L 1180.081694 193.073382 
L 1183.822306 195.555708 
L 1187.562918 198.038034 
L 1191.303529 200.52036 
L 1195.044141 203.002686 
L 1198.784753 205.485012 
L 1202.525365 207.967338 
L 1206.265976 210.449664 
L 1210.006588 212.93199 
L 1213.7472 215.414316 
L 1217.487812 217.896642 
L 1221.228424 220.378968 
L 1224.969035 222.861294 
L 1228.709647 225.34362 
L 1232.450259 227.825946 
L 1236.190871 230.308272 
L 1239.931482 232.790598 
L 1243.672094 235.272924 
L 1247.412706 237.75525 
L 1251.153318 240.237576 
L 1254.893929 242.719902 
L 1258.634541 245.202228 
L 1262.375153 247.684554 
L 1266.115765 250.16688 
L 1269.856376 252.649206 
L 1273.596988 255.131532 
L 1277.3376 257.613858 
L 1281.078212 260.096184 
L 1284.818824 262.57851 
L 1288.559435 265.060836 
L 1292.300047 267.543162 
L 1296.040659 270.025488 
L 1299.781271 272.507814 
L 1303.521882 274.99014 
L 1307.262494 277.472466 
L 1311.003106 279.954792 
L 1314.743718 282.437118 
L 1318.484329 284.919444 
L 1322.224941 287.40177 
L 1325.965553 289.884096 
L 1329.706165 292.366422 
L 1333.446776 294.848748 
L 1337.187388 297.331074 
L 1340.928 299.8134 
" style="fill:none;stroke:#1f77b4;stroke-linecap:square;stroke-width:1.5;"/>
   </g>
   <g id="line2d_95">
    <path clip-path="url(#p0bb67785d6)" d="M 966.866824 382.5576 
L 970.607435 380.075274 
L 974.348047 377.592948 
L 978.088659 375.110622 
L 981.829271 372.628296 
L 985.569882 370.14597 
L 989.310494 367.663644 
L 993.051106 365.181318 
L 996.791718 362.698992 
L 1000.532329 360.216666 
L 1004.272941 357.73434 
L 1008.013553 355.252014 
L 1011.754165 352.769688 
L 1015.494776 350.287362 
L 1019.235388 347.805036 
L 1022.976 345.32271 
L 1026.716612 342.840384 
L 1030.457224 340.358058 
L 1034.197835 337.875732 
L 1037.938447 335.393406 
L 1041.679059 332.91108 
L 1045.419671 330.428754 
L 1049.160282 327.946428 
L 1052.900894 325.464102 
L 1056.641506 322.981776 
L 1060.382118 320.49945 
L 1064.122729 318.017124 
L 1067.863341 315.534798 
L 1071.603953 313.052472 
L 1075.344565 310.570146 
L 1079.085176 308.08782 
L 1082.825788 305.605494 
L 1086.5664 303.123168 
L 1090.307012 300.640842 
L 1094.047624 298.158516 
L 1097.788235 295.67619 
L 1101.528847 293.193864 
L 1105.269459 290.711538 
L 1109.010071 288.229212 
L 1112.750682 285.746886 
L 1116.491294 283.26456 
L 1120.231906 280.782234 
L 1123.972518 278.299908 
L 1127.713129 275.817582 
L 1131.453741 273.335256 
L 1135.194353 270.85293 
L 1138.934965 268.370604 
L 1142.675576 265.888278 
L 1146.416188 263.405952 
L 1150.1568 260.923626 
L 1153.897412 258.4413 
L 1157.638024 255.958974 
L 1161.378635 253.476648 
L 1165.119247 250.994322 
L 1168.859859 248.511996 
L 1172.600471 246.02967 
L 1176.341082 243.547344 
L 1180.081694 241.065018 
L 1183.822306 238.582692 
L 1187.562918 236.100366 
L 1191.303529 233.61804 
L 1195.044141 231.135714 
L 1198.784753 228.653388 
L 1202.525365 226.171062 
L 1206.265976 223.688736 
L 1210.006588 221.20641 
L 1213.7472 218.724084 
L 1217.487812 216.241758 
L 1221.228424 213.759432 
L 1224.969035 211.277106 
L 1228.709647 208.79478 
L 1232.450259 206.312454 
L 1236.190871 203.830128 
L 1239.931482 201.347802 
L 1243.672094 198.865476 
L 1247.412706 196.38315 
L 1251.153318 193.900824 
L 1254.893929 191.418498 
L 1258.634541 188.936172 
L 1262.375153 186.453846 
L 1266.115765 183.97152 
L 1269.856376 181.489194 
L 1273.596988 179.006868 
L 1277.3376 176.524542 
L 1281.078212 174.042216 
L 1284.818824 171.55989 
L 1288.559435 169.077564 
L 1292.300047 166.595238 
L 1296.040659 164.112912 
L 1299.781271 161.630586 
L 1303.521882 159.14826 
L 1307.262494 156.665934 
L 1311.003106 154.183608 
L 1314.743718 151.701282 
L 1318.484329 149.218956 
L 1322.224941 146.73663 
L 1325.965553 144.254304 
L 1329.706165 141.771978 
L 1333.446776 139.289652 
L 1337.187388 136.807326 
L 1340.928 134.325 
" style="fill:none;stroke:#ff7f0e;stroke-linecap:square;stroke-width:1.5;"/>
   </g>
   <g id="line2d_96">
    <path clip-path="url(#p0bb67785d6)" d="M 966.866824 299.8134 
L 970.607435 299.8134 
L 974.348047 299.8134 
L 978.088659 299.8134 
L 981.829271 299.8134 
L 985.569882 299.8134 
L 989.310494 299.8134 
L 993.051106 299.8134 
L 996.791718 299.8134 
L 1000.532329 299.8134 
L 1004.272941 299.8134 
L 1008.013553 299.8134 
L 1011.754165 299.8134 
L 1015.494776 299.8134 
L 1019.235388 299.8134 
L 1022.976 299.8134 
L 1026.716612 299.8134 
L 1030.457224 299.8134 
L 1034.197835 299.8134 
L 1037.938447 299.8134 
L 1041.679059 299.8134 
L 1045.419671 299.8134 
L 1049.160282 299.8134 
L 1052.900894 299.8134 
L 1056.641506 299.8134 
L 1060.382118 299.8134 
L 1064.122729 299.8134 
L 1067.863341 299.8134 
L 1071.603953 299.8134 
L 1075.344565 299.8134 
L 1079.085176 299.8134 
L 1082.825788 299.8134 
L 1086.5664 299.8134 
L 1090.307012 299.8134 
L 1094.047624 299.8134 
L 1097.788235 299.8134 
L 1101.528847 299.8134 
L 1105.269459 299.8134 
L 1109.010071 299.8134 
L 1112.750682 299.8134 
L 1116.491294 299.8134 
L 1120.231906 299.8134 
L 1123.972518 299.8134 
L 1127.713129 299.8134 
L 1131.453741 299.8134 
L 1135.194353 299.8134 
L 1138.934965 299.8134 
L 1142.675576 299.8134 
L 1146.416188 299.8134 
L 1150.1568 299.8134 
L 1153.897412 299.8134 
L 1157.638024 299.8134 
L 1161.378635 299.8134 
L 1165.119247 299.8134 
L 1168.859859 299.8134 
L 1172.600471 299.8134 
L 1176.341082 299.8134 
L 1180.081694 299.8134 
L 1183.822306 299.8134 
L 1187.562918 299.8134 
L 1191.303529 299.8134 
L 1195.044141 299.8134 
L 1198.784753 299.8134 
L 1202.525365 299.8134 
L 1206.265976 299.8134 
L 1210.006588 299.8134 
L 1213.7472 299.8134 
L 1217.487812 299.8134 
L 1221.228424 299.8134 
L 1224.969035 299.8134 
L 1228.709647 299.8134 
L 1232.450259 299.8134 
L 1236.190871 299.8134 
L 1239.931482 299.8134 
L 1243.672094 299.8134 
L 1247.412706 299.8134 
L 1251.153318 299.8134 
L 1254.893929 299.8134 
L 1258.634541 299.8134 
L 1262.375153 299.8134 
L 1266.115765 299.8134 
L 1269.856376 299.8134 
L 1273.596988 299.8134 
L 1277.3376 299.8134 
L 1281.078212 299.8134 
L 1284.818824 299.8134 
L 1288.559435 299.8134 
L 1292.300047 299.8134 
L 1296.040659 299.8134 
L 1299.781271 299.8134 
L 1303.521882 299.8134 
L 1307.262494 299.8134 
L 1311.003106 299.8134 
L 1314.743718 299.8134 
L 1318.484329 299.8134 
L 1322.224941 299.8134 
L 1325.965553 299.8134 
L 1329.706165 299.8134 
L 1333.446776 299.8134 
L 1337.187388 299.8134 
L 1340.928 299.8134 
" style="fill:none;stroke:#2ca02c;stroke-dasharray:9.6,2.4,1.5,2.4;stroke-dashoffset:0;stroke-width:1.5;"/>
   </g>
   <g id="line2d_97">
    <path clip-path="url(#p0bb67785d6)" d="M 966.866824 134.325 
L 970.607435 134.325 
L 974.348047 134.325 
L 978.088659 134.325 
L 981.829271 134.325 
L 985.569882 134.325 
L 989.310494 134.325 
L 993.051106 134.325 
L 996.791718 134.325 
L 1000.532329 134.325 
L 1004.272941 134.325 
L 1008.013553 134.325 
L 1011.754165 134.325 
L 1015.494776 134.325 
L 1019.235388 134.325 
L 1022.976 134.325 
L 1026.716612 134.325 
L 1030.457224 134.325 
L 1034.197835 134.325 
L 1037.938447 134.325 
L 1041.679059 134.325 
L 1045.419671 134.325 
L 1049.160282 134.325 
L 1052.900894 134.325 
L 1056.641506 134.325 
L 1060.382118 134.325 
L 1064.122729 134.325 
L 1067.863341 134.325 
L 1071.603953 134.325 
L 1075.344565 134.325 
L 1079.085176 134.325 
L 1082.825788 134.325 
L 1086.5664 134.325 
L 1090.307012 134.325 
L 1094.047624 134.325 
L 1097.788235 134.325 
L 1101.528847 134.325 
L 1105.269459 134.325 
L 1109.010071 134.325 
L 1112.750682 134.325 
L 1116.491294 134.325 
L 1120.231906 134.325 
L 1123.972518 134.325 
L 1127.713129 134.325 
L 1131.453741 134.325 
L 1135.194353 134.325 
L 1138.934965 134.325 
L 1142.675576 134.325 
L 1146.416188 134.325 
L 1150.1568 134.325 
L 1153.897412 134.325 
L 1157.638024 134.325 
L 1161.378635 134.325 
L 1165.119247 134.325 
L 1168.859859 134.325 
L 1172.600471 134.325 
L 1176.341082 134.325 
L 1180.081694 134.325 
L 1183.822306 134.325 
L 1187.562918 134.325 
L 1191.303529 134.325 
L 1195.044141 134.325 
L 1198.784753 134.325 
L 1202.525365 134.325 
L 1206.265976 134.325 
L 1210.006588 134.325 
L 1213.7472 134.325 
L 1217.487812 134.325 
L 1221.228424 134.325 
L 1224.969035 134.325 
L 1228.709647 134.325 
L 1232.450259 134.325 
L 1236.190871 134.325 
L 1239.931482 134.325 
L 1243.672094 134.325 
L 1247.412706 134.325 
L 1251.153318 134.325 
L 1254.893929 134.325 
L 1258.634541 134.325 
L 1262.375153 134.325 
L 1266.115765 134.325 
L 1269.856376 134.325 
L 1273.596988 134.325 
L 1277.3376 134.325 
L 1281.078212 134.325 
L 1284.818824 134.325 
L 1288.559435 134.325 
L 1292.300047 134.325 
L 1296.040659 134.325 
L 1299.781271 134.325 
L 1303.521882 134.325 
L 1307.262494 134.325 
L 1311.003106 134.325 
L 1314.743718 134.325 
L 1318.484329 134.325 
L 1322.224941 134.325 
L 1325.965553 134.325 
L 1329.706165 134.325 
L 1333.446776 134.325 
L 1337.187388 134.325 
L 1340.928 134.325 
" style="fill:none;stroke:#d62728;stroke-dasharray:9.6,2.4,1.5,2.4;stroke-dashoffset:0;stroke-width:1.5;"/>
   </g>
   <g id="patch_15">
    <path d="M 966.866824 382.5576 
L 966.866824 51.5808 
" style="fill:none;stroke:#000000;stroke-linecap:square;stroke-linejoin:miter;stroke-width:0.8;"/>
   </g>
   <g id="patch_16">
    <path d="M 1340.928 382.5576 
L 1340.928 51.5808 
" style="fill:none;stroke:#000000;stroke-linecap:square;stroke-linejoin:miter;stroke-width:0.8;"/>
   </g>
   <g id="patch_17">
    <path d="M 966.866824 382.5576 
L 1340.928 382.5576 
" style="fill:none;stroke:#000000;stroke-linecap:square;stroke-linejoin:miter;stroke-width:0.8;"/>
   </g>
   <g id="patch_18">
    <path d="M 966.866824 51.5808 
L 1340.928 51.5808 
" style="fill:none;stroke:#000000;stroke-linecap:square;stroke-linejoin:miter;stroke-width:0.8;"/>
   </g>
   <g id="text_52">
    <!-- 0&lt;=β&lt;0.5 -->
    <g transform="translate(1121.625849 45.5808)scale(0.12 -0.12)">
     <use xlink:href="#DejaVuSans-48"/>
     <use x="63.623047" xlink:href="#DejaVuSans-60"/>
     <use x="147.412109" xlink:href="#DejaVuSans-61"/>
     <use x="231.201172" xlink:href="#DejaVuSans-946"/>
     <use x="295.019531" xlink:href="#DejaVuSans-60"/>
     <use x="378.808594" xlink:href="#DejaVuSans-48"/>
     <use x="442.431641" xlink:href="#DejaVuSans-46"/>
     <use x="474.21875" xlink:href="#DejaVuSans-53"/>
    </g>
   </g>
   <g id="legend_3">
    <g id="patch_19">
     <path d="M 1271.278 118.4183 
L 1333.928 118.4183 
Q 1335.928 118.4183 1335.928 116.4183 
L 1335.928 58.5808 
Q 1335.928 56.5808 1333.928 56.5808 
L 1271.278 56.5808 
Q 1269.278 56.5808 1269.278 58.5808 
L 1269.278 116.4183 
Q 1269.278 118.4183 1271.278 118.4183 
z
" style="fill:#ffffff;opacity:0.8;stroke:#cccccc;stroke-linejoin:miter;"/>
    </g>
    <g id="line2d_98">
     <path d="M 1273.278 64.679238 
L 1293.278 64.679238 
" style="fill:none;stroke:#1f77b4;stroke-linecap:square;stroke-width:1.5;"/>
    </g>
    <g id="line2d_99"/>
    <g id="text_53">
     <!-- t -->
     <g transform="translate(1301.278 68.179238)scale(0.1 -0.1)">
      <use xlink:href="#DejaVuSans-116"/>
     </g>
    </g>
    <g id="line2d_100">
     <path d="M 1273.278 79.357363 
L 1293.278 79.357363 
" style="fill:none;stroke:#ff7f0e;stroke-linecap:square;stroke-width:1.5;"/>
    </g>
    <g id="line2d_101"/>
    <g id="text_54">
     <!-- e -->
     <g transform="translate(1301.278 82.857363)scale(0.1 -0.1)">
      <use xlink:href="#DejaVuSans-101"/>
     </g>
    </g>
    <g id="line2d_102">
     <path d="M 1273.278 94.097988 
L 1293.278 94.097988 
" style="fill:none;stroke:#2ca02c;stroke-dasharray:9.6,2.4,1.5,2.4;stroke-dashoffset:0;stroke-width:1.5;"/>
    </g>
    <g id="line2d_103"/>
    <g id="text_55">
     <!-- y=β -->
     <g transform="translate(1301.278 97.597988)scale(0.1 -0.1)">
      <use xlink:href="#DejaVuSans-121"/>
      <use x="59.179688" xlink:href="#DejaVuSans-61"/>
      <use x="142.96875" xlink:href="#DejaVuSans-946"/>
     </g>
    </g>
    <g id="line2d_104">
     <path d="M 1273.278 108.838613 
L 1293.278 108.838613 
" style="fill:none;stroke:#d62728;stroke-dasharray:9.6,2.4,1.5,2.4;stroke-dashoffset:0;stroke-width:1.5;"/>
    </g>
    <g id="line2d_105"/>
    <g id="text_56">
     <!-- y=1-β -->
     <g transform="translate(1301.278 112.338613)scale(0.1 -0.1)">
      <use xlink:href="#DejaVuSans-121"/>
      <use x="59.179688" xlink:href="#DejaVuSans-61"/>
      <use x="142.96875" xlink:href="#DejaVuSans-49"/>
      <use x="206.591797" xlink:href="#DejaVuSans-45"/>
      <use x="242.675781" xlink:href="#DejaVuSans-946"/>
     </g>
    </g>
   </g>
  </g>
 </g>
 <defs>
  <clipPath id="p59c5c8c4ff">
   <rect height="330.9768" width="374.061176" x="69.12" y="51.5808"/>
  </clipPath>
  <clipPath id="p9bd9e34ae5">
   <rect height="330.9768" width="374.061176" x="517.993412" y="51.5808"/>
  </clipPath>
  <clipPath id="p0bb67785d6">
   <rect height="330.9768" width="374.061176" x="966.866824" y="51.5808"/>
  </clipPath>
 </defs>
</svg>
