<?xml version="1.0" encoding="utf-8" standalone="no"?>
<!DOCTYPE svg PUBLIC "-//W3C//DTD SVG 1.1//EN"
  "http://www.w3.org/Graphics/SVG/1.1/DTD/svg11.dtd">
<!-- Created with matplotlib (https://matplotlib.org/) -->
<svg height="345.6pt" version="1.1" viewBox="0 0 1382.4 345.6" width="1382.4pt" xmlns="http://www.w3.org/2000/svg" xmlns:xlink="http://www.w3.org/1999/xlink">
 <defs>
  <style type="text/css">
*{stroke-linecap:butt;stroke-linejoin:round;}
  </style>
 </defs>
 <g id="figure_1">
  <g id="patch_1">
   <path d="M 0 345.6 
L 1382.4 345.6 
L 1382.4 0 
L 0 0 
z
" style="fill:#ffffff;"/>
  </g>
  <g id="axes_1">
   <g id="patch_2">
    <path d="M 172.8 307.584 
L 487.905882 307.584 
L 487.905882 41.472 
L 172.8 41.472 
z
" style="fill:#ffffff;"/>
   </g>
   <g id="matplotlib.axis_1">
    <g id="xtick_1">
     <g id="line2d_1">
      <path clip-path="url(#p5b7c54bcf3)" d="M 172.8 307.584 
L 172.8 41.472 
" style="fill:none;stroke:#b0b0b0;stroke-dasharray:2.96,1.28;stroke-dashoffset:0;stroke-width:0.8;"/>
     </g>
     <g id="line2d_2">
      <defs>
       <path d="M 0 0 
L 0 3.5 
" id="m030a6c556e" style="stroke:#000000;stroke-width:0.8;"/>
      </defs>
      <g>
       <use style="stroke:#000000;stroke-width:0.8;" x="172.8" xlink:href="#m030a6c556e" y="307.584"/>
      </g>
     </g>
     <g id="text_1">
      <!-- 0.0 -->
      <defs>
       <path d="M 31.78125 66.40625 
Q 24.171875 66.40625 20.328125 58.90625 
Q 16.5 51.421875 16.5 36.375 
Q 16.5 21.390625 20.328125 13.890625 
Q 24.171875 6.390625 31.78125 6.390625 
Q 39.453125 6.390625 43.28125 13.890625 
Q 47.125 21.390625 47.125 36.375 
Q 47.125 51.421875 43.28125 58.90625 
Q 39.453125 66.40625 31.78125 66.40625 
z
M 31.78125 74.21875 
Q 44.046875 74.21875 50.515625 64.515625 
Q 56.984375 54.828125 56.984375 36.375 
Q 56.984375 17.96875 50.515625 8.265625 
Q 44.046875 -1.421875 31.78125 -1.421875 
Q 19.53125 -1.421875 13.0625 8.265625 
Q 6.59375 17.96875 6.59375 36.375 
Q 6.59375 54.828125 13.0625 64.515625 
Q 19.53125 74.21875 31.78125 74.21875 
z
" id="DejaVuSans-48"/>
       <path d="M 10.6875 12.40625 
L 21 12.40625 
L 21 0 
L 10.6875 0 
z
" id="DejaVuSans-46"/>
      </defs>
      <g transform="translate(164.848438 322.182437)scale(0.1 -0.1)">
       <use xlink:href="#DejaVuSans-48"/>
       <use x="63.623047" xlink:href="#DejaVuSans-46"/>
       <use x="95.410156" xlink:href="#DejaVuSans-48"/>
      </g>
     </g>
    </g>
    <g id="xtick_2">
     <g id="line2d_3">
      <path clip-path="url(#p5b7c54bcf3)" d="M 235.821176 307.584 
L 235.821176 41.472 
" style="fill:none;stroke:#b0b0b0;stroke-dasharray:2.96,1.28;stroke-dashoffset:0;stroke-width:0.8;"/>
     </g>
     <g id="line2d_4">
      <g>
       <use style="stroke:#000000;stroke-width:0.8;" x="235.821176" xlink:href="#m030a6c556e" y="307.584"/>
      </g>
     </g>
     <g id="text_2">
      <!-- 0.2 -->
      <defs>
       <path d="M 19.1875 8.296875 
L 53.609375 8.296875 
L 53.609375 0 
L 7.328125 0 
L 7.328125 8.296875 
Q 12.9375 14.109375 22.625 23.890625 
Q 32.328125 33.6875 34.8125 36.53125 
Q 39.546875 41.84375 41.421875 45.53125 
Q 43.3125 49.21875 43.3125 52.78125 
Q 43.3125 58.59375 39.234375 62.25 
Q 35.15625 65.921875 28.609375 65.921875 
Q 23.96875 65.921875 18.8125 64.3125 
Q 13.671875 62.703125 7.8125 59.421875 
L 7.8125 69.390625 
Q 13.765625 71.78125 18.9375 73 
Q 24.125 74.21875 28.421875 74.21875 
Q 39.75 74.21875 46.484375 68.546875 
Q 53.21875 62.890625 53.21875 53.421875 
Q 53.21875 48.921875 51.53125 44.890625 
Q 49.859375 40.875 45.40625 35.40625 
Q 44.1875 33.984375 37.640625 27.21875 
Q 31.109375 20.453125 19.1875 8.296875 
z
" id="DejaVuSans-50"/>
      </defs>
      <g transform="translate(227.869614 322.182437)scale(0.1 -0.1)">
       <use xlink:href="#DejaVuSans-48"/>
       <use x="63.623047" xlink:href="#DejaVuSans-46"/>
       <use x="95.410156" xlink:href="#DejaVuSans-50"/>
      </g>
     </g>
    </g>
    <g id="xtick_3">
     <g id="line2d_5">
      <path clip-path="url(#p5b7c54bcf3)" d="M 298.842353 307.584 
L 298.842353 41.472 
" style="fill:none;stroke:#b0b0b0;stroke-dasharray:2.96,1.28;stroke-dashoffset:0;stroke-width:0.8;"/>
     </g>
     <g id="line2d_6">
      <g>
       <use style="stroke:#000000;stroke-width:0.8;" x="298.842353" xlink:href="#m030a6c556e" y="307.584"/>
      </g>
     </g>
     <g id="text_3">
      <!-- 0.4 -->
      <defs>
       <path d="M 37.796875 64.3125 
L 12.890625 25.390625 
L 37.796875 25.390625 
z
M 35.203125 72.90625 
L 47.609375 72.90625 
L 47.609375 25.390625 
L 58.015625 25.390625 
L 58.015625 17.1875 
L 47.609375 17.1875 
L 47.609375 0 
L 37.796875 0 
L 37.796875 17.1875 
L 4.890625 17.1875 
L 4.890625 26.703125 
z
" id="DejaVuSans-52"/>
      </defs>
      <g transform="translate(290.89079 322.182437)scale(0.1 -0.1)">
       <use xlink:href="#DejaVuSans-48"/>
       <use x="63.623047" xlink:href="#DejaVuSans-46"/>
       <use x="95.410156" xlink:href="#DejaVuSans-52"/>
      </g>
     </g>
    </g>
    <g id="xtick_4">
     <g id="line2d_7">
      <path clip-path="url(#p5b7c54bcf3)" d="M 361.863529 307.584 
L 361.863529 41.472 
" style="fill:none;stroke:#b0b0b0;stroke-dasharray:2.96,1.28;stroke-dashoffset:0;stroke-width:0.8;"/>
     </g>
     <g id="line2d_8">
      <g>
       <use style="stroke:#000000;stroke-width:0.8;" x="361.863529" xlink:href="#m030a6c556e" y="307.584"/>
      </g>
     </g>
     <g id="text_4">
      <!-- 0.6 -->
      <defs>
       <path d="M 33.015625 40.375 
Q 26.375 40.375 22.484375 35.828125 
Q 18.609375 31.296875 18.609375 23.390625 
Q 18.609375 15.53125 22.484375 10.953125 
Q 26.375 6.390625 33.015625 6.390625 
Q 39.65625 6.390625 43.53125 10.953125 
Q 47.40625 15.53125 47.40625 23.390625 
Q 47.40625 31.296875 43.53125 35.828125 
Q 39.65625 40.375 33.015625 40.375 
z
M 52.59375 71.296875 
L 52.59375 62.3125 
Q 48.875 64.0625 45.09375 64.984375 
Q 41.3125 65.921875 37.59375 65.921875 
Q 27.828125 65.921875 22.671875 59.328125 
Q 17.53125 52.734375 16.796875 39.40625 
Q 19.671875 43.65625 24.015625 45.921875 
Q 28.375 48.1875 33.59375 48.1875 
Q 44.578125 48.1875 50.953125 41.515625 
Q 57.328125 34.859375 57.328125 23.390625 
Q 57.328125 12.15625 50.6875 5.359375 
Q 44.046875 -1.421875 33.015625 -1.421875 
Q 20.359375 -1.421875 13.671875 8.265625 
Q 6.984375 17.96875 6.984375 36.375 
Q 6.984375 53.65625 15.1875 63.9375 
Q 23.390625 74.21875 37.203125 74.21875 
Q 40.921875 74.21875 44.703125 73.484375 
Q 48.484375 72.75 52.59375 71.296875 
z
" id="DejaVuSans-54"/>
      </defs>
      <g transform="translate(353.911967 322.182437)scale(0.1 -0.1)">
       <use xlink:href="#DejaVuSans-48"/>
       <use x="63.623047" xlink:href="#DejaVuSans-46"/>
       <use x="95.410156" xlink:href="#DejaVuSans-54"/>
      </g>
     </g>
    </g>
    <g id="xtick_5">
     <g id="line2d_9">
      <path clip-path="url(#p5b7c54bcf3)" d="M 424.884706 307.584 
L 424.884706 41.472 
" style="fill:none;stroke:#b0b0b0;stroke-dasharray:2.96,1.28;stroke-dashoffset:0;stroke-width:0.8;"/>
     </g>
     <g id="line2d_10">
      <g>
       <use style="stroke:#000000;stroke-width:0.8;" x="424.884706" xlink:href="#m030a6c556e" y="307.584"/>
      </g>
     </g>
     <g id="text_5">
      <!-- 0.8 -->
      <defs>
       <path d="M 31.78125 34.625 
Q 24.75 34.625 20.71875 30.859375 
Q 16.703125 27.09375 16.703125 20.515625 
Q 16.703125 13.921875 20.71875 10.15625 
Q 24.75 6.390625 31.78125 6.390625 
Q 38.8125 6.390625 42.859375 10.171875 
Q 46.921875 13.96875 46.921875 20.515625 
Q 46.921875 27.09375 42.890625 30.859375 
Q 38.875 34.625 31.78125 34.625 
z
M 21.921875 38.8125 
Q 15.578125 40.375 12.03125 44.71875 
Q 8.5 49.078125 8.5 55.328125 
Q 8.5 64.0625 14.71875 69.140625 
Q 20.953125 74.21875 31.78125 74.21875 
Q 42.671875 74.21875 48.875 69.140625 
Q 55.078125 64.0625 55.078125 55.328125 
Q 55.078125 49.078125 51.53125 44.71875 
Q 48 40.375 41.703125 38.8125 
Q 48.828125 37.15625 52.796875 32.3125 
Q 56.78125 27.484375 56.78125 20.515625 
Q 56.78125 9.90625 50.3125 4.234375 
Q 43.84375 -1.421875 31.78125 -1.421875 
Q 19.734375 -1.421875 13.25 4.234375 
Q 6.78125 9.90625 6.78125 20.515625 
Q 6.78125 27.484375 10.78125 32.3125 
Q 14.796875 37.15625 21.921875 38.8125 
z
M 18.3125 54.390625 
Q 18.3125 48.734375 21.84375 45.5625 
Q 25.390625 42.390625 31.78125 42.390625 
Q 38.140625 42.390625 41.71875 45.5625 
Q 45.3125 48.734375 45.3125 54.390625 
Q 45.3125 60.0625 41.71875 63.234375 
Q 38.140625 66.40625 31.78125 66.40625 
Q 25.390625 66.40625 21.84375 63.234375 
Q 18.3125 60.0625 18.3125 54.390625 
z
" id="DejaVuSans-56"/>
      </defs>
      <g transform="translate(416.933143 322.182437)scale(0.1 -0.1)">
       <use xlink:href="#DejaVuSans-48"/>
       <use x="63.623047" xlink:href="#DejaVuSans-46"/>
       <use x="95.410156" xlink:href="#DejaVuSans-56"/>
      </g>
     </g>
    </g>
    <g id="xtick_6">
     <g id="line2d_11">
      <path clip-path="url(#p5b7c54bcf3)" d="M 487.905882 307.584 
L 487.905882 41.472 
" style="fill:none;stroke:#b0b0b0;stroke-dasharray:2.96,1.28;stroke-dashoffset:0;stroke-width:0.8;"/>
     </g>
     <g id="line2d_12">
      <g>
       <use style="stroke:#000000;stroke-width:0.8;" x="487.905882" xlink:href="#m030a6c556e" y="307.584"/>
      </g>
     </g>
     <g id="text_6">
      <!-- 1.0 -->
      <defs>
       <path d="M 12.40625 8.296875 
L 28.515625 8.296875 
L 28.515625 63.921875 
L 10.984375 60.40625 
L 10.984375 69.390625 
L 28.421875 72.90625 
L 38.28125 72.90625 
L 38.28125 8.296875 
L 54.390625 8.296875 
L 54.390625 0 
L 12.40625 0 
z
" id="DejaVuSans-49"/>
      </defs>
      <g transform="translate(479.95432 322.182437)scale(0.1 -0.1)">
       <use xlink:href="#DejaVuSans-49"/>
       <use x="63.623047" xlink:href="#DejaVuSans-46"/>
       <use x="95.410156" xlink:href="#DejaVuSans-48"/>
      </g>
     </g>
    </g>
    <g id="text_7">
     <!-- a -->
     <defs>
      <path d="M 34.28125 27.484375 
Q 23.390625 27.484375 19.1875 25 
Q 14.984375 22.515625 14.984375 16.5 
Q 14.984375 11.71875 18.140625 8.90625 
Q 21.296875 6.109375 26.703125 6.109375 
Q 34.1875 6.109375 38.703125 11.40625 
Q 43.21875 16.703125 43.21875 25.484375 
L 43.21875 27.484375 
z
M 52.203125 31.203125 
L 52.203125 0 
L 43.21875 0 
L 43.21875 8.296875 
Q 40.140625 3.328125 35.546875 0.953125 
Q 30.953125 -1.421875 24.3125 -1.421875 
Q 15.921875 -1.421875 10.953125 3.296875 
Q 6 8.015625 6 15.921875 
Q 6 25.140625 12.171875 29.828125 
Q 18.359375 34.515625 30.609375 34.515625 
L 43.21875 34.515625 
L 43.21875 35.40625 
Q 43.21875 41.609375 39.140625 45 
Q 35.0625 48.390625 27.6875 48.390625 
Q 23 48.390625 18.546875 47.265625 
Q 14.109375 46.140625 10.015625 43.890625 
L 10.015625 52.203125 
Q 14.9375 54.109375 19.578125 55.046875 
Q 24.21875 56 28.609375 56 
Q 40.484375 56 46.34375 49.84375 
Q 52.203125 43.703125 52.203125 31.203125 
z
" id="DejaVuSans-97"/>
     </defs>
     <g transform="translate(327.288879 335.860562)scale(0.1 -0.1)">
      <use xlink:href="#DejaVuSans-97"/>
     </g>
    </g>
   </g>
   <g id="matplotlib.axis_2">
    <g id="ytick_1">
     <g id="line2d_13">
      <path clip-path="url(#p5b7c54bcf3)" d="M 172.8 307.584 
L 487.905882 307.584 
" style="fill:none;stroke:#b0b0b0;stroke-dasharray:2.96,1.28;stroke-dashoffset:0;stroke-width:0.8;"/>
     </g>
     <g id="line2d_14">
      <defs>
       <path d="M 0 0 
L -3.5 0 
" id="me0f91aec67" style="stroke:#000000;stroke-width:0.8;"/>
      </defs>
      <g>
       <use style="stroke:#000000;stroke-width:0.8;" x="172.8" xlink:href="#me0f91aec67" y="307.584"/>
      </g>
     </g>
     <g id="text_8">
      <!-- 0.0 -->
      <g transform="translate(149.896875 311.383219)scale(0.1 -0.1)">
       <use xlink:href="#DejaVuSans-48"/>
       <use x="63.623047" xlink:href="#DejaVuSans-46"/>
       <use x="95.410156" xlink:href="#DejaVuSans-48"/>
      </g>
     </g>
    </g>
    <g id="ytick_2">
     <g id="line2d_15">
      <path clip-path="url(#p5b7c54bcf3)" d="M 172.8 254.3616 
L 487.905882 254.3616 
" style="fill:none;stroke:#b0b0b0;stroke-dasharray:2.96,1.28;stroke-dashoffset:0;stroke-width:0.8;"/>
     </g>
     <g id="line2d_16">
      <g>
       <use style="stroke:#000000;stroke-width:0.8;" x="172.8" xlink:href="#me0f91aec67" y="254.3616"/>
      </g>
     </g>
     <g id="text_9">
      <!-- 0.2 -->
      <g transform="translate(149.896875 258.160819)scale(0.1 -0.1)">
       <use xlink:href="#DejaVuSans-48"/>
       <use x="63.623047" xlink:href="#DejaVuSans-46"/>
       <use x="95.410156" xlink:href="#DejaVuSans-50"/>
      </g>
     </g>
    </g>
    <g id="ytick_3">
     <g id="line2d_17">
      <path clip-path="url(#p5b7c54bcf3)" d="M 172.8 201.1392 
L 487.905882 201.1392 
" style="fill:none;stroke:#b0b0b0;stroke-dasharray:2.96,1.28;stroke-dashoffset:0;stroke-width:0.8;"/>
     </g>
     <g id="line2d_18">
      <g>
       <use style="stroke:#000000;stroke-width:0.8;" x="172.8" xlink:href="#me0f91aec67" y="201.1392"/>
      </g>
     </g>
     <g id="text_10">
      <!-- 0.4 -->
      <g transform="translate(149.896875 204.938419)scale(0.1 -0.1)">
       <use xlink:href="#DejaVuSans-48"/>
       <use x="63.623047" xlink:href="#DejaVuSans-46"/>
       <use x="95.410156" xlink:href="#DejaVuSans-52"/>
      </g>
     </g>
    </g>
    <g id="ytick_4">
     <g id="line2d_19">
      <path clip-path="url(#p5b7c54bcf3)" d="M 172.8 147.9168 
L 487.905882 147.9168 
" style="fill:none;stroke:#b0b0b0;stroke-dasharray:2.96,1.28;stroke-dashoffset:0;stroke-width:0.8;"/>
     </g>
     <g id="line2d_20">
      <g>
       <use style="stroke:#000000;stroke-width:0.8;" x="172.8" xlink:href="#me0f91aec67" y="147.9168"/>
      </g>
     </g>
     <g id="text_11">
      <!-- 0.6 -->
      <g transform="translate(149.896875 151.716019)scale(0.1 -0.1)">
       <use xlink:href="#DejaVuSans-48"/>
       <use x="63.623047" xlink:href="#DejaVuSans-46"/>
       <use x="95.410156" xlink:href="#DejaVuSans-54"/>
      </g>
     </g>
    </g>
    <g id="ytick_5">
     <g id="line2d_21">
      <path clip-path="url(#p5b7c54bcf3)" d="M 172.8 94.6944 
L 487.905882 94.6944 
" style="fill:none;stroke:#b0b0b0;stroke-dasharray:2.96,1.28;stroke-dashoffset:0;stroke-width:0.8;"/>
     </g>
     <g id="line2d_22">
      <g>
       <use style="stroke:#000000;stroke-width:0.8;" x="172.8" xlink:href="#me0f91aec67" y="94.6944"/>
      </g>
     </g>
     <g id="text_12">
      <!-- 0.8 -->
      <g transform="translate(149.896875 98.493619)scale(0.1 -0.1)">
       <use xlink:href="#DejaVuSans-48"/>
       <use x="63.623047" xlink:href="#DejaVuSans-46"/>
       <use x="95.410156" xlink:href="#DejaVuSans-56"/>
      </g>
     </g>
    </g>
    <g id="ytick_6">
     <g id="line2d_23">
      <path clip-path="url(#p5b7c54bcf3)" d="M 172.8 41.472 
L 487.905882 41.472 
" style="fill:none;stroke:#b0b0b0;stroke-dasharray:2.96,1.28;stroke-dashoffset:0;stroke-width:0.8;"/>
     </g>
     <g id="line2d_24">
      <g>
       <use style="stroke:#000000;stroke-width:0.8;" x="172.8" xlink:href="#me0f91aec67" y="41.472"/>
      </g>
     </g>
     <g id="text_13">
      <!-- 1.0 -->
      <g transform="translate(149.896875 45.271219)scale(0.1 -0.1)">
       <use xlink:href="#DejaVuSans-49"/>
       <use x="63.623047" xlink:href="#DejaVuSans-46"/>
       <use x="95.410156" xlink:href="#DejaVuSans-48"/>
      </g>
     </g>
    </g>
    <g id="text_14">
     <!-- y -->
     <defs>
      <path d="M 32.171875 -5.078125 
Q 28.375 -14.84375 24.75 -17.8125 
Q 21.140625 -20.796875 15.09375 -20.796875 
L 7.90625 -20.796875 
L 7.90625 -13.28125 
L 13.1875 -13.28125 
Q 16.890625 -13.28125 18.9375 -11.515625 
Q 21 -9.765625 23.484375 -3.21875 
L 25.09375 0.875 
L 2.984375 54.6875 
L 12.5 54.6875 
L 29.59375 11.921875 
L 46.6875 54.6875 
L 56.203125 54.6875 
z
" id="DejaVuSans-121"/>
     </defs>
     <g transform="translate(143.817188 177.487375)rotate(-90)scale(0.1 -0.1)">
      <use xlink:href="#DejaVuSans-121"/>
     </g>
    </g>
   </g>
   <g id="line2d_25">
    <path clip-path="url(#p5b7c54bcf3)" d="M 172.8 41.472 
L 175.951059 42.13728 
L 179.102118 42.80256 
L 182.253176 43.46784 
L 185.404235 44.13312 
L 188.555294 44.7984 
L 191.706353 45.46368 
L 194.857412 46.12896 
L 198.008471 46.79424 
L 201.159529 47.45952 
L 204.310588 48.1248 
L 207.461647 48.79008 
L 210.612706 49.45536 
L 213.763765 50.12064 
L 216.914824 50.78592 
L 220.065882 51.4512 
L 223.216941 52.11648 
L 226.368 52.78176 
L 229.519059 53.44704 
L 232.670118 54.11232 
L 235.821176 54.7776 
L 238.972235 55.44288 
L 242.123294 56.10816 
L 245.274353 56.77344 
L 248.425412 57.43872 
L 251.576471 58.104 
L 254.727529 58.76928 
L 257.878588 59.43456 
L 261.029647 60.09984 
L 264.180706 60.76512 
L 267.331765 61.4304 
L 270.482824 62.09568 
L 273.633882 62.76096 
L 276.784941 63.42624 
L 279.936 64.09152 
L 283.087059 64.7568 
L 286.238118 65.42208 
L 289.389176 66.08736 
L 292.540235 66.75264 
L 295.691294 67.41792 
L 298.842353 68.0832 
L 301.993412 68.74848 
L 305.144471 69.41376 
L 308.295529 70.07904 
L 311.446588 70.74432 
L 314.597647 71.4096 
L 317.748706 72.07488 
L 320.899765 72.74016 
L 324.050824 73.40544 
L 327.201882 74.07072 
L 330.352941 74.736 
L 333.504 75.40128 
L 336.655059 76.06656 
L 339.806118 76.73184 
L 342.957176 77.39712 
L 346.108235 78.0624 
L 349.259294 78.72768 
L 352.410353 79.39296 
L 355.561412 80.05824 
L 358.712471 80.72352 
L 361.863529 81.3888 
L 365.014588 82.05408 
L 368.165647 82.71936 
L 371.316706 83.38464 
L 374.467765 84.04992 
L 377.618824 84.7152 
L 380.769882 85.38048 
L 383.920941 86.04576 
L 387.072 86.71104 
L 390.223059 87.37632 
L 393.374118 88.0416 
L 396.525176 88.70688 
L 399.676235 89.37216 
L 402.827294 90.03744 
L 405.978353 90.70272 
L 409.129412 91.368 
L 412.280471 92.03328 
L 415.431529 92.69856 
L 418.582588 93.36384 
L 421.733647 94.02912 
L 424.884706 94.6944 
L 428.035765 95.35968 
L 431.186824 96.02496 
L 434.337882 96.69024 
L 437.488941 97.35552 
L 440.64 98.0208 
L 443.791059 98.68608 
L 446.942118 99.35136 
L 450.093176 100.01664 
L 453.244235 100.68192 
L 456.395294 101.3472 
L 459.546353 102.01248 
L 462.697412 102.67776 
L 465.848471 103.34304 
L 468.999529 104.00832 
L 472.150588 104.6736 
L 475.301647 105.33888 
L 478.452706 106.00416 
L 481.603765 106.66944 
L 484.754824 107.33472 
L 487.905882 108 
" style="fill:none;stroke:#1f77b4;stroke-linecap:square;stroke-width:1.5;"/>
   </g>
   <g id="line2d_26">
    <path clip-path="url(#p5b7c54bcf3)" d="M 172.8 307.584 
L 175.951059 306.91872 
L 179.102118 306.25344 
L 182.253176 305.58816 
L 185.404235 304.92288 
L 188.555294 304.2576 
L 191.706353 303.59232 
L 194.857412 302.92704 
L 198.008471 302.26176 
L 201.159529 301.59648 
L 204.310588 300.9312 
L 207.461647 300.26592 
L 210.612706 299.60064 
L 213.763765 298.93536 
L 216.914824 298.27008 
L 220.065882 297.6048 
L 223.216941 296.93952 
L 226.368 296.27424 
L 229.519059 295.60896 
L 232.670118 294.94368 
L 235.821176 294.2784 
L 238.972235 293.61312 
L 242.123294 292.94784 
L 245.274353 292.28256 
L 248.425412 291.61728 
L 251.576471 290.952 
L 254.727529 290.28672 
L 257.878588 289.62144 
L 261.029647 288.95616 
L 264.180706 288.29088 
L 267.331765 287.6256 
L 270.482824 286.96032 
L 273.633882 286.29504 
L 276.784941 285.62976 
L 279.936 284.96448 
L 283.087059 284.2992 
L 286.238118 283.63392 
L 289.389176 282.96864 
L 292.540235 282.30336 
L 295.691294 281.63808 
L 298.842353 280.9728 
L 301.993412 280.30752 
L 305.144471 279.64224 
L 308.295529 278.97696 
L 311.446588 278.31168 
L 314.597647 277.6464 
L 317.748706 276.98112 
L 320.899765 276.31584 
L 324.050824 275.65056 
L 327.201882 274.98528 
L 330.352941 274.32 
L 333.504 273.65472 
L 336.655059 272.98944 
L 339.806118 272.32416 
L 342.957176 271.65888 
L 346.108235 270.9936 
L 349.259294 270.32832 
L 352.410353 269.66304 
L 355.561412 268.99776 
L 358.712471 268.33248 
L 361.863529 267.6672 
L 365.014588 267.00192 
L 368.165647 266.33664 
L 371.316706 265.67136 
L 374.467765 265.00608 
L 377.618824 264.3408 
L 380.769882 263.67552 
L 383.920941 263.01024 
L 387.072 262.34496 
L 390.223059 261.67968 
L 393.374118 261.0144 
L 396.525176 260.34912 
L 399.676235 259.68384 
L 402.827294 259.01856 
L 405.978353 258.35328 
L 409.129412 257.688 
L 412.280471 257.02272 
L 415.431529 256.35744 
L 418.582588 255.69216 
L 421.733647 255.02688 
L 424.884706 254.3616 
L 428.035765 253.69632 
L 431.186824 253.03104 
L 434.337882 252.36576 
L 437.488941 251.70048 
L 440.64 251.0352 
L 443.791059 250.36992 
L 446.942118 249.70464 
L 450.093176 249.03936 
L 453.244235 248.37408 
L 456.395294 247.7088 
L 459.546353 247.04352 
L 462.697412 246.37824 
L 465.848471 245.71296 
L 468.999529 245.04768 
L 472.150588 244.3824 
L 475.301647 243.71712 
L 478.452706 243.05184 
L 481.603765 242.38656 
L 484.754824 241.72128 
L 487.905882 241.056 
" style="fill:none;stroke:#ff7f0e;stroke-linecap:square;stroke-width:1.5;"/>
   </g>
   <g id="line2d_27">
    <path clip-path="url(#p5b7c54bcf3)" d="M 172.8 108 
L 175.951059 108 
L 179.102118 108 
L 182.253176 108 
L 185.404235 108 
L 188.555294 108 
L 191.706353 108 
L 194.857412 108 
L 198.008471 108 
L 201.159529 108 
L 204.310588 108 
L 207.461647 108 
L 210.612706 108 
L 213.763765 108 
L 216.914824 108 
L 220.065882 108 
L 223.216941 108 
L 226.368 108 
L 229.519059 108 
L 232.670118 108 
L 235.821176 108 
L 238.972235 108 
L 242.123294 108 
L 245.274353 108 
L 248.425412 108 
L 251.576471 108 
L 254.727529 108 
L 257.878588 108 
L 261.029647 108 
L 264.180706 108 
L 267.331765 108 
L 270.482824 108 
L 273.633882 108 
L 276.784941 108 
L 279.936 108 
L 283.087059 108 
L 286.238118 108 
L 289.389176 108 
L 292.540235 108 
L 295.691294 108 
L 298.842353 108 
L 301.993412 108 
L 305.144471 108 
L 308.295529 108 
L 311.446588 108 
L 314.597647 108 
L 317.748706 108 
L 320.899765 108 
L 324.050824 108 
L 327.201882 108 
L 330.352941 108 
L 333.504 108 
L 336.655059 108 
L 339.806118 108 
L 342.957176 108 
L 346.108235 108 
L 349.259294 108 
L 352.410353 108 
L 355.561412 108 
L 358.712471 108 
L 361.863529 108 
L 365.014588 108 
L 368.165647 108 
L 371.316706 108 
L 374.467765 108 
L 377.618824 108 
L 380.769882 108 
L 383.920941 108 
L 387.072 108 
L 390.223059 108 
L 393.374118 108 
L 396.525176 108 
L 399.676235 108 
L 402.827294 108 
L 405.978353 108 
L 409.129412 108 
L 412.280471 108 
L 415.431529 108 
L 418.582588 108 
L 421.733647 108 
L 424.884706 108 
L 428.035765 108 
L 431.186824 108 
L 434.337882 108 
L 437.488941 108 
L 440.64 108 
L 443.791059 108 
L 446.942118 108 
L 450.093176 108 
L 453.244235 108 
L 456.395294 108 
L 459.546353 108 
L 462.697412 108 
L 465.848471 108 
L 468.999529 108 
L 472.150588 108 
L 475.301647 108 
L 478.452706 108 
L 481.603765 108 
L 484.754824 108 
L 487.905882 108 
" style="fill:none;stroke:#2ca02c;stroke-dasharray:9.6,2.4,1.5,2.4;stroke-dashoffset:0;stroke-width:1.5;"/>
   </g>
   <g id="line2d_28">
    <path clip-path="url(#p5b7c54bcf3)" d="M 172.8 241.056 
L 175.951059 241.056 
L 179.102118 241.056 
L 182.253176 241.056 
L 185.404235 241.056 
L 188.555294 241.056 
L 191.706353 241.056 
L 194.857412 241.056 
L 198.008471 241.056 
L 201.159529 241.056 
L 204.310588 241.056 
L 207.461647 241.056 
L 210.612706 241.056 
L 213.763765 241.056 
L 216.914824 241.056 
L 220.065882 241.056 
L 223.216941 241.056 
L 226.368 241.056 
L 229.519059 241.056 
L 232.670118 241.056 
L 235.821176 241.056 
L 238.972235 241.056 
L 242.123294 241.056 
L 245.274353 241.056 
L 248.425412 241.056 
L 251.576471 241.056 
L 254.727529 241.056 
L 257.878588 241.056 
L 261.029647 241.056 
L 264.180706 241.056 
L 267.331765 241.056 
L 270.482824 241.056 
L 273.633882 241.056 
L 276.784941 241.056 
L 279.936 241.056 
L 283.087059 241.056 
L 286.238118 241.056 
L 289.389176 241.056 
L 292.540235 241.056 
L 295.691294 241.056 
L 298.842353 241.056 
L 301.993412 241.056 
L 305.144471 241.056 
L 308.295529 241.056 
L 311.446588 241.056 
L 314.597647 241.056 
L 317.748706 241.056 
L 320.899765 241.056 
L 324.050824 241.056 
L 327.201882 241.056 
L 330.352941 241.056 
L 333.504 241.056 
L 336.655059 241.056 
L 339.806118 241.056 
L 342.957176 241.056 
L 346.108235 241.056 
L 349.259294 241.056 
L 352.410353 241.056 
L 355.561412 241.056 
L 358.712471 241.056 
L 361.863529 241.056 
L 365.014588 241.056 
L 368.165647 241.056 
L 371.316706 241.056 
L 374.467765 241.056 
L 377.618824 241.056 
L 380.769882 241.056 
L 383.920941 241.056 
L 387.072 241.056 
L 390.223059 241.056 
L 393.374118 241.056 
L 396.525176 241.056 
L 399.676235 241.056 
L 402.827294 241.056 
L 405.978353 241.056 
L 409.129412 241.056 
L 412.280471 241.056 
L 415.431529 241.056 
L 418.582588 241.056 
L 421.733647 241.056 
L 424.884706 241.056 
L 428.035765 241.056 
L 431.186824 241.056 
L 434.337882 241.056 
L 437.488941 241.056 
L 440.64 241.056 
L 443.791059 241.056 
L 446.942118 241.056 
L 450.093176 241.056 
L 453.244235 241.056 
L 456.395294 241.056 
L 459.546353 241.056 
L 462.697412 241.056 
L 465.848471 241.056 
L 468.999529 241.056 
L 472.150588 241.056 
L 475.301647 241.056 
L 478.452706 241.056 
L 481.603765 241.056 
L 484.754824 241.056 
L 487.905882 241.056 
" style="fill:none;stroke:#d62728;stroke-dasharray:9.6,2.4,1.5,2.4;stroke-dashoffset:0;stroke-width:1.5;"/>
   </g>
   <g id="patch_3">
    <path d="M 172.8 307.584 
L 172.8 41.472 
" style="fill:none;stroke:#000000;stroke-linecap:square;stroke-linejoin:miter;stroke-width:0.8;"/>
   </g>
   <g id="patch_4">
    <path d="M 487.905882 307.584 
L 487.905882 41.472 
" style="fill:none;stroke:#000000;stroke-linecap:square;stroke-linejoin:miter;stroke-width:0.8;"/>
   </g>
   <g id="patch_5">
    <path d="M 172.8 307.584 
L 487.905882 307.584 
" style="fill:none;stroke:#000000;stroke-linecap:square;stroke-linejoin:miter;stroke-width:0.8;"/>
   </g>
   <g id="patch_6">
    <path d="M 172.8 41.472 
L 487.905882 41.472 
" style="fill:none;stroke:#000000;stroke-linecap:square;stroke-linejoin:miter;stroke-width:0.8;"/>
   </g>
   <g id="text_15">
    <!-- 0.5&lt;b&lt;=1 -->
    <defs>
     <path d="M 10.796875 72.90625 
L 49.515625 72.90625 
L 49.515625 64.59375 
L 19.828125 64.59375 
L 19.828125 46.734375 
Q 21.96875 47.46875 24.109375 47.828125 
Q 26.265625 48.1875 28.421875 48.1875 
Q 40.625 48.1875 47.75 41.5 
Q 54.890625 34.8125 54.890625 23.390625 
Q 54.890625 11.625 47.5625 5.09375 
Q 40.234375 -1.421875 26.90625 -1.421875 
Q 22.3125 -1.421875 17.546875 -0.640625 
Q 12.796875 0.140625 7.71875 1.703125 
L 7.71875 11.625 
Q 12.109375 9.234375 16.796875 8.0625 
Q 21.484375 6.890625 26.703125 6.890625 
Q 35.15625 6.890625 40.078125 11.328125 
Q 45.015625 15.765625 45.015625 23.390625 
Q 45.015625 31 40.078125 35.4375 
Q 35.15625 39.890625 26.703125 39.890625 
Q 22.75 39.890625 18.8125 39.015625 
Q 14.890625 38.140625 10.796875 36.28125 
z
" id="DejaVuSans-53"/>
     <path d="M 73.1875 49.21875 
L 22.796875 31.296875 
L 73.1875 13.484375 
L 73.1875 4.59375 
L 10.59375 27.296875 
L 10.59375 35.40625 
L 73.1875 58.109375 
z
" id="DejaVuSans-60"/>
     <path d="M 48.6875 27.296875 
Q 48.6875 37.203125 44.609375 42.84375 
Q 40.53125 48.484375 33.40625 48.484375 
Q 26.265625 48.484375 22.1875 42.84375 
Q 18.109375 37.203125 18.109375 27.296875 
Q 18.109375 17.390625 22.1875 11.75 
Q 26.265625 6.109375 33.40625 6.109375 
Q 40.53125 6.109375 44.609375 11.75 
Q 48.6875 17.390625 48.6875 27.296875 
z
M 18.109375 46.390625 
Q 20.953125 51.265625 25.265625 53.625 
Q 29.59375 56 35.59375 56 
Q 45.5625 56 51.78125 48.09375 
Q 58.015625 40.1875 58.015625 27.296875 
Q 58.015625 14.40625 51.78125 6.484375 
Q 45.5625 -1.421875 35.59375 -1.421875 
Q 29.59375 -1.421875 25.265625 0.953125 
Q 20.953125 3.328125 18.109375 8.203125 
L 18.109375 0 
L 9.078125 0 
L 9.078125 75.984375 
L 18.109375 75.984375 
z
" id="DejaVuSans-98"/>
     <path d="M 10.59375 45.40625 
L 73.1875 45.40625 
L 73.1875 37.203125 
L 10.59375 37.203125 
z
M 10.59375 25.484375 
L 73.1875 25.484375 
L 73.1875 17.1875 
L 10.59375 17.1875 
z
" id="DejaVuSans-61"/>
    </defs>
    <g transform="translate(298.101066 35.472)scale(0.12 -0.12)">
     <use xlink:href="#DejaVuSans-48"/>
     <use x="63.623047" xlink:href="#DejaVuSans-46"/>
     <use x="95.410156" xlink:href="#DejaVuSans-53"/>
     <use x="159.033203" xlink:href="#DejaVuSans-60"/>
     <use x="242.822266" xlink:href="#DejaVuSans-98"/>
     <use x="306.298828" xlink:href="#DejaVuSans-60"/>
     <use x="390.087891" xlink:href="#DejaVuSans-61"/>
     <use x="473.876953" xlink:href="#DejaVuSans-49"/>
    </g>
   </g>
   <g id="legend_1">
    <g id="patch_7">
     <path d="M 418.288695 205.38425 
L 480.905882 205.38425 
Q 482.905882 205.38425 482.905882 203.38425 
L 482.905882 145.67175 
Q 482.905882 143.67175 480.905882 143.67175 
L 418.288695 143.67175 
Q 416.288695 143.67175 416.288695 145.67175 
L 416.288695 203.38425 
Q 416.288695 205.38425 418.288695 205.38425 
z
" style="fill:#ffffff;opacity:0.8;stroke:#cccccc;stroke-linejoin:miter;"/>
    </g>
    <g id="line2d_29">
     <path d="M 420.288695 151.770188 
L 440.288695 151.770188 
" style="fill:none;stroke:#1f77b4;stroke-linecap:square;stroke-width:1.5;"/>
    </g>
    <g id="line2d_30"/>
    <g id="text_16">
     <!-- t -->
     <defs>
      <path d="M 18.3125 70.21875 
L 18.3125 54.6875 
L 36.8125 54.6875 
L 36.8125 47.703125 
L 18.3125 47.703125 
L 18.3125 18.015625 
Q 18.3125 11.328125 20.140625 9.421875 
Q 21.96875 7.515625 27.59375 7.515625 
L 36.8125 7.515625 
L 36.8125 0 
L 27.59375 0 
Q 17.1875 0 13.234375 3.875 
Q 9.28125 7.765625 9.28125 18.015625 
L 9.28125 47.703125 
L 2.6875 47.703125 
L 2.6875 54.6875 
L 9.28125 54.6875 
L 9.28125 70.21875 
z
" id="DejaVuSans-116"/>
     </defs>
     <g transform="translate(448.288695 155.270188)scale(0.1 -0.1)">
      <use xlink:href="#DejaVuSans-116"/>
     </g>
    </g>
    <g id="line2d_31">
     <path d="M 420.288695 166.448313 
L 440.288695 166.448313 
" style="fill:none;stroke:#ff7f0e;stroke-linecap:square;stroke-width:1.5;"/>
    </g>
    <g id="line2d_32"/>
    <g id="text_17">
     <!-- e -->
     <defs>
      <path d="M 56.203125 29.59375 
L 56.203125 25.203125 
L 14.890625 25.203125 
Q 15.484375 15.921875 20.484375 11.0625 
Q 25.484375 6.203125 34.421875 6.203125 
Q 39.59375 6.203125 44.453125 7.46875 
Q 49.3125 8.734375 54.109375 11.28125 
L 54.109375 2.78125 
Q 49.265625 0.734375 44.1875 -0.34375 
Q 39.109375 -1.421875 33.890625 -1.421875 
Q 20.796875 -1.421875 13.15625 6.1875 
Q 5.515625 13.8125 5.515625 26.8125 
Q 5.515625 40.234375 12.765625 48.109375 
Q 20.015625 56 32.328125 56 
Q 43.359375 56 49.78125 48.890625 
Q 56.203125 41.796875 56.203125 29.59375 
z
M 47.21875 32.234375 
Q 47.125 39.59375 43.09375 43.984375 
Q 39.0625 48.390625 32.421875 48.390625 
Q 24.90625 48.390625 20.390625 44.140625 
Q 15.875 39.890625 15.1875 32.171875 
z
" id="DejaVuSans-101"/>
     </defs>
     <g transform="translate(448.288695 169.948313)scale(0.1 -0.1)">
      <use xlink:href="#DejaVuSans-101"/>
     </g>
    </g>
    <g id="line2d_33">
     <path d="M 420.288695 181.126438 
L 440.288695 181.126438 
" style="fill:none;stroke:#2ca02c;stroke-dasharray:9.6,2.4,1.5,2.4;stroke-dashoffset:0;stroke-width:1.5;"/>
    </g>
    <g id="line2d_34"/>
    <g id="text_18">
     <!-- y=b -->
     <g transform="translate(448.288695 184.626438)scale(0.1 -0.1)">
      <use xlink:href="#DejaVuSans-121"/>
      <use x="59.179688" xlink:href="#DejaVuSans-61"/>
      <use x="142.96875" xlink:href="#DejaVuSans-98"/>
     </g>
    </g>
    <g id="line2d_35">
     <path d="M 420.288695 195.804563 
L 440.288695 195.804563 
" style="fill:none;stroke:#d62728;stroke-dasharray:9.6,2.4,1.5,2.4;stroke-dashoffset:0;stroke-width:1.5;"/>
    </g>
    <g id="line2d_36"/>
    <g id="text_19">
     <!-- y=1-b -->
     <defs>
      <path d="M 4.890625 31.390625 
L 31.203125 31.390625 
L 31.203125 23.390625 
L 4.890625 23.390625 
z
" id="DejaVuSans-45"/>
     </defs>
     <g transform="translate(448.288695 199.304563)scale(0.1 -0.1)">
      <use xlink:href="#DejaVuSans-121"/>
      <use x="59.179688" xlink:href="#DejaVuSans-61"/>
      <use x="142.96875" xlink:href="#DejaVuSans-49"/>
      <use x="206.591797" xlink:href="#DejaVuSans-45"/>
      <use x="242.675781" xlink:href="#DejaVuSans-98"/>
     </g>
    </g>
   </g>
  </g>
  <g id="axes_2">
   <g id="patch_8">
    <path d="M 550.927059 307.584 
L 866.032941 307.584 
L 866.032941 41.472 
L 550.927059 41.472 
z
" style="fill:#ffffff;"/>
   </g>
   <g id="matplotlib.axis_3">
    <g id="xtick_7">
     <g id="line2d_37">
      <path clip-path="url(#p738b550df2)" d="M 550.927059 307.584 
L 550.927059 41.472 
" style="fill:none;stroke:#b0b0b0;stroke-dasharray:2.96,1.28;stroke-dashoffset:0;stroke-width:0.8;"/>
     </g>
     <g id="line2d_38">
      <g>
       <use style="stroke:#000000;stroke-width:0.8;" x="550.927059" xlink:href="#m030a6c556e" y="307.584"/>
      </g>
     </g>
     <g id="text_20">
      <!-- 0.0 -->
      <g transform="translate(542.975496 322.182437)scale(0.1 -0.1)">
       <use xlink:href="#DejaVuSans-48"/>
       <use x="63.623047" xlink:href="#DejaVuSans-46"/>
       <use x="95.410156" xlink:href="#DejaVuSans-48"/>
      </g>
     </g>
    </g>
    <g id="xtick_8">
     <g id="line2d_39">
      <path clip-path="url(#p738b550df2)" d="M 613.948235 307.584 
L 613.948235 41.472 
" style="fill:none;stroke:#b0b0b0;stroke-dasharray:2.96,1.28;stroke-dashoffset:0;stroke-width:0.8;"/>
     </g>
     <g id="line2d_40">
      <g>
       <use style="stroke:#000000;stroke-width:0.8;" x="613.948235" xlink:href="#m030a6c556e" y="307.584"/>
      </g>
     </g>
     <g id="text_21">
      <!-- 0.2 -->
      <g transform="translate(605.996673 322.182437)scale(0.1 -0.1)">
       <use xlink:href="#DejaVuSans-48"/>
       <use x="63.623047" xlink:href="#DejaVuSans-46"/>
       <use x="95.410156" xlink:href="#DejaVuSans-50"/>
      </g>
     </g>
    </g>
    <g id="xtick_9">
     <g id="line2d_41">
      <path clip-path="url(#p738b550df2)" d="M 676.969412 307.584 
L 676.969412 41.472 
" style="fill:none;stroke:#b0b0b0;stroke-dasharray:2.96,1.28;stroke-dashoffset:0;stroke-width:0.8;"/>
     </g>
     <g id="line2d_42">
      <g>
       <use style="stroke:#000000;stroke-width:0.8;" x="676.969412" xlink:href="#m030a6c556e" y="307.584"/>
      </g>
     </g>
     <g id="text_22">
      <!-- 0.4 -->
      <g transform="translate(669.017849 322.182437)scale(0.1 -0.1)">
       <use xlink:href="#DejaVuSans-48"/>
       <use x="63.623047" xlink:href="#DejaVuSans-46"/>
       <use x="95.410156" xlink:href="#DejaVuSans-52"/>
      </g>
     </g>
    </g>
    <g id="xtick_10">
     <g id="line2d_43">
      <path clip-path="url(#p738b550df2)" d="M 739.990588 307.584 
L 739.990588 41.472 
" style="fill:none;stroke:#b0b0b0;stroke-dasharray:2.96,1.28;stroke-dashoffset:0;stroke-width:0.8;"/>
     </g>
     <g id="line2d_44">
      <g>
       <use style="stroke:#000000;stroke-width:0.8;" x="739.990588" xlink:href="#m030a6c556e" y="307.584"/>
      </g>
     </g>
     <g id="text_23">
      <!-- 0.6 -->
      <g transform="translate(732.039026 322.182437)scale(0.1 -0.1)">
       <use xlink:href="#DejaVuSans-48"/>
       <use x="63.623047" xlink:href="#DejaVuSans-46"/>
       <use x="95.410156" xlink:href="#DejaVuSans-54"/>
      </g>
     </g>
    </g>
    <g id="xtick_11">
     <g id="line2d_45">
      <path clip-path="url(#p738b550df2)" d="M 803.011765 307.584 
L 803.011765 41.472 
" style="fill:none;stroke:#b0b0b0;stroke-dasharray:2.96,1.28;stroke-dashoffset:0;stroke-width:0.8;"/>
     </g>
     <g id="line2d_46">
      <g>
       <use style="stroke:#000000;stroke-width:0.8;" x="803.011765" xlink:href="#m030a6c556e" y="307.584"/>
      </g>
     </g>
     <g id="text_24">
      <!-- 0.8 -->
      <g transform="translate(795.060202 322.182437)scale(0.1 -0.1)">
       <use xlink:href="#DejaVuSans-48"/>
       <use x="63.623047" xlink:href="#DejaVuSans-46"/>
       <use x="95.410156" xlink:href="#DejaVuSans-56"/>
      </g>
     </g>
    </g>
    <g id="xtick_12">
     <g id="line2d_47">
      <path clip-path="url(#p738b550df2)" d="M 866.032941 307.584 
L 866.032941 41.472 
" style="fill:none;stroke:#b0b0b0;stroke-dasharray:2.96,1.28;stroke-dashoffset:0;stroke-width:0.8;"/>
     </g>
     <g id="line2d_48">
      <g>
       <use style="stroke:#000000;stroke-width:0.8;" x="866.032941" xlink:href="#m030a6c556e" y="307.584"/>
      </g>
     </g>
     <g id="text_25">
      <!-- 1.0 -->
      <g transform="translate(858.081379 322.182437)scale(0.1 -0.1)">
       <use xlink:href="#DejaVuSans-49"/>
       <use x="63.623047" xlink:href="#DejaVuSans-46"/>
       <use x="95.410156" xlink:href="#DejaVuSans-48"/>
      </g>
     </g>
    </g>
    <g id="text_26">
     <!-- a -->
     <g transform="translate(705.415938 335.860562)scale(0.1 -0.1)">
      <use xlink:href="#DejaVuSans-97"/>
     </g>
    </g>
   </g>
   <g id="matplotlib.axis_4">
    <g id="ytick_7">
     <g id="line2d_49">
      <path clip-path="url(#p738b550df2)" d="M 550.927059 307.584 
L 866.032941 307.584 
" style="fill:none;stroke:#b0b0b0;stroke-dasharray:2.96,1.28;stroke-dashoffset:0;stroke-width:0.8;"/>
     </g>
     <g id="line2d_50">
      <g>
       <use style="stroke:#000000;stroke-width:0.8;" x="550.927059" xlink:href="#me0f91aec67" y="307.584"/>
      </g>
     </g>
     <g id="text_27">
      <!-- 0.0 -->
      <g transform="translate(528.023934 311.383219)scale(0.1 -0.1)">
       <use xlink:href="#DejaVuSans-48"/>
       <use x="63.623047" xlink:href="#DejaVuSans-46"/>
       <use x="95.410156" xlink:href="#DejaVuSans-48"/>
      </g>
     </g>
    </g>
    <g id="ytick_8">
     <g id="line2d_51">
      <path clip-path="url(#p738b550df2)" d="M 550.927059 254.3616 
L 866.032941 254.3616 
" style="fill:none;stroke:#b0b0b0;stroke-dasharray:2.96,1.28;stroke-dashoffset:0;stroke-width:0.8;"/>
     </g>
     <g id="line2d_52">
      <g>
       <use style="stroke:#000000;stroke-width:0.8;" x="550.927059" xlink:href="#me0f91aec67" y="254.3616"/>
      </g>
     </g>
     <g id="text_28">
      <!-- 0.2 -->
      <g transform="translate(528.023934 258.160819)scale(0.1 -0.1)">
       <use xlink:href="#DejaVuSans-48"/>
       <use x="63.623047" xlink:href="#DejaVuSans-46"/>
       <use x="95.410156" xlink:href="#DejaVuSans-50"/>
      </g>
     </g>
    </g>
    <g id="ytick_9">
     <g id="line2d_53">
      <path clip-path="url(#p738b550df2)" d="M 550.927059 201.1392 
L 866.032941 201.1392 
" style="fill:none;stroke:#b0b0b0;stroke-dasharray:2.96,1.28;stroke-dashoffset:0;stroke-width:0.8;"/>
     </g>
     <g id="line2d_54">
      <g>
       <use style="stroke:#000000;stroke-width:0.8;" x="550.927059" xlink:href="#me0f91aec67" y="201.1392"/>
      </g>
     </g>
     <g id="text_29">
      <!-- 0.4 -->
      <g transform="translate(528.023934 204.938419)scale(0.1 -0.1)">
       <use xlink:href="#DejaVuSans-48"/>
       <use x="63.623047" xlink:href="#DejaVuSans-46"/>
       <use x="95.410156" xlink:href="#DejaVuSans-52"/>
      </g>
     </g>
    </g>
    <g id="ytick_10">
     <g id="line2d_55">
      <path clip-path="url(#p738b550df2)" d="M 550.927059 147.9168 
L 866.032941 147.9168 
" style="fill:none;stroke:#b0b0b0;stroke-dasharray:2.96,1.28;stroke-dashoffset:0;stroke-width:0.8;"/>
     </g>
     <g id="line2d_56">
      <g>
       <use style="stroke:#000000;stroke-width:0.8;" x="550.927059" xlink:href="#me0f91aec67" y="147.9168"/>
      </g>
     </g>
     <g id="text_30">
      <!-- 0.6 -->
      <g transform="translate(528.023934 151.716019)scale(0.1 -0.1)">
       <use xlink:href="#DejaVuSans-48"/>
       <use x="63.623047" xlink:href="#DejaVuSans-46"/>
       <use x="95.410156" xlink:href="#DejaVuSans-54"/>
      </g>
     </g>
    </g>
    <g id="ytick_11">
     <g id="line2d_57">
      <path clip-path="url(#p738b550df2)" d="M 550.927059 94.6944 
L 866.032941 94.6944 
" style="fill:none;stroke:#b0b0b0;stroke-dasharray:2.96,1.28;stroke-dashoffset:0;stroke-width:0.8;"/>
     </g>
     <g id="line2d_58">
      <g>
       <use style="stroke:#000000;stroke-width:0.8;" x="550.927059" xlink:href="#me0f91aec67" y="94.6944"/>
      </g>
     </g>
     <g id="text_31">
      <!-- 0.8 -->
      <g transform="translate(528.023934 98.493619)scale(0.1 -0.1)">
       <use xlink:href="#DejaVuSans-48"/>
       <use x="63.623047" xlink:href="#DejaVuSans-46"/>
       <use x="95.410156" xlink:href="#DejaVuSans-56"/>
      </g>
     </g>
    </g>
    <g id="ytick_12">
     <g id="line2d_59">
      <path clip-path="url(#p738b550df2)" d="M 550.927059 41.472 
L 866.032941 41.472 
" style="fill:none;stroke:#b0b0b0;stroke-dasharray:2.96,1.28;stroke-dashoffset:0;stroke-width:0.8;"/>
     </g>
     <g id="line2d_60">
      <g>
       <use style="stroke:#000000;stroke-width:0.8;" x="550.927059" xlink:href="#me0f91aec67" y="41.472"/>
      </g>
     </g>
     <g id="text_32">
      <!-- 1.0 -->
      <g transform="translate(528.023934 45.271219)scale(0.1 -0.1)">
       <use xlink:href="#DejaVuSans-49"/>
       <use x="63.623047" xlink:href="#DejaVuSans-46"/>
       <use x="95.410156" xlink:href="#DejaVuSans-48"/>
      </g>
     </g>
    </g>
    <g id="text_33">
     <!-- y -->
     <g transform="translate(521.944246 177.487375)rotate(-90)scale(0.1 -0.1)">
      <use xlink:href="#DejaVuSans-121"/>
     </g>
    </g>
   </g>
   <g id="line2d_61">
    <path clip-path="url(#p738b550df2)" d="M 550.927059 41.472 
L 554.078118 42.80256 
L 557.229176 44.13312 
L 560.380235 45.46368 
L 563.531294 46.79424 
L 566.682353 48.1248 
L 569.833412 49.45536 
L 572.984471 50.78592 
L 576.135529 52.11648 
L 579.286588 53.44704 
L 582.437647 54.7776 
L 585.588706 56.10816 
L 588.739765 57.43872 
L 591.890824 58.76928 
L 595.041882 60.09984 
L 598.192941 61.4304 
L 601.344 62.76096 
L 604.495059 64.09152 
L 607.646118 65.42208 
L 610.797176 66.75264 
L 613.948235 68.0832 
L 617.099294 69.41376 
L 620.250353 70.74432 
L 623.401412 72.07488 
L 626.552471 73.40544 
L 629.703529 74.736 
L 632.854588 76.06656 
L 636.005647 77.39712 
L 639.156706 78.72768 
L 642.307765 80.05824 
L 645.458824 81.3888 
L 648.609882 82.71936 
L 651.760941 84.04992 
L 654.912 85.38048 
L 658.063059 86.71104 
L 661.214118 88.0416 
L 664.365176 89.37216 
L 667.516235 90.70272 
L 670.667294 92.03328 
L 673.818353 93.36384 
L 676.969412 94.6944 
L 680.120471 96.02496 
L 683.271529 97.35552 
L 686.422588 98.68608 
L 689.573647 100.01664 
L 692.724706 101.3472 
L 695.875765 102.67776 
L 699.026824 104.00832 
L 702.177882 105.33888 
L 705.328941 106.66944 
L 708.48 108 
L 711.631059 109.33056 
L 714.782118 110.66112 
L 717.933176 111.99168 
L 721.084235 113.32224 
L 724.235294 114.6528 
L 727.386353 115.98336 
L 730.537412 117.31392 
L 733.688471 118.64448 
L 736.839529 119.97504 
L 739.990588 121.3056 
L 743.141647 122.63616 
L 746.292706 123.96672 
L 749.443765 125.29728 
L 752.594824 126.62784 
L 755.745882 127.9584 
L 758.896941 129.28896 
L 762.048 130.61952 
L 765.199059 131.95008 
L 768.350118 133.28064 
L 771.501176 134.6112 
L 774.652235 135.94176 
L 777.803294 137.27232 
L 780.954353 138.60288 
L 784.105412 139.93344 
L 787.256471 141.264 
L 790.407529 142.59456 
L 793.558588 143.92512 
L 796.709647 145.25568 
L 799.860706 146.58624 
L 803.011765 147.9168 
L 806.162824 149.24736 
L 809.313882 150.57792 
L 812.464941 151.90848 
L 815.616 153.23904 
L 818.767059 154.5696 
L 821.918118 155.90016 
L 825.069176 157.23072 
L 828.220235 158.56128 
L 831.371294 159.89184 
L 834.522353 161.2224 
L 837.673412 162.55296 
L 840.824471 163.88352 
L 843.975529 165.21408 
L 847.126588 166.54464 
L 850.277647 167.8752 
L 853.428706 169.20576 
L 856.579765 170.53632 
L 859.730824 171.86688 
L 862.881882 173.19744 
L 866.032941 174.528 
" style="fill:none;stroke:#1f77b4;stroke-linecap:square;stroke-width:1.5;"/>
   </g>
   <g id="line2d_62">
    <path clip-path="url(#p738b550df2)" d="M 550.927059 307.584 
L 554.078118 306.25344 
L 557.229176 304.92288 
L 560.380235 303.59232 
L 563.531294 302.26176 
L 566.682353 300.9312 
L 569.833412 299.60064 
L 572.984471 298.27008 
L 576.135529 296.93952 
L 579.286588 295.60896 
L 582.437647 294.2784 
L 585.588706 292.94784 
L 588.739765 291.61728 
L 591.890824 290.28672 
L 595.041882 288.95616 
L 598.192941 287.6256 
L 601.344 286.29504 
L 604.495059 284.96448 
L 607.646118 283.63392 
L 610.797176 282.30336 
L 613.948235 280.9728 
L 617.099294 279.64224 
L 620.250353 278.31168 
L 623.401412 276.98112 
L 626.552471 275.65056 
L 629.703529 274.32 
L 632.854588 272.98944 
L 636.005647 271.65888 
L 639.156706 270.32832 
L 642.307765 268.99776 
L 645.458824 267.6672 
L 648.609882 266.33664 
L 651.760941 265.00608 
L 654.912 263.67552 
L 658.063059 262.34496 
L 661.214118 261.0144 
L 664.365176 259.68384 
L 667.516235 258.35328 
L 670.667294 257.02272 
L 673.818353 255.69216 
L 676.969412 254.3616 
L 680.120471 253.03104 
L 683.271529 251.70048 
L 686.422588 250.36992 
L 689.573647 249.03936 
L 692.724706 247.7088 
L 695.875765 246.37824 
L 699.026824 245.04768 
L 702.177882 243.71712 
L 705.328941 242.38656 
L 708.48 241.056 
L 711.631059 239.72544 
L 714.782118 238.39488 
L 717.933176 237.06432 
L 721.084235 235.73376 
L 724.235294 234.4032 
L 727.386353 233.07264 
L 730.537412 231.74208 
L 733.688471 230.41152 
L 736.839529 229.08096 
L 739.990588 227.7504 
L 743.141647 226.41984 
L 746.292706 225.08928 
L 749.443765 223.75872 
L 752.594824 222.42816 
L 755.745882 221.0976 
L 758.896941 219.76704 
L 762.048 218.43648 
L 765.199059 217.10592 
L 768.350118 215.77536 
L 771.501176 214.4448 
L 774.652235 213.11424 
L 777.803294 211.78368 
L 780.954353 210.45312 
L 784.105412 209.12256 
L 787.256471 207.792 
L 790.407529 206.46144 
L 793.558588 205.13088 
L 796.709647 203.80032 
L 799.860706 202.46976 
L 803.011765 201.1392 
L 806.162824 199.80864 
L 809.313882 198.47808 
L 812.464941 197.14752 
L 815.616 195.81696 
L 818.767059 194.4864 
L 821.918118 193.15584 
L 825.069176 191.82528 
L 828.220235 190.49472 
L 831.371294 189.16416 
L 834.522353 187.8336 
L 837.673412 186.50304 
L 840.824471 185.17248 
L 843.975529 183.84192 
L 847.126588 182.51136 
L 850.277647 181.1808 
L 853.428706 179.85024 
L 856.579765 178.51968 
L 859.730824 177.18912 
L 862.881882 175.85856 
L 866.032941 174.528 
" style="fill:none;stroke:#ff7f0e;stroke-linecap:square;stroke-width:1.5;"/>
   </g>
   <g id="line2d_63">
    <path clip-path="url(#p738b550df2)" d="M 550.927059 174.528 
L 554.078118 174.528 
L 557.229176 174.528 
L 560.380235 174.528 
L 563.531294 174.528 
L 566.682353 174.528 
L 569.833412 174.528 
L 572.984471 174.528 
L 576.135529 174.528 
L 579.286588 174.528 
L 582.437647 174.528 
L 585.588706 174.528 
L 588.739765 174.528 
L 591.890824 174.528 
L 595.041882 174.528 
L 598.192941 174.528 
L 601.344 174.528 
L 604.495059 174.528 
L 607.646118 174.528 
L 610.797176 174.528 
L 613.948235 174.528 
L 617.099294 174.528 
L 620.250353 174.528 
L 623.401412 174.528 
L 626.552471 174.528 
L 629.703529 174.528 
L 632.854588 174.528 
L 636.005647 174.528 
L 639.156706 174.528 
L 642.307765 174.528 
L 645.458824 174.528 
L 648.609882 174.528 
L 651.760941 174.528 
L 654.912 174.528 
L 658.063059 174.528 
L 661.214118 174.528 
L 664.365176 174.528 
L 667.516235 174.528 
L 670.667294 174.528 
L 673.818353 174.528 
L 676.969412 174.528 
L 680.120471 174.528 
L 683.271529 174.528 
L 686.422588 174.528 
L 689.573647 174.528 
L 692.724706 174.528 
L 695.875765 174.528 
L 699.026824 174.528 
L 702.177882 174.528 
L 705.328941 174.528 
L 708.48 174.528 
L 711.631059 174.528 
L 714.782118 174.528 
L 717.933176 174.528 
L 721.084235 174.528 
L 724.235294 174.528 
L 727.386353 174.528 
L 730.537412 174.528 
L 733.688471 174.528 
L 736.839529 174.528 
L 739.990588 174.528 
L 743.141647 174.528 
L 746.292706 174.528 
L 749.443765 174.528 
L 752.594824 174.528 
L 755.745882 174.528 
L 758.896941 174.528 
L 762.048 174.528 
L 765.199059 174.528 
L 768.350118 174.528 
L 771.501176 174.528 
L 774.652235 174.528 
L 777.803294 174.528 
L 780.954353 174.528 
L 784.105412 174.528 
L 787.256471 174.528 
L 790.407529 174.528 
L 793.558588 174.528 
L 796.709647 174.528 
L 799.860706 174.528 
L 803.011765 174.528 
L 806.162824 174.528 
L 809.313882 174.528 
L 812.464941 174.528 
L 815.616 174.528 
L 818.767059 174.528 
L 821.918118 174.528 
L 825.069176 174.528 
L 828.220235 174.528 
L 831.371294 174.528 
L 834.522353 174.528 
L 837.673412 174.528 
L 840.824471 174.528 
L 843.975529 174.528 
L 847.126588 174.528 
L 850.277647 174.528 
L 853.428706 174.528 
L 856.579765 174.528 
L 859.730824 174.528 
L 862.881882 174.528 
L 866.032941 174.528 
" style="fill:none;stroke:#2ca02c;stroke-dasharray:9.6,2.4,1.5,2.4;stroke-dashoffset:0;stroke-width:1.5;"/>
   </g>
   <g id="patch_9">
    <path d="M 550.927059 307.584 
L 550.927059 41.472 
" style="fill:none;stroke:#000000;stroke-linecap:square;stroke-linejoin:miter;stroke-width:0.8;"/>
   </g>
   <g id="patch_10">
    <path d="M 866.032941 307.584 
L 866.032941 41.472 
" style="fill:none;stroke:#000000;stroke-linecap:square;stroke-linejoin:miter;stroke-width:0.8;"/>
   </g>
   <g id="patch_11">
    <path d="M 550.927059 307.584 
L 866.032941 307.584 
" style="fill:none;stroke:#000000;stroke-linecap:square;stroke-linejoin:miter;stroke-width:0.8;"/>
   </g>
   <g id="patch_12">
    <path d="M 550.927059 41.472 
L 866.032941 41.472 
" style="fill:none;stroke:#000000;stroke-linecap:square;stroke-linejoin:miter;stroke-width:0.8;"/>
   </g>
   <g id="text_34">
    <!-- b=0.5 -->
    <g transform="translate(690.10125 35.472)scale(0.12 -0.12)">
     <use xlink:href="#DejaVuSans-98"/>
     <use x="63.476562" xlink:href="#DejaVuSans-61"/>
     <use x="147.265625" xlink:href="#DejaVuSans-48"/>
     <use x="210.888672" xlink:href="#DejaVuSans-46"/>
     <use x="242.675781" xlink:href="#DejaVuSans-53"/>
    </g>
   </g>
   <g id="legend_2">
    <g id="patch_13">
     <path d="M 796.401691 93.506375 
L 859.032941 93.506375 
Q 861.032941 93.506375 861.032941 91.506375 
L 861.032941 48.472 
Q 861.032941 46.472 859.032941 46.472 
L 796.401691 46.472 
Q 794.401691 46.472 794.401691 48.472 
L 794.401691 91.506375 
Q 794.401691 93.506375 796.401691 93.506375 
z
" style="fill:#ffffff;opacity:0.8;stroke:#cccccc;stroke-linejoin:miter;"/>
    </g>
    <g id="line2d_64">
     <path d="M 798.401691 54.570438 
L 818.401691 54.570438 
" style="fill:none;stroke:#1f77b4;stroke-linecap:square;stroke-width:1.5;"/>
    </g>
    <g id="line2d_65"/>
    <g id="text_35">
     <!-- t -->
     <g transform="translate(826.401691 58.070438)scale(0.1 -0.1)">
      <use xlink:href="#DejaVuSans-116"/>
     </g>
    </g>
    <g id="line2d_66">
     <path d="M 798.401691 69.248563 
L 818.401691 69.248563 
" style="fill:none;stroke:#ff7f0e;stroke-linecap:square;stroke-width:1.5;"/>
    </g>
    <g id="line2d_67"/>
    <g id="text_36">
     <!-- e -->
     <g transform="translate(826.401691 72.748563)scale(0.1 -0.1)">
      <use xlink:href="#DejaVuSans-101"/>
     </g>
    </g>
    <g id="line2d_68">
     <path d="M 798.401691 83.926688 
L 818.401691 83.926688 
" style="fill:none;stroke:#2ca02c;stroke-dasharray:9.6,2.4,1.5,2.4;stroke-dashoffset:0;stroke-width:1.5;"/>
    </g>
    <g id="line2d_69"/>
    <g id="text_37">
     <!-- b=0.5 -->
     <g transform="translate(826.401691 87.426688)scale(0.1 -0.1)">
      <use xlink:href="#DejaVuSans-98"/>
      <use x="63.476562" xlink:href="#DejaVuSans-61"/>
      <use x="147.265625" xlink:href="#DejaVuSans-48"/>
      <use x="210.888672" xlink:href="#DejaVuSans-46"/>
      <use x="242.675781" xlink:href="#DejaVuSans-53"/>
     </g>
    </g>
   </g>
  </g>
  <g id="axes_3">
   <g id="patch_14">
    <path d="M 929.054118 307.584 
L 1244.16 307.584 
L 1244.16 41.472 
L 929.054118 41.472 
z
" style="fill:#ffffff;"/>
   </g>
   <g id="matplotlib.axis_5">
    <g id="xtick_13">
     <g id="line2d_70">
      <path clip-path="url(#p053333d4df)" d="M 929.054118 307.584 
L 929.054118 41.472 
" style="fill:none;stroke:#b0b0b0;stroke-dasharray:2.96,1.28;stroke-dashoffset:0;stroke-width:0.8;"/>
     </g>
     <g id="line2d_71">
      <g>
       <use style="stroke:#000000;stroke-width:0.8;" x="929.054118" xlink:href="#m030a6c556e" y="307.584"/>
      </g>
     </g>
     <g id="text_38">
      <!-- 0.0 -->
      <g transform="translate(921.102555 322.182437)scale(0.1 -0.1)">
       <use xlink:href="#DejaVuSans-48"/>
       <use x="63.623047" xlink:href="#DejaVuSans-46"/>
       <use x="95.410156" xlink:href="#DejaVuSans-48"/>
      </g>
     </g>
    </g>
    <g id="xtick_14">
     <g id="line2d_72">
      <path clip-path="url(#p053333d4df)" d="M 992.075294 307.584 
L 992.075294 41.472 
" style="fill:none;stroke:#b0b0b0;stroke-dasharray:2.96,1.28;stroke-dashoffset:0;stroke-width:0.8;"/>
     </g>
     <g id="line2d_73">
      <g>
       <use style="stroke:#000000;stroke-width:0.8;" x="992.075294" xlink:href="#m030a6c556e" y="307.584"/>
      </g>
     </g>
     <g id="text_39">
      <!-- 0.2 -->
      <g transform="translate(984.123732 322.182437)scale(0.1 -0.1)">
       <use xlink:href="#DejaVuSans-48"/>
       <use x="63.623047" xlink:href="#DejaVuSans-46"/>
       <use x="95.410156" xlink:href="#DejaVuSans-50"/>
      </g>
     </g>
    </g>
    <g id="xtick_15">
     <g id="line2d_74">
      <path clip-path="url(#p053333d4df)" d="M 1055.096471 307.584 
L 1055.096471 41.472 
" style="fill:none;stroke:#b0b0b0;stroke-dasharray:2.96,1.28;stroke-dashoffset:0;stroke-width:0.8;"/>
     </g>
     <g id="line2d_75">
      <g>
       <use style="stroke:#000000;stroke-width:0.8;" x="1055.096471" xlink:href="#m030a6c556e" y="307.584"/>
      </g>
     </g>
     <g id="text_40">
      <!-- 0.4 -->
      <g transform="translate(1047.144908 322.182437)scale(0.1 -0.1)">
       <use xlink:href="#DejaVuSans-48"/>
       <use x="63.623047" xlink:href="#DejaVuSans-46"/>
       <use x="95.410156" xlink:href="#DejaVuSans-52"/>
      </g>
     </g>
    </g>
    <g id="xtick_16">
     <g id="line2d_76">
      <path clip-path="url(#p053333d4df)" d="M 1118.117647 307.584 
L 1118.117647 41.472 
" style="fill:none;stroke:#b0b0b0;stroke-dasharray:2.96,1.28;stroke-dashoffset:0;stroke-width:0.8;"/>
     </g>
     <g id="line2d_77">
      <g>
       <use style="stroke:#000000;stroke-width:0.8;" x="1118.117647" xlink:href="#m030a6c556e" y="307.584"/>
      </g>
     </g>
     <g id="text_41">
      <!-- 0.6 -->
      <g transform="translate(1110.166085 322.182437)scale(0.1 -0.1)">
       <use xlink:href="#DejaVuSans-48"/>
       <use x="63.623047" xlink:href="#DejaVuSans-46"/>
       <use x="95.410156" xlink:href="#DejaVuSans-54"/>
      </g>
     </g>
    </g>
    <g id="xtick_17">
     <g id="line2d_78">
      <path clip-path="url(#p053333d4df)" d="M 1181.138824 307.584 
L 1181.138824 41.472 
" style="fill:none;stroke:#b0b0b0;stroke-dasharray:2.96,1.28;stroke-dashoffset:0;stroke-width:0.8;"/>
     </g>
     <g id="line2d_79">
      <g>
       <use style="stroke:#000000;stroke-width:0.8;" x="1181.138824" xlink:href="#m030a6c556e" y="307.584"/>
      </g>
     </g>
     <g id="text_42">
      <!-- 0.8 -->
      <g transform="translate(1173.187261 322.182437)scale(0.1 -0.1)">
       <use xlink:href="#DejaVuSans-48"/>
       <use x="63.623047" xlink:href="#DejaVuSans-46"/>
       <use x="95.410156" xlink:href="#DejaVuSans-56"/>
      </g>
     </g>
    </g>
    <g id="xtick_18">
     <g id="line2d_80">
      <path clip-path="url(#p053333d4df)" d="M 1244.16 307.584 
L 1244.16 41.472 
" style="fill:none;stroke:#b0b0b0;stroke-dasharray:2.96,1.28;stroke-dashoffset:0;stroke-width:0.8;"/>
     </g>
     <g id="line2d_81">
      <g>
       <use style="stroke:#000000;stroke-width:0.8;" x="1244.16" xlink:href="#m030a6c556e" y="307.584"/>
      </g>
     </g>
     <g id="text_43">
      <!-- 1.0 -->
      <g transform="translate(1236.208438 322.182437)scale(0.1 -0.1)">
       <use xlink:href="#DejaVuSans-49"/>
       <use x="63.623047" xlink:href="#DejaVuSans-46"/>
       <use x="95.410156" xlink:href="#DejaVuSans-48"/>
      </g>
     </g>
    </g>
    <g id="text_44">
     <!-- a -->
     <g transform="translate(1083.542996 335.860562)scale(0.1 -0.1)">
      <use xlink:href="#DejaVuSans-97"/>
     </g>
    </g>
   </g>
   <g id="matplotlib.axis_6">
    <g id="ytick_13">
     <g id="line2d_82">
      <path clip-path="url(#p053333d4df)" d="M 929.054118 307.584 
L 1244.16 307.584 
" style="fill:none;stroke:#b0b0b0;stroke-dasharray:2.96,1.28;stroke-dashoffset:0;stroke-width:0.8;"/>
     </g>
     <g id="line2d_83">
      <g>
       <use style="stroke:#000000;stroke-width:0.8;" x="929.054118" xlink:href="#me0f91aec67" y="307.584"/>
      </g>
     </g>
     <g id="text_45">
      <!-- 0.0 -->
      <g transform="translate(906.150993 311.383219)scale(0.1 -0.1)">
       <use xlink:href="#DejaVuSans-48"/>
       <use x="63.623047" xlink:href="#DejaVuSans-46"/>
       <use x="95.410156" xlink:href="#DejaVuSans-48"/>
      </g>
     </g>
    </g>
    <g id="ytick_14">
     <g id="line2d_84">
      <path clip-path="url(#p053333d4df)" d="M 929.054118 254.3616 
L 1244.16 254.3616 
" style="fill:none;stroke:#b0b0b0;stroke-dasharray:2.96,1.28;stroke-dashoffset:0;stroke-width:0.8;"/>
     </g>
     <g id="line2d_85">
      <g>
       <use style="stroke:#000000;stroke-width:0.8;" x="929.054118" xlink:href="#me0f91aec67" y="254.3616"/>
      </g>
     </g>
     <g id="text_46">
      <!-- 0.2 -->
      <g transform="translate(906.150993 258.160819)scale(0.1 -0.1)">
       <use xlink:href="#DejaVuSans-48"/>
       <use x="63.623047" xlink:href="#DejaVuSans-46"/>
       <use x="95.410156" xlink:href="#DejaVuSans-50"/>
      </g>
     </g>
    </g>
    <g id="ytick_15">
     <g id="line2d_86">
      <path clip-path="url(#p053333d4df)" d="M 929.054118 201.1392 
L 1244.16 201.1392 
" style="fill:none;stroke:#b0b0b0;stroke-dasharray:2.96,1.28;stroke-dashoffset:0;stroke-width:0.8;"/>
     </g>
     <g id="line2d_87">
      <g>
       <use style="stroke:#000000;stroke-width:0.8;" x="929.054118" xlink:href="#me0f91aec67" y="201.1392"/>
      </g>
     </g>
     <g id="text_47">
      <!-- 0.4 -->
      <g transform="translate(906.150993 204.938419)scale(0.1 -0.1)">
       <use xlink:href="#DejaVuSans-48"/>
       <use x="63.623047" xlink:href="#DejaVuSans-46"/>
       <use x="95.410156" xlink:href="#DejaVuSans-52"/>
      </g>
     </g>
    </g>
    <g id="ytick_16">
     <g id="line2d_88">
      <path clip-path="url(#p053333d4df)" d="M 929.054118 147.9168 
L 1244.16 147.9168 
" style="fill:none;stroke:#b0b0b0;stroke-dasharray:2.96,1.28;stroke-dashoffset:0;stroke-width:0.8;"/>
     </g>
     <g id="line2d_89">
      <g>
       <use style="stroke:#000000;stroke-width:0.8;" x="929.054118" xlink:href="#me0f91aec67" y="147.9168"/>
      </g>
     </g>
     <g id="text_48">
      <!-- 0.6 -->
      <g transform="translate(906.150993 151.716019)scale(0.1 -0.1)">
       <use xlink:href="#DejaVuSans-48"/>
       <use x="63.623047" xlink:href="#DejaVuSans-46"/>
       <use x="95.410156" xlink:href="#DejaVuSans-54"/>
      </g>
     </g>
    </g>
    <g id="ytick_17">
     <g id="line2d_90">
      <path clip-path="url(#p053333d4df)" d="M 929.054118 94.6944 
L 1244.16 94.6944 
" style="fill:none;stroke:#b0b0b0;stroke-dasharray:2.96,1.28;stroke-dashoffset:0;stroke-width:0.8;"/>
     </g>
     <g id="line2d_91">
      <g>
       <use style="stroke:#000000;stroke-width:0.8;" x="929.054118" xlink:href="#me0f91aec67" y="94.6944"/>
      </g>
     </g>
     <g id="text_49">
      <!-- 0.8 -->
      <g transform="translate(906.150993 98.493619)scale(0.1 -0.1)">
       <use xlink:href="#DejaVuSans-48"/>
       <use x="63.623047" xlink:href="#DejaVuSans-46"/>
       <use x="95.410156" xlink:href="#DejaVuSans-56"/>
      </g>
     </g>
    </g>
    <g id="ytick_18">
     <g id="line2d_92">
      <path clip-path="url(#p053333d4df)" d="M 929.054118 41.472 
L 1244.16 41.472 
" style="fill:none;stroke:#b0b0b0;stroke-dasharray:2.96,1.28;stroke-dashoffset:0;stroke-width:0.8;"/>
     </g>
     <g id="line2d_93">
      <g>
       <use style="stroke:#000000;stroke-width:0.8;" x="929.054118" xlink:href="#me0f91aec67" y="41.472"/>
      </g>
     </g>
     <g id="text_50">
      <!-- 1.0 -->
      <g transform="translate(906.150993 45.271219)scale(0.1 -0.1)">
       <use xlink:href="#DejaVuSans-49"/>
       <use x="63.623047" xlink:href="#DejaVuSans-46"/>
       <use x="95.410156" xlink:href="#DejaVuSans-48"/>
      </g>
     </g>
    </g>
    <g id="text_51">
     <!-- y -->
     <g transform="translate(900.071305 177.487375)rotate(-90)scale(0.1 -0.1)">
      <use xlink:href="#DejaVuSans-121"/>
     </g>
    </g>
   </g>
   <g id="line2d_94">
    <path clip-path="url(#p053333d4df)" d="M 929.054118 41.472 
L 932.205176 43.46784 
L 935.356235 45.46368 
L 938.507294 47.45952 
L 941.658353 49.45536 
L 944.809412 51.4512 
L 947.960471 53.44704 
L 951.111529 55.44288 
L 954.262588 57.43872 
L 957.413647 59.43456 
L 960.564706 61.4304 
L 963.715765 63.42624 
L 966.866824 65.42208 
L 970.017882 67.41792 
L 973.168941 69.41376 
L 976.32 71.4096 
L 979.471059 73.40544 
L 982.622118 75.40128 
L 985.773176 77.39712 
L 988.924235 79.39296 
L 992.075294 81.3888 
L 995.226353 83.38464 
L 998.377412 85.38048 
L 1001.528471 87.37632 
L 1004.679529 89.37216 
L 1007.830588 91.368 
L 1010.981647 93.36384 
L 1014.132706 95.35968 
L 1017.283765 97.35552 
L 1020.434824 99.35136 
L 1023.585882 101.3472 
L 1026.736941 103.34304 
L 1029.888 105.33888 
L 1033.039059 107.33472 
L 1036.190118 109.33056 
L 1039.341176 111.3264 
L 1042.492235 113.32224 
L 1045.643294 115.31808 
L 1048.794353 117.31392 
L 1051.945412 119.30976 
L 1055.096471 121.3056 
L 1058.247529 123.30144 
L 1061.398588 125.29728 
L 1064.549647 127.29312 
L 1067.700706 129.28896 
L 1070.851765 131.2848 
L 1074.002824 133.28064 
L 1077.153882 135.27648 
L 1080.304941 137.27232 
L 1083.456 139.26816 
L 1086.607059 141.264 
L 1089.758118 143.25984 
L 1092.909176 145.25568 
L 1096.060235 147.25152 
L 1099.211294 149.24736 
L 1102.362353 151.2432 
L 1105.513412 153.23904 
L 1108.664471 155.23488 
L 1111.815529 157.23072 
L 1114.966588 159.22656 
L 1118.117647 161.2224 
L 1121.268706 163.21824 
L 1124.419765 165.21408 
L 1127.570824 167.20992 
L 1130.721882 169.20576 
L 1133.872941 171.2016 
L 1137.024 173.19744 
L 1140.175059 175.19328 
L 1143.326118 177.18912 
L 1146.477176 179.18496 
L 1149.628235 181.1808 
L 1152.779294 183.17664 
L 1155.930353 185.17248 
L 1159.081412 187.16832 
L 1162.232471 189.16416 
L 1165.383529 191.16 
L 1168.534588 193.15584 
L 1171.685647 195.15168 
L 1174.836706 197.14752 
L 1177.987765 199.14336 
L 1181.138824 201.1392 
L 1184.289882 203.13504 
L 1187.440941 205.13088 
L 1190.592 207.12672 
L 1193.743059 209.12256 
L 1196.894118 211.1184 
L 1200.045176 213.11424 
L 1203.196235 215.11008 
L 1206.347294 217.10592 
L 1209.498353 219.10176 
L 1212.649412 221.0976 
L 1215.800471 223.09344 
L 1218.951529 225.08928 
L 1222.102588 227.08512 
L 1225.253647 229.08096 
L 1228.404706 231.0768 
L 1231.555765 233.07264 
L 1234.706824 235.06848 
L 1237.857882 237.06432 
L 1241.008941 239.06016 
L 1244.16 241.056 
" style="fill:none;stroke:#1f77b4;stroke-linecap:square;stroke-width:1.5;"/>
   </g>
   <g id="line2d_95">
    <path clip-path="url(#p053333d4df)" d="M 929.054118 307.584 
L 932.205176 305.58816 
L 935.356235 303.59232 
L 938.507294 301.59648 
L 941.658353 299.60064 
L 944.809412 297.6048 
L 947.960471 295.60896 
L 951.111529 293.61312 
L 954.262588 291.61728 
L 957.413647 289.62144 
L 960.564706 287.6256 
L 963.715765 285.62976 
L 966.866824 283.63392 
L 970.017882 281.63808 
L 973.168941 279.64224 
L 976.32 277.6464 
L 979.471059 275.65056 
L 982.622118 273.65472 
L 985.773176 271.65888 
L 988.924235 269.66304 
L 992.075294 267.6672 
L 995.226353 265.67136 
L 998.377412 263.67552 
L 1001.528471 261.67968 
L 1004.679529 259.68384 
L 1007.830588 257.688 
L 1010.981647 255.69216 
L 1014.132706 253.69632 
L 1017.283765 251.70048 
L 1020.434824 249.70464 
L 1023.585882 247.7088 
L 1026.736941 245.71296 
L 1029.888 243.71712 
L 1033.039059 241.72128 
L 1036.190118 239.72544 
L 1039.341176 237.7296 
L 1042.492235 235.73376 
L 1045.643294 233.73792 
L 1048.794353 231.74208 
L 1051.945412 229.74624 
L 1055.096471 227.7504 
L 1058.247529 225.75456 
L 1061.398588 223.75872 
L 1064.549647 221.76288 
L 1067.700706 219.76704 
L 1070.851765 217.7712 
L 1074.002824 215.77536 
L 1077.153882 213.77952 
L 1080.304941 211.78368 
L 1083.456 209.78784 
L 1086.607059 207.792 
L 1089.758118 205.79616 
L 1092.909176 203.80032 
L 1096.060235 201.80448 
L 1099.211294 199.80864 
L 1102.362353 197.8128 
L 1105.513412 195.81696 
L 1108.664471 193.82112 
L 1111.815529 191.82528 
L 1114.966588 189.82944 
L 1118.117647 187.8336 
L 1121.268706 185.83776 
L 1124.419765 183.84192 
L 1127.570824 181.84608 
L 1130.721882 179.85024 
L 1133.872941 177.8544 
L 1137.024 175.85856 
L 1140.175059 173.86272 
L 1143.326118 171.86688 
L 1146.477176 169.87104 
L 1149.628235 167.8752 
L 1152.779294 165.87936 
L 1155.930353 163.88352 
L 1159.081412 161.88768 
L 1162.232471 159.89184 
L 1165.383529 157.896 
L 1168.534588 155.90016 
L 1171.685647 153.90432 
L 1174.836706 151.90848 
L 1177.987765 149.91264 
L 1181.138824 147.9168 
L 1184.289882 145.92096 
L 1187.440941 143.92512 
L 1190.592 141.92928 
L 1193.743059 139.93344 
L 1196.894118 137.9376 
L 1200.045176 135.94176 
L 1203.196235 133.94592 
L 1206.347294 131.95008 
L 1209.498353 129.95424 
L 1212.649412 127.9584 
L 1215.800471 125.96256 
L 1218.951529 123.96672 
L 1222.102588 121.97088 
L 1225.253647 119.97504 
L 1228.404706 117.9792 
L 1231.555765 115.98336 
L 1234.706824 113.98752 
L 1237.857882 111.99168 
L 1241.008941 109.99584 
L 1244.16 108 
" style="fill:none;stroke:#ff7f0e;stroke-linecap:square;stroke-width:1.5;"/>
   </g>
   <g id="line2d_96">
    <path clip-path="url(#p053333d4df)" d="M 929.054118 241.056 
L 932.205176 241.056 
L 935.356235 241.056 
L 938.507294 241.056 
L 941.658353 241.056 
L 944.809412 241.056 
L 947.960471 241.056 
L 951.111529 241.056 
L 954.262588 241.056 
L 957.413647 241.056 
L 960.564706 241.056 
L 963.715765 241.056 
L 966.866824 241.056 
L 970.017882 241.056 
L 973.168941 241.056 
L 976.32 241.056 
L 979.471059 241.056 
L 982.622118 241.056 
L 985.773176 241.056 
L 988.924235 241.056 
L 992.075294 241.056 
L 995.226353 241.056 
L 998.377412 241.056 
L 1001.528471 241.056 
L 1004.679529 241.056 
L 1007.830588 241.056 
L 1010.981647 241.056 
L 1014.132706 241.056 
L 1017.283765 241.056 
L 1020.434824 241.056 
L 1023.585882 241.056 
L 1026.736941 241.056 
L 1029.888 241.056 
L 1033.039059 241.056 
L 1036.190118 241.056 
L 1039.341176 241.056 
L 1042.492235 241.056 
L 1045.643294 241.056 
L 1048.794353 241.056 
L 1051.945412 241.056 
L 1055.096471 241.056 
L 1058.247529 241.056 
L 1061.398588 241.056 
L 1064.549647 241.056 
L 1067.700706 241.056 
L 1070.851765 241.056 
L 1074.002824 241.056 
L 1077.153882 241.056 
L 1080.304941 241.056 
L 1083.456 241.056 
L 1086.607059 241.056 
L 1089.758118 241.056 
L 1092.909176 241.056 
L 1096.060235 241.056 
L 1099.211294 241.056 
L 1102.362353 241.056 
L 1105.513412 241.056 
L 1108.664471 241.056 
L 1111.815529 241.056 
L 1114.966588 241.056 
L 1118.117647 241.056 
L 1121.268706 241.056 
L 1124.419765 241.056 
L 1127.570824 241.056 
L 1130.721882 241.056 
L 1133.872941 241.056 
L 1137.024 241.056 
L 1140.175059 241.056 
L 1143.326118 241.056 
L 1146.477176 241.056 
L 1149.628235 241.056 
L 1152.779294 241.056 
L 1155.930353 241.056 
L 1159.081412 241.056 
L 1162.232471 241.056 
L 1165.383529 241.056 
L 1168.534588 241.056 
L 1171.685647 241.056 
L 1174.836706 241.056 
L 1177.987765 241.056 
L 1181.138824 241.056 
L 1184.289882 241.056 
L 1187.440941 241.056 
L 1190.592 241.056 
L 1193.743059 241.056 
L 1196.894118 241.056 
L 1200.045176 241.056 
L 1203.196235 241.056 
L 1206.347294 241.056 
L 1209.498353 241.056 
L 1212.649412 241.056 
L 1215.800471 241.056 
L 1218.951529 241.056 
L 1222.102588 241.056 
L 1225.253647 241.056 
L 1228.404706 241.056 
L 1231.555765 241.056 
L 1234.706824 241.056 
L 1237.857882 241.056 
L 1241.008941 241.056 
L 1244.16 241.056 
" style="fill:none;stroke:#2ca02c;stroke-dasharray:9.6,2.4,1.5,2.4;stroke-dashoffset:0;stroke-width:1.5;"/>
   </g>
   <g id="line2d_97">
    <path clip-path="url(#p053333d4df)" d="M 929.054118 108 
L 932.205176 108 
L 935.356235 108 
L 938.507294 108 
L 941.658353 108 
L 944.809412 108 
L 947.960471 108 
L 951.111529 108 
L 954.262588 108 
L 957.413647 108 
L 960.564706 108 
L 963.715765 108 
L 966.866824 108 
L 970.017882 108 
L 973.168941 108 
L 976.32 108 
L 979.471059 108 
L 982.622118 108 
L 985.773176 108 
L 988.924235 108 
L 992.075294 108 
L 995.226353 108 
L 998.377412 108 
L 1001.528471 108 
L 1004.679529 108 
L 1007.830588 108 
L 1010.981647 108 
L 1014.132706 108 
L 1017.283765 108 
L 1020.434824 108 
L 1023.585882 108 
L 1026.736941 108 
L 1029.888 108 
L 1033.039059 108 
L 1036.190118 108 
L 1039.341176 108 
L 1042.492235 108 
L 1045.643294 108 
L 1048.794353 108 
L 1051.945412 108 
L 1055.096471 108 
L 1058.247529 108 
L 1061.398588 108 
L 1064.549647 108 
L 1067.700706 108 
L 1070.851765 108 
L 1074.002824 108 
L 1077.153882 108 
L 1080.304941 108 
L 1083.456 108 
L 1086.607059 108 
L 1089.758118 108 
L 1092.909176 108 
L 1096.060235 108 
L 1099.211294 108 
L 1102.362353 108 
L 1105.513412 108 
L 1108.664471 108 
L 1111.815529 108 
L 1114.966588 108 
L 1118.117647 108 
L 1121.268706 108 
L 1124.419765 108 
L 1127.570824 108 
L 1130.721882 108 
L 1133.872941 108 
L 1137.024 108 
L 1140.175059 108 
L 1143.326118 108 
L 1146.477176 108 
L 1149.628235 108 
L 1152.779294 108 
L 1155.930353 108 
L 1159.081412 108 
L 1162.232471 108 
L 1165.383529 108 
L 1168.534588 108 
L 1171.685647 108 
L 1174.836706 108 
L 1177.987765 108 
L 1181.138824 108 
L 1184.289882 108 
L 1187.440941 108 
L 1190.592 108 
L 1193.743059 108 
L 1196.894118 108 
L 1200.045176 108 
L 1203.196235 108 
L 1206.347294 108 
L 1209.498353 108 
L 1212.649412 108 
L 1215.800471 108 
L 1218.951529 108 
L 1222.102588 108 
L 1225.253647 108 
L 1228.404706 108 
L 1231.555765 108 
L 1234.706824 108 
L 1237.857882 108 
L 1241.008941 108 
L 1244.16 108 
" style="fill:none;stroke:#d62728;stroke-dasharray:9.6,2.4,1.5,2.4;stroke-dashoffset:0;stroke-width:1.5;"/>
   </g>
   <g id="patch_15">
    <path d="M 929.054118 307.584 
L 929.054118 41.472 
" style="fill:none;stroke:#000000;stroke-linecap:square;stroke-linejoin:miter;stroke-width:0.8;"/>
   </g>
   <g id="patch_16">
    <path d="M 1244.16 307.584 
L 1244.16 41.472 
" style="fill:none;stroke:#000000;stroke-linecap:square;stroke-linejoin:miter;stroke-width:0.8;"/>
   </g>
   <g id="patch_17">
    <path d="M 929.054118 307.584 
L 1244.16 307.584 
" style="fill:none;stroke:#000000;stroke-linecap:square;stroke-linejoin:miter;stroke-width:0.8;"/>
   </g>
   <g id="patch_18">
    <path d="M 929.054118 41.472 
L 1244.16 41.472 
" style="fill:none;stroke:#000000;stroke-linecap:square;stroke-linejoin:miter;stroke-width:0.8;"/>
   </g>
   <g id="text_52">
    <!-- 0&lt;=b&lt;0.5 -->
    <g transform="translate(1054.355184 35.472)scale(0.12 -0.12)">
     <use xlink:href="#DejaVuSans-48"/>
     <use x="63.623047" xlink:href="#DejaVuSans-60"/>
     <use x="147.412109" xlink:href="#DejaVuSans-61"/>
     <use x="231.201172" xlink:href="#DejaVuSans-98"/>
     <use x="294.677734" xlink:href="#DejaVuSans-60"/>
     <use x="378.466797" xlink:href="#DejaVuSans-48"/>
     <use x="442.089844" xlink:href="#DejaVuSans-46"/>
     <use x="473.876953" xlink:href="#DejaVuSans-53"/>
    </g>
   </g>
   <g id="legend_3">
    <g id="patch_19">
     <path d="M 936.054118 205.38425 
L 998.671305 205.38425 
Q 1000.671305 205.38425 1000.671305 203.38425 
L 1000.671305 145.67175 
Q 1000.671305 143.67175 998.671305 143.67175 
L 936.054118 143.67175 
Q 934.054118 143.67175 934.054118 145.67175 
L 934.054118 203.38425 
Q 934.054118 205.38425 936.054118 205.38425 
z
" style="fill:#ffffff;opacity:0.8;stroke:#cccccc;stroke-linejoin:miter;"/>
    </g>
    <g id="line2d_98">
     <path d="M 938.054118 151.770188 
L 958.054118 151.770188 
" style="fill:none;stroke:#1f77b4;stroke-linecap:square;stroke-width:1.5;"/>
    </g>
    <g id="line2d_99"/>
    <g id="text_53">
     <!-- t -->
     <g transform="translate(966.054118 155.270188)scale(0.1 -0.1)">
      <use xlink:href="#DejaVuSans-116"/>
     </g>
    </g>
    <g id="line2d_100">
     <path d="M 938.054118 166.448313 
L 958.054118 166.448313 
" style="fill:none;stroke:#ff7f0e;stroke-linecap:square;stroke-width:1.5;"/>
    </g>
    <g id="line2d_101"/>
    <g id="text_54">
     <!-- e -->
     <g transform="translate(966.054118 169.948313)scale(0.1 -0.1)">
      <use xlink:href="#DejaVuSans-101"/>
     </g>
    </g>
    <g id="line2d_102">
     <path d="M 938.054118 181.126438 
L 958.054118 181.126438 
" style="fill:none;stroke:#2ca02c;stroke-dasharray:9.6,2.4,1.5,2.4;stroke-dashoffset:0;stroke-width:1.5;"/>
    </g>
    <g id="line2d_103"/>
    <g id="text_55">
     <!-- y=b -->
     <g transform="translate(966.054118 184.626438)scale(0.1 -0.1)">
      <use xlink:href="#DejaVuSans-121"/>
      <use x="59.179688" xlink:href="#DejaVuSans-61"/>
      <use x="142.96875" xlink:href="#DejaVuSans-98"/>
     </g>
    </g>
    <g id="line2d_104">
     <path d="M 938.054118 195.804563 
L 958.054118 195.804563 
" style="fill:none;stroke:#d62728;stroke-dasharray:9.6,2.4,1.5,2.4;stroke-dashoffset:0;stroke-width:1.5;"/>
    </g>
    <g id="line2d_105"/>
    <g id="text_56">
     <!-- y=1-b -->
     <g transform="translate(966.054118 199.304563)scale(0.1 -0.1)">
      <use xlink:href="#DejaVuSans-121"/>
      <use x="59.179688" xlink:href="#DejaVuSans-61"/>
      <use x="142.96875" xlink:href="#DejaVuSans-49"/>
      <use x="206.591797" xlink:href="#DejaVuSans-45"/>
      <use x="242.675781" xlink:href="#DejaVuSans-98"/>
     </g>
    </g>
   </g>
  </g>
 </g>
 <defs>
  <clipPath id="p5b7c54bcf3">
   <rect height="266.112" width="315.105882" x="172.8" y="41.472"/>
  </clipPath>
  <clipPath id="p738b550df2">
   <rect height="266.112" width="315.105882" x="550.927059" y="41.472"/>
  </clipPath>
  <clipPath id="p053333d4df">
   <rect height="266.112" width="315.105882" x="929.054118" y="41.472"/>
  </clipPath>
 </defs>
</svg>
