<?xml version="1.0" encoding="utf-8" standalone="no"?>
<!DOCTYPE svg PUBLIC "-//W3C//DTD SVG 1.1//EN"
  "http://www.w3.org/Graphics/SVG/1.1/DTD/svg11.dtd">
<!-- Created with matplotlib (https://matplotlib.org/) -->
<svg height="345.6pt" version="1.1" viewBox="0 0 1382.4 345.6" width="1382.4pt" xmlns="http://www.w3.org/2000/svg" xmlns:xlink="http://www.w3.org/1999/xlink">
 <defs>
  <style type="text/css">
*{stroke-linecap:butt;stroke-linejoin:round;}
  </style>
 </defs>
 <g id="figure_1">
  <g id="patch_1">
   <path d="M 0 345.6 
L 1382.4 345.6 
L 1382.4 0 
L 0 0 
z
" style="fill:#ffffff;"/>
  </g>
  <g id="axes_1">
   <g id="patch_2">
    <path d="M 69.12 307.584 
L 443.181176 307.584 
L 443.181176 41.472 
L 69.12 41.472 
z
" style="fill:#ffffff;"/>
   </g>
   <g id="matplotlib.axis_1">
    <g id="xtick_1">
     <g id="line2d_1">
      <path clip-path="url(#p4c91104094)" d="M 69.12 307.584 
L 69.12 41.472 
" style="fill:none;stroke:#b0b0b0;stroke-dasharray:2.96,1.28;stroke-dashoffset:0;stroke-width:0.8;"/>
     </g>
     <g id="line2d_2">
      <defs>
       <path d="M 0 0 
L 0 3.5 
" id="mc9ca4165d3" style="stroke:#000000;stroke-width:0.8;"/>
      </defs>
      <g>
       <use style="stroke:#000000;stroke-width:0.8;" x="69.12" xlink:href="#mc9ca4165d3" y="307.584"/>
      </g>
     </g>
     <g id="text_1">
      <!-- 0.0 -->
      <defs>
       <path d="M 31.78125 66.40625 
Q 24.171875 66.40625 20.328125 58.90625 
Q 16.5 51.421875 16.5 36.375 
Q 16.5 21.390625 20.328125 13.890625 
Q 24.171875 6.390625 31.78125 6.390625 
Q 39.453125 6.390625 43.28125 13.890625 
Q 47.125 21.390625 47.125 36.375 
Q 47.125 51.421875 43.28125 58.90625 
Q 39.453125 66.40625 31.78125 66.40625 
z
M 31.78125 74.21875 
Q 44.046875 74.21875 50.515625 64.515625 
Q 56.984375 54.828125 56.984375 36.375 
Q 56.984375 17.96875 50.515625 8.265625 
Q 44.046875 -1.421875 31.78125 -1.421875 
Q 19.53125 -1.421875 13.0625 8.265625 
Q 6.59375 17.96875 6.59375 36.375 
Q 6.59375 54.828125 13.0625 64.515625 
Q 19.53125 74.21875 31.78125 74.21875 
z
" id="DejaVuSans-48"/>
       <path d="M 10.6875 12.40625 
L 21 12.40625 
L 21 0 
L 10.6875 0 
z
" id="DejaVuSans-46"/>
      </defs>
      <g transform="translate(61.168438 322.182437)scale(0.1 -0.1)">
       <use xlink:href="#DejaVuSans-48"/>
       <use x="63.623047" xlink:href="#DejaVuSans-46"/>
       <use x="95.410156" xlink:href="#DejaVuSans-48"/>
      </g>
     </g>
    </g>
    <g id="xtick_2">
     <g id="line2d_3">
      <path clip-path="url(#p4c91104094)" d="M 143.932235 307.584 
L 143.932235 41.472 
" style="fill:none;stroke:#b0b0b0;stroke-dasharray:2.96,1.28;stroke-dashoffset:0;stroke-width:0.8;"/>
     </g>
     <g id="line2d_4">
      <g>
       <use style="stroke:#000000;stroke-width:0.8;" x="143.932235" xlink:href="#mc9ca4165d3" y="307.584"/>
      </g>
     </g>
     <g id="text_2">
      <!-- 0.2 -->
      <defs>
       <path d="M 19.1875 8.296875 
L 53.609375 8.296875 
L 53.609375 0 
L 7.328125 0 
L 7.328125 8.296875 
Q 12.9375 14.109375 22.625 23.890625 
Q 32.328125 33.6875 34.8125 36.53125 
Q 39.546875 41.84375 41.421875 45.53125 
Q 43.3125 49.21875 43.3125 52.78125 
Q 43.3125 58.59375 39.234375 62.25 
Q 35.15625 65.921875 28.609375 65.921875 
Q 23.96875 65.921875 18.8125 64.3125 
Q 13.671875 62.703125 7.8125 59.421875 
L 7.8125 69.390625 
Q 13.765625 71.78125 18.9375 73 
Q 24.125 74.21875 28.421875 74.21875 
Q 39.75 74.21875 46.484375 68.546875 
Q 53.21875 62.890625 53.21875 53.421875 
Q 53.21875 48.921875 51.53125 44.890625 
Q 49.859375 40.875 45.40625 35.40625 
Q 44.1875 33.984375 37.640625 27.21875 
Q 31.109375 20.453125 19.1875 8.296875 
z
" id="DejaVuSans-50"/>
      </defs>
      <g transform="translate(135.980673 322.182437)scale(0.1 -0.1)">
       <use xlink:href="#DejaVuSans-48"/>
       <use x="63.623047" xlink:href="#DejaVuSans-46"/>
       <use x="95.410156" xlink:href="#DejaVuSans-50"/>
      </g>
     </g>
    </g>
    <g id="xtick_3">
     <g id="line2d_5">
      <path clip-path="url(#p4c91104094)" d="M 218.744471 307.584 
L 218.744471 41.472 
" style="fill:none;stroke:#b0b0b0;stroke-dasharray:2.96,1.28;stroke-dashoffset:0;stroke-width:0.8;"/>
     </g>
     <g id="line2d_6">
      <g>
       <use style="stroke:#000000;stroke-width:0.8;" x="218.744471" xlink:href="#mc9ca4165d3" y="307.584"/>
      </g>
     </g>
     <g id="text_3">
      <!-- 0.4 -->
      <defs>
       <path d="M 37.796875 64.3125 
L 12.890625 25.390625 
L 37.796875 25.390625 
z
M 35.203125 72.90625 
L 47.609375 72.90625 
L 47.609375 25.390625 
L 58.015625 25.390625 
L 58.015625 17.1875 
L 47.609375 17.1875 
L 47.609375 0 
L 37.796875 0 
L 37.796875 17.1875 
L 4.890625 17.1875 
L 4.890625 26.703125 
z
" id="DejaVuSans-52"/>
      </defs>
      <g transform="translate(210.792908 322.182437)scale(0.1 -0.1)">
       <use xlink:href="#DejaVuSans-48"/>
       <use x="63.623047" xlink:href="#DejaVuSans-46"/>
       <use x="95.410156" xlink:href="#DejaVuSans-52"/>
      </g>
     </g>
    </g>
    <g id="xtick_4">
     <g id="line2d_7">
      <path clip-path="url(#p4c91104094)" d="M 293.556706 307.584 
L 293.556706 41.472 
" style="fill:none;stroke:#b0b0b0;stroke-dasharray:2.96,1.28;stroke-dashoffset:0;stroke-width:0.8;"/>
     </g>
     <g id="line2d_8">
      <g>
       <use style="stroke:#000000;stroke-width:0.8;" x="293.556706" xlink:href="#mc9ca4165d3" y="307.584"/>
      </g>
     </g>
     <g id="text_4">
      <!-- 0.6 -->
      <defs>
       <path d="M 33.015625 40.375 
Q 26.375 40.375 22.484375 35.828125 
Q 18.609375 31.296875 18.609375 23.390625 
Q 18.609375 15.53125 22.484375 10.953125 
Q 26.375 6.390625 33.015625 6.390625 
Q 39.65625 6.390625 43.53125 10.953125 
Q 47.40625 15.53125 47.40625 23.390625 
Q 47.40625 31.296875 43.53125 35.828125 
Q 39.65625 40.375 33.015625 40.375 
z
M 52.59375 71.296875 
L 52.59375 62.3125 
Q 48.875 64.0625 45.09375 64.984375 
Q 41.3125 65.921875 37.59375 65.921875 
Q 27.828125 65.921875 22.671875 59.328125 
Q 17.53125 52.734375 16.796875 39.40625 
Q 19.671875 43.65625 24.015625 45.921875 
Q 28.375 48.1875 33.59375 48.1875 
Q 44.578125 48.1875 50.953125 41.515625 
Q 57.328125 34.859375 57.328125 23.390625 
Q 57.328125 12.15625 50.6875 5.359375 
Q 44.046875 -1.421875 33.015625 -1.421875 
Q 20.359375 -1.421875 13.671875 8.265625 
Q 6.984375 17.96875 6.984375 36.375 
Q 6.984375 53.65625 15.1875 63.9375 
Q 23.390625 74.21875 37.203125 74.21875 
Q 40.921875 74.21875 44.703125 73.484375 
Q 48.484375 72.75 52.59375 71.296875 
z
" id="DejaVuSans-54"/>
      </defs>
      <g transform="translate(285.605143 322.182437)scale(0.1 -0.1)">
       <use xlink:href="#DejaVuSans-48"/>
       <use x="63.623047" xlink:href="#DejaVuSans-46"/>
       <use x="95.410156" xlink:href="#DejaVuSans-54"/>
      </g>
     </g>
    </g>
    <g id="xtick_5">
     <g id="line2d_9">
      <path clip-path="url(#p4c91104094)" d="M 368.368941 307.584 
L 368.368941 41.472 
" style="fill:none;stroke:#b0b0b0;stroke-dasharray:2.96,1.28;stroke-dashoffset:0;stroke-width:0.8;"/>
     </g>
     <g id="line2d_10">
      <g>
       <use style="stroke:#000000;stroke-width:0.8;" x="368.368941" xlink:href="#mc9ca4165d3" y="307.584"/>
      </g>
     </g>
     <g id="text_5">
      <!-- 0.8 -->
      <defs>
       <path d="M 31.78125 34.625 
Q 24.75 34.625 20.71875 30.859375 
Q 16.703125 27.09375 16.703125 20.515625 
Q 16.703125 13.921875 20.71875 10.15625 
Q 24.75 6.390625 31.78125 6.390625 
Q 38.8125 6.390625 42.859375 10.171875 
Q 46.921875 13.96875 46.921875 20.515625 
Q 46.921875 27.09375 42.890625 30.859375 
Q 38.875 34.625 31.78125 34.625 
z
M 21.921875 38.8125 
Q 15.578125 40.375 12.03125 44.71875 
Q 8.5 49.078125 8.5 55.328125 
Q 8.5 64.0625 14.71875 69.140625 
Q 20.953125 74.21875 31.78125 74.21875 
Q 42.671875 74.21875 48.875 69.140625 
Q 55.078125 64.0625 55.078125 55.328125 
Q 55.078125 49.078125 51.53125 44.71875 
Q 48 40.375 41.703125 38.8125 
Q 48.828125 37.15625 52.796875 32.3125 
Q 56.78125 27.484375 56.78125 20.515625 
Q 56.78125 9.90625 50.3125 4.234375 
Q 43.84375 -1.421875 31.78125 -1.421875 
Q 19.734375 -1.421875 13.25 4.234375 
Q 6.78125 9.90625 6.78125 20.515625 
Q 6.78125 27.484375 10.78125 32.3125 
Q 14.796875 37.15625 21.921875 38.8125 
z
M 18.3125 54.390625 
Q 18.3125 48.734375 21.84375 45.5625 
Q 25.390625 42.390625 31.78125 42.390625 
Q 38.140625 42.390625 41.71875 45.5625 
Q 45.3125 48.734375 45.3125 54.390625 
Q 45.3125 60.0625 41.71875 63.234375 
Q 38.140625 66.40625 31.78125 66.40625 
Q 25.390625 66.40625 21.84375 63.234375 
Q 18.3125 60.0625 18.3125 54.390625 
z
" id="DejaVuSans-56"/>
      </defs>
      <g transform="translate(360.417379 322.182437)scale(0.1 -0.1)">
       <use xlink:href="#DejaVuSans-48"/>
       <use x="63.623047" xlink:href="#DejaVuSans-46"/>
       <use x="95.410156" xlink:href="#DejaVuSans-56"/>
      </g>
     </g>
    </g>
    <g id="xtick_6">
     <g id="line2d_11">
      <path clip-path="url(#p4c91104094)" d="M 443.181176 307.584 
L 443.181176 41.472 
" style="fill:none;stroke:#b0b0b0;stroke-dasharray:2.96,1.28;stroke-dashoffset:0;stroke-width:0.8;"/>
     </g>
     <g id="line2d_12">
      <g>
       <use style="stroke:#000000;stroke-width:0.8;" x="443.181176" xlink:href="#mc9ca4165d3" y="307.584"/>
      </g>
     </g>
     <g id="text_6">
      <!-- 1.0 -->
      <defs>
       <path d="M 12.40625 8.296875 
L 28.515625 8.296875 
L 28.515625 63.921875 
L 10.984375 60.40625 
L 10.984375 69.390625 
L 28.421875 72.90625 
L 38.28125 72.90625 
L 38.28125 8.296875 
L 54.390625 8.296875 
L 54.390625 0 
L 12.40625 0 
z
" id="DejaVuSans-49"/>
      </defs>
      <g transform="translate(435.229614 322.182437)scale(0.1 -0.1)">
       <use xlink:href="#DejaVuSans-49"/>
       <use x="63.623047" xlink:href="#DejaVuSans-46"/>
       <use x="95.410156" xlink:href="#DejaVuSans-48"/>
      </g>
     </g>
    </g>
    <g id="text_7">
     <!-- a -->
     <defs>
      <path d="M 34.28125 27.484375 
Q 23.390625 27.484375 19.1875 25 
Q 14.984375 22.515625 14.984375 16.5 
Q 14.984375 11.71875 18.140625 8.90625 
Q 21.296875 6.109375 26.703125 6.109375 
Q 34.1875 6.109375 38.703125 11.40625 
Q 43.21875 16.703125 43.21875 25.484375 
L 43.21875 27.484375 
z
M 52.203125 31.203125 
L 52.203125 0 
L 43.21875 0 
L 43.21875 8.296875 
Q 40.140625 3.328125 35.546875 0.953125 
Q 30.953125 -1.421875 24.3125 -1.421875 
Q 15.921875 -1.421875 10.953125 3.296875 
Q 6 8.015625 6 15.921875 
Q 6 25.140625 12.171875 29.828125 
Q 18.359375 34.515625 30.609375 34.515625 
L 43.21875 34.515625 
L 43.21875 35.40625 
Q 43.21875 41.609375 39.140625 45 
Q 35.0625 48.390625 27.6875 48.390625 
Q 23 48.390625 18.546875 47.265625 
Q 14.109375 46.140625 10.015625 43.890625 
L 10.015625 52.203125 
Q 14.9375 54.109375 19.578125 55.046875 
Q 24.21875 56 28.609375 56 
Q 40.484375 56 46.34375 49.84375 
Q 52.203125 43.703125 52.203125 31.203125 
z
" id="DejaVuSans-97"/>
     </defs>
     <g transform="translate(253.086526 335.860562)scale(0.1 -0.1)">
      <use xlink:href="#DejaVuSans-97"/>
     </g>
    </g>
   </g>
   <g id="matplotlib.axis_2">
    <g id="ytick_1">
     <g id="line2d_13">
      <path clip-path="url(#p4c91104094)" d="M 69.12 307.584 
L 443.181176 307.584 
" style="fill:none;stroke:#b0b0b0;stroke-dasharray:2.96,1.28;stroke-dashoffset:0;stroke-width:0.8;"/>
     </g>
     <g id="line2d_14">
      <defs>
       <path d="M 0 0 
L -3.5 0 
" id="mdba43f5d69" style="stroke:#000000;stroke-width:0.8;"/>
      </defs>
      <g>
       <use style="stroke:#000000;stroke-width:0.8;" x="69.12" xlink:href="#mdba43f5d69" y="307.584"/>
      </g>
     </g>
     <g id="text_8">
      <!-- 0.0 -->
      <g transform="translate(46.216875 311.383219)scale(0.1 -0.1)">
       <use xlink:href="#DejaVuSans-48"/>
       <use x="63.623047" xlink:href="#DejaVuSans-46"/>
       <use x="95.410156" xlink:href="#DejaVuSans-48"/>
      </g>
     </g>
    </g>
    <g id="ytick_2">
     <g id="line2d_15">
      <path clip-path="url(#p4c91104094)" d="M 69.12 254.3616 
L 443.181176 254.3616 
" style="fill:none;stroke:#b0b0b0;stroke-dasharray:2.96,1.28;stroke-dashoffset:0;stroke-width:0.8;"/>
     </g>
     <g id="line2d_16">
      <g>
       <use style="stroke:#000000;stroke-width:0.8;" x="69.12" xlink:href="#mdba43f5d69" y="254.3616"/>
      </g>
     </g>
     <g id="text_9">
      <!-- 0.2 -->
      <g transform="translate(46.216875 258.160819)scale(0.1 -0.1)">
       <use xlink:href="#DejaVuSans-48"/>
       <use x="63.623047" xlink:href="#DejaVuSans-46"/>
       <use x="95.410156" xlink:href="#DejaVuSans-50"/>
      </g>
     </g>
    </g>
    <g id="ytick_3">
     <g id="line2d_17">
      <path clip-path="url(#p4c91104094)" d="M 69.12 201.1392 
L 443.181176 201.1392 
" style="fill:none;stroke:#b0b0b0;stroke-dasharray:2.96,1.28;stroke-dashoffset:0;stroke-width:0.8;"/>
     </g>
     <g id="line2d_18">
      <g>
       <use style="stroke:#000000;stroke-width:0.8;" x="69.12" xlink:href="#mdba43f5d69" y="201.1392"/>
      </g>
     </g>
     <g id="text_10">
      <!-- 0.4 -->
      <g transform="translate(46.216875 204.938419)scale(0.1 -0.1)">
       <use xlink:href="#DejaVuSans-48"/>
       <use x="63.623047" xlink:href="#DejaVuSans-46"/>
       <use x="95.410156" xlink:href="#DejaVuSans-52"/>
      </g>
     </g>
    </g>
    <g id="ytick_4">
     <g id="line2d_19">
      <path clip-path="url(#p4c91104094)" d="M 69.12 147.9168 
L 443.181176 147.9168 
" style="fill:none;stroke:#b0b0b0;stroke-dasharray:2.96,1.28;stroke-dashoffset:0;stroke-width:0.8;"/>
     </g>
     <g id="line2d_20">
      <g>
       <use style="stroke:#000000;stroke-width:0.8;" x="69.12" xlink:href="#mdba43f5d69" y="147.9168"/>
      </g>
     </g>
     <g id="text_11">
      <!-- 0.6 -->
      <g transform="translate(46.216875 151.716019)scale(0.1 -0.1)">
       <use xlink:href="#DejaVuSans-48"/>
       <use x="63.623047" xlink:href="#DejaVuSans-46"/>
       <use x="95.410156" xlink:href="#DejaVuSans-54"/>
      </g>
     </g>
    </g>
    <g id="ytick_5">
     <g id="line2d_21">
      <path clip-path="url(#p4c91104094)" d="M 69.12 94.6944 
L 443.181176 94.6944 
" style="fill:none;stroke:#b0b0b0;stroke-dasharray:2.96,1.28;stroke-dashoffset:0;stroke-width:0.8;"/>
     </g>
     <g id="line2d_22">
      <g>
       <use style="stroke:#000000;stroke-width:0.8;" x="69.12" xlink:href="#mdba43f5d69" y="94.6944"/>
      </g>
     </g>
     <g id="text_12">
      <!-- 0.8 -->
      <g transform="translate(46.216875 98.493619)scale(0.1 -0.1)">
       <use xlink:href="#DejaVuSans-48"/>
       <use x="63.623047" xlink:href="#DejaVuSans-46"/>
       <use x="95.410156" xlink:href="#DejaVuSans-56"/>
      </g>
     </g>
    </g>
    <g id="ytick_6">
     <g id="line2d_23">
      <path clip-path="url(#p4c91104094)" d="M 69.12 41.472 
L 443.181176 41.472 
" style="fill:none;stroke:#b0b0b0;stroke-dasharray:2.96,1.28;stroke-dashoffset:0;stroke-width:0.8;"/>
     </g>
     <g id="line2d_24">
      <g>
       <use style="stroke:#000000;stroke-width:0.8;" x="69.12" xlink:href="#mdba43f5d69" y="41.472"/>
      </g>
     </g>
     <g id="text_13">
      <!-- 1.0 -->
      <g transform="translate(46.216875 45.271219)scale(0.1 -0.1)">
       <use xlink:href="#DejaVuSans-49"/>
       <use x="63.623047" xlink:href="#DejaVuSans-46"/>
       <use x="95.410156" xlink:href="#DejaVuSans-48"/>
      </g>
     </g>
    </g>
    <g id="text_14">
     <!-- y -->
     <defs>
      <path d="M 32.171875 -5.078125 
Q 28.375 -14.84375 24.75 -17.8125 
Q 21.140625 -20.796875 15.09375 -20.796875 
L 7.90625 -20.796875 
L 7.90625 -13.28125 
L 13.1875 -13.28125 
Q 16.890625 -13.28125 18.9375 -11.515625 
Q 21 -9.765625 23.484375 -3.21875 
L 25.09375 0.875 
L 2.984375 54.6875 
L 12.5 54.6875 
L 29.59375 11.921875 
L 46.6875 54.6875 
L 56.203125 54.6875 
z
" id="DejaVuSans-121"/>
     </defs>
     <g transform="translate(40.137188 177.487375)rotate(-90)scale(0.1 -0.1)">
      <use xlink:href="#DejaVuSans-121"/>
     </g>
    </g>
   </g>
   <g id="line2d_25">
    <path clip-path="url(#p4c91104094)" d="M 69.12 41.472 
L 72.860612 42.13728 
L 76.601224 42.80256 
L 80.341835 43.46784 
L 84.082447 44.13312 
L 87.823059 44.7984 
L 91.563671 45.46368 
L 95.304282 46.12896 
L 99.044894 46.79424 
L 102.785506 47.45952 
L 106.526118 48.1248 
L 110.266729 48.79008 
L 114.007341 49.45536 
L 117.747953 50.12064 
L 121.488565 50.78592 
L 125.229176 51.4512 
L 128.969788 52.11648 
L 132.7104 52.78176 
L 136.451012 53.44704 
L 140.191624 54.11232 
L 143.932235 54.7776 
L 147.672847 55.44288 
L 151.413459 56.10816 
L 155.154071 56.77344 
L 158.894682 57.43872 
L 162.635294 58.104 
L 166.375906 58.76928 
L 170.116518 59.43456 
L 173.857129 60.09984 
L 177.597741 60.76512 
L 181.338353 61.4304 
L 185.078965 62.09568 
L 188.819576 62.76096 
L 192.560188 63.42624 
L 196.3008 64.09152 
L 200.041412 64.7568 
L 203.782024 65.42208 
L 207.522635 66.08736 
L 211.263247 66.75264 
L 215.003859 67.41792 
L 218.744471 68.0832 
L 222.485082 68.74848 
L 226.225694 69.41376 
L 229.966306 70.07904 
L 233.706918 70.74432 
L 237.447529 71.4096 
L 241.188141 72.07488 
L 244.928753 72.74016 
L 248.669365 73.40544 
L 252.409976 74.07072 
L 256.150588 74.736 
L 259.8912 75.40128 
L 263.631812 76.06656 
L 267.372424 76.73184 
L 271.113035 77.39712 
L 274.853647 78.0624 
L 278.594259 78.72768 
L 282.334871 79.39296 
L 286.075482 80.05824 
L 289.816094 80.72352 
L 293.556706 81.3888 
L 297.297318 82.05408 
L 301.037929 82.71936 
L 304.778541 83.38464 
L 308.519153 84.04992 
L 312.259765 84.7152 
L 316.000376 85.38048 
L 319.740988 86.04576 
L 323.4816 86.71104 
L 327.222212 87.37632 
L 330.962824 88.0416 
L 334.703435 88.70688 
L 338.444047 89.37216 
L 342.184659 90.03744 
L 345.925271 90.70272 
L 349.665882 91.368 
L 353.406494 92.03328 
L 357.147106 92.69856 
L 360.887718 93.36384 
L 364.628329 94.02912 
L 368.368941 94.6944 
L 372.109553 95.35968 
L 375.850165 96.02496 
L 379.590776 96.69024 
L 383.331388 97.35552 
L 387.072 98.0208 
L 390.812612 98.68608 
L 394.553224 99.35136 
L 398.293835 100.01664 
L 402.034447 100.68192 
L 405.775059 101.3472 
L 409.515671 102.01248 
L 413.256282 102.67776 
L 416.996894 103.34304 
L 420.737506 104.00832 
L 424.478118 104.6736 
L 428.218729 105.33888 
L 431.959341 106.00416 
L 435.699953 106.66944 
L 439.440565 107.33472 
L 443.181176 108 
" style="fill:none;stroke:#1f77b4;stroke-linecap:square;stroke-width:1.5;"/>
   </g>
   <g id="line2d_26">
    <path clip-path="url(#p4c91104094)" d="M 69.12 307.584 
L 72.860612 306.91872 
L 76.601224 306.25344 
L 80.341835 305.58816 
L 84.082447 304.92288 
L 87.823059 304.2576 
L 91.563671 303.59232 
L 95.304282 302.92704 
L 99.044894 302.26176 
L 102.785506 301.59648 
L 106.526118 300.9312 
L 110.266729 300.26592 
L 114.007341 299.60064 
L 117.747953 298.93536 
L 121.488565 298.27008 
L 125.229176 297.6048 
L 128.969788 296.93952 
L 132.7104 296.27424 
L 136.451012 295.60896 
L 140.191624 294.94368 
L 143.932235 294.2784 
L 147.672847 293.61312 
L 151.413459 292.94784 
L 155.154071 292.28256 
L 158.894682 291.61728 
L 162.635294 290.952 
L 166.375906 290.28672 
L 170.116518 289.62144 
L 173.857129 288.95616 
L 177.597741 288.29088 
L 181.338353 287.6256 
L 185.078965 286.96032 
L 188.819576 286.29504 
L 192.560188 285.62976 
L 196.3008 284.96448 
L 200.041412 284.2992 
L 203.782024 283.63392 
L 207.522635 282.96864 
L 211.263247 282.30336 
L 215.003859 281.63808 
L 218.744471 280.9728 
L 222.485082 280.30752 
L 226.225694 279.64224 
L 229.966306 278.97696 
L 233.706918 278.31168 
L 237.447529 277.6464 
L 241.188141 276.98112 
L 244.928753 276.31584 
L 248.669365 275.65056 
L 252.409976 274.98528 
L 256.150588 274.32 
L 259.8912 273.65472 
L 263.631812 272.98944 
L 267.372424 272.32416 
L 271.113035 271.65888 
L 274.853647 270.9936 
L 278.594259 270.32832 
L 282.334871 269.66304 
L 286.075482 268.99776 
L 289.816094 268.33248 
L 293.556706 267.6672 
L 297.297318 267.00192 
L 301.037929 266.33664 
L 304.778541 265.67136 
L 308.519153 265.00608 
L 312.259765 264.3408 
L 316.000376 263.67552 
L 319.740988 263.01024 
L 323.4816 262.34496 
L 327.222212 261.67968 
L 330.962824 261.0144 
L 334.703435 260.34912 
L 338.444047 259.68384 
L 342.184659 259.01856 
L 345.925271 258.35328 
L 349.665882 257.688 
L 353.406494 257.02272 
L 357.147106 256.35744 
L 360.887718 255.69216 
L 364.628329 255.02688 
L 368.368941 254.3616 
L 372.109553 253.69632 
L 375.850165 253.03104 
L 379.590776 252.36576 
L 383.331388 251.70048 
L 387.072 251.0352 
L 390.812612 250.36992 
L 394.553224 249.70464 
L 398.293835 249.03936 
L 402.034447 248.37408 
L 405.775059 247.7088 
L 409.515671 247.04352 
L 413.256282 246.37824 
L 416.996894 245.71296 
L 420.737506 245.04768 
L 424.478118 244.3824 
L 428.218729 243.71712 
L 431.959341 243.05184 
L 435.699953 242.38656 
L 439.440565 241.72128 
L 443.181176 241.056 
" style="fill:none;stroke:#ff7f0e;stroke-linecap:square;stroke-width:1.5;"/>
   </g>
   <g id="line2d_27">
    <path clip-path="url(#p4c91104094)" d="M 69.12 108 
L 72.860612 108 
L 76.601224 108 
L 80.341835 108 
L 84.082447 108 
L 87.823059 108 
L 91.563671 108 
L 95.304282 108 
L 99.044894 108 
L 102.785506 108 
L 106.526118 108 
L 110.266729 108 
L 114.007341 108 
L 117.747953 108 
L 121.488565 108 
L 125.229176 108 
L 128.969788 108 
L 132.7104 108 
L 136.451012 108 
L 140.191624 108 
L 143.932235 108 
L 147.672847 108 
L 151.413459 108 
L 155.154071 108 
L 158.894682 108 
L 162.635294 108 
L 166.375906 108 
L 170.116518 108 
L 173.857129 108 
L 177.597741 108 
L 181.338353 108 
L 185.078965 108 
L 188.819576 108 
L 192.560188 108 
L 196.3008 108 
L 200.041412 108 
L 203.782024 108 
L 207.522635 108 
L 211.263247 108 
L 215.003859 108 
L 218.744471 108 
L 222.485082 108 
L 226.225694 108 
L 229.966306 108 
L 233.706918 108 
L 237.447529 108 
L 241.188141 108 
L 244.928753 108 
L 248.669365 108 
L 252.409976 108 
L 256.150588 108 
L 259.8912 108 
L 263.631812 108 
L 267.372424 108 
L 271.113035 108 
L 274.853647 108 
L 278.594259 108 
L 282.334871 108 
L 286.075482 108 
L 289.816094 108 
L 293.556706 108 
L 297.297318 108 
L 301.037929 108 
L 304.778541 108 
L 308.519153 108 
L 312.259765 108 
L 316.000376 108 
L 319.740988 108 
L 323.4816 108 
L 327.222212 108 
L 330.962824 108 
L 334.703435 108 
L 338.444047 108 
L 342.184659 108 
L 345.925271 108 
L 349.665882 108 
L 353.406494 108 
L 357.147106 108 
L 360.887718 108 
L 364.628329 108 
L 368.368941 108 
L 372.109553 108 
L 375.850165 108 
L 379.590776 108 
L 383.331388 108 
L 387.072 108 
L 390.812612 108 
L 394.553224 108 
L 398.293835 108 
L 402.034447 108 
L 405.775059 108 
L 409.515671 108 
L 413.256282 108 
L 416.996894 108 
L 420.737506 108 
L 424.478118 108 
L 428.218729 108 
L 431.959341 108 
L 435.699953 108 
L 439.440565 108 
L 443.181176 108 
" style="fill:none;stroke:#2ca02c;stroke-dasharray:9.6,2.4,1.5,2.4;stroke-dashoffset:0;stroke-width:1.5;"/>
   </g>
   <g id="line2d_28">
    <path clip-path="url(#p4c91104094)" d="M 69.12 241.056 
L 72.860612 241.056 
L 76.601224 241.056 
L 80.341835 241.056 
L 84.082447 241.056 
L 87.823059 241.056 
L 91.563671 241.056 
L 95.304282 241.056 
L 99.044894 241.056 
L 102.785506 241.056 
L 106.526118 241.056 
L 110.266729 241.056 
L 114.007341 241.056 
L 117.747953 241.056 
L 121.488565 241.056 
L 125.229176 241.056 
L 128.969788 241.056 
L 132.7104 241.056 
L 136.451012 241.056 
L 140.191624 241.056 
L 143.932235 241.056 
L 147.672847 241.056 
L 151.413459 241.056 
L 155.154071 241.056 
L 158.894682 241.056 
L 162.635294 241.056 
L 166.375906 241.056 
L 170.116518 241.056 
L 173.857129 241.056 
L 177.597741 241.056 
L 181.338353 241.056 
L 185.078965 241.056 
L 188.819576 241.056 
L 192.560188 241.056 
L 196.3008 241.056 
L 200.041412 241.056 
L 203.782024 241.056 
L 207.522635 241.056 
L 211.263247 241.056 
L 215.003859 241.056 
L 218.744471 241.056 
L 222.485082 241.056 
L 226.225694 241.056 
L 229.966306 241.056 
L 233.706918 241.056 
L 237.447529 241.056 
L 241.188141 241.056 
L 244.928753 241.056 
L 248.669365 241.056 
L 252.409976 241.056 
L 256.150588 241.056 
L 259.8912 241.056 
L 263.631812 241.056 
L 267.372424 241.056 
L 271.113035 241.056 
L 274.853647 241.056 
L 278.594259 241.056 
L 282.334871 241.056 
L 286.075482 241.056 
L 289.816094 241.056 
L 293.556706 241.056 
L 297.297318 241.056 
L 301.037929 241.056 
L 304.778541 241.056 
L 308.519153 241.056 
L 312.259765 241.056 
L 316.000376 241.056 
L 319.740988 241.056 
L 323.4816 241.056 
L 327.222212 241.056 
L 330.962824 241.056 
L 334.703435 241.056 
L 338.444047 241.056 
L 342.184659 241.056 
L 345.925271 241.056 
L 349.665882 241.056 
L 353.406494 241.056 
L 357.147106 241.056 
L 360.887718 241.056 
L 364.628329 241.056 
L 368.368941 241.056 
L 372.109553 241.056 
L 375.850165 241.056 
L 379.590776 241.056 
L 383.331388 241.056 
L 387.072 241.056 
L 390.812612 241.056 
L 394.553224 241.056 
L 398.293835 241.056 
L 402.034447 241.056 
L 405.775059 241.056 
L 409.515671 241.056 
L 413.256282 241.056 
L 416.996894 241.056 
L 420.737506 241.056 
L 424.478118 241.056 
L 428.218729 241.056 
L 431.959341 241.056 
L 435.699953 241.056 
L 439.440565 241.056 
L 443.181176 241.056 
" style="fill:none;stroke:#d62728;stroke-dasharray:9.6,2.4,1.5,2.4;stroke-dashoffset:0;stroke-width:1.5;"/>
   </g>
   <g id="patch_3">
    <path d="M 69.12 307.584 
L 69.12 41.472 
" style="fill:none;stroke:#000000;stroke-linecap:square;stroke-linejoin:miter;stroke-width:0.8;"/>
   </g>
   <g id="patch_4">
    <path d="M 443.181176 307.584 
L 443.181176 41.472 
" style="fill:none;stroke:#000000;stroke-linecap:square;stroke-linejoin:miter;stroke-width:0.8;"/>
   </g>
   <g id="patch_5">
    <path d="M 69.12 307.584 
L 443.181176 307.584 
" style="fill:none;stroke:#000000;stroke-linecap:square;stroke-linejoin:miter;stroke-width:0.8;"/>
   </g>
   <g id="patch_6">
    <path d="M 69.12 41.472 
L 443.181176 41.472 
" style="fill:none;stroke:#000000;stroke-linecap:square;stroke-linejoin:miter;stroke-width:0.8;"/>
   </g>
   <g id="text_15">
    <!-- 0.5&lt;b&lt;=1 -->
    <defs>
     <path d="M 10.796875 72.90625 
L 49.515625 72.90625 
L 49.515625 64.59375 
L 19.828125 64.59375 
L 19.828125 46.734375 
Q 21.96875 47.46875 24.109375 47.828125 
Q 26.265625 48.1875 28.421875 48.1875 
Q 40.625 48.1875 47.75 41.5 
Q 54.890625 34.8125 54.890625 23.390625 
Q 54.890625 11.625 47.5625 5.09375 
Q 40.234375 -1.421875 26.90625 -1.421875 
Q 22.3125 -1.421875 17.546875 -0.640625 
Q 12.796875 0.140625 7.71875 1.703125 
L 7.71875 11.625 
Q 12.109375 9.234375 16.796875 8.0625 
Q 21.484375 6.890625 26.703125 6.890625 
Q 35.15625 6.890625 40.078125 11.328125 
Q 45.015625 15.765625 45.015625 23.390625 
Q 45.015625 31 40.078125 35.4375 
Q 35.15625 39.890625 26.703125 39.890625 
Q 22.75 39.890625 18.8125 39.015625 
Q 14.890625 38.140625 10.796875 36.28125 
z
" id="DejaVuSans-53"/>
     <path d="M 73.1875 49.21875 
L 22.796875 31.296875 
L 73.1875 13.484375 
L 73.1875 4.59375 
L 10.59375 27.296875 
L 10.59375 35.40625 
L 73.1875 58.109375 
z
" id="DejaVuSans-60"/>
     <path d="M 48.6875 27.296875 
Q 48.6875 37.203125 44.609375 42.84375 
Q 40.53125 48.484375 33.40625 48.484375 
Q 26.265625 48.484375 22.1875 42.84375 
Q 18.109375 37.203125 18.109375 27.296875 
Q 18.109375 17.390625 22.1875 11.75 
Q 26.265625 6.109375 33.40625 6.109375 
Q 40.53125 6.109375 44.609375 11.75 
Q 48.6875 17.390625 48.6875 27.296875 
z
M 18.109375 46.390625 
Q 20.953125 51.265625 25.265625 53.625 
Q 29.59375 56 35.59375 56 
Q 45.5625 56 51.78125 48.09375 
Q 58.015625 40.1875 58.015625 27.296875 
Q 58.015625 14.40625 51.78125 6.484375 
Q 45.5625 -1.421875 35.59375 -1.421875 
Q 29.59375 -1.421875 25.265625 0.953125 
Q 20.953125 3.328125 18.109375 8.203125 
L 18.109375 0 
L 9.078125 0 
L 9.078125 75.984375 
L 18.109375 75.984375 
z
" id="DejaVuSans-98"/>
     <path d="M 10.59375 45.40625 
L 73.1875 45.40625 
L 73.1875 37.203125 
L 10.59375 37.203125 
z
M 10.59375 25.484375 
L 73.1875 25.484375 
L 73.1875 17.1875 
L 10.59375 17.1875 
z
" id="DejaVuSans-61"/>
    </defs>
    <g transform="translate(223.898713 35.472)scale(0.12 -0.12)">
     <use xlink:href="#DejaVuSans-48"/>
     <use x="63.623047" xlink:href="#DejaVuSans-46"/>
     <use x="95.410156" xlink:href="#DejaVuSans-53"/>
     <use x="159.033203" xlink:href="#DejaVuSans-60"/>
     <use x="242.822266" xlink:href="#DejaVuSans-98"/>
     <use x="306.298828" xlink:href="#DejaVuSans-60"/>
     <use x="390.087891" xlink:href="#DejaVuSans-61"/>
     <use x="473.876953" xlink:href="#DejaVuSans-49"/>
    </g>
   </g>
   <g id="legend_1">
    <g id="patch_7">
     <path d="M 373.563989 205.38425 
L 436.181176 205.38425 
Q 438.181176 205.38425 438.181176 203.38425 
L 438.181176 145.67175 
Q 438.181176 143.67175 436.181176 143.67175 
L 373.563989 143.67175 
Q 371.563989 143.67175 371.563989 145.67175 
L 371.563989 203.38425 
Q 371.563989 205.38425 373.563989 205.38425 
z
" style="fill:#ffffff;opacity:0.8;stroke:#cccccc;stroke-linejoin:miter;"/>
    </g>
    <g id="line2d_29">
     <path d="M 375.563989 151.770188 
L 395.563989 151.770188 
" style="fill:none;stroke:#1f77b4;stroke-linecap:square;stroke-width:1.5;"/>
    </g>
    <g id="line2d_30"/>
    <g id="text_16">
     <!-- t -->
     <defs>
      <path d="M 18.3125 70.21875 
L 18.3125 54.6875 
L 36.8125 54.6875 
L 36.8125 47.703125 
L 18.3125 47.703125 
L 18.3125 18.015625 
Q 18.3125 11.328125 20.140625 9.421875 
Q 21.96875 7.515625 27.59375 7.515625 
L 36.8125 7.515625 
L 36.8125 0 
L 27.59375 0 
Q 17.1875 0 13.234375 3.875 
Q 9.28125 7.765625 9.28125 18.015625 
L 9.28125 47.703125 
L 2.6875 47.703125 
L 2.6875 54.6875 
L 9.28125 54.6875 
L 9.28125 70.21875 
z
" id="DejaVuSans-116"/>
     </defs>
     <g transform="translate(403.563989 155.270188)scale(0.1 -0.1)">
      <use xlink:href="#DejaVuSans-116"/>
     </g>
    </g>
    <g id="line2d_31">
     <path d="M 375.563989 166.448313 
L 395.563989 166.448313 
" style="fill:none;stroke:#ff7f0e;stroke-linecap:square;stroke-width:1.5;"/>
    </g>
    <g id="line2d_32"/>
    <g id="text_17">
     <!-- e -->
     <defs>
      <path d="M 56.203125 29.59375 
L 56.203125 25.203125 
L 14.890625 25.203125 
Q 15.484375 15.921875 20.484375 11.0625 
Q 25.484375 6.203125 34.421875 6.203125 
Q 39.59375 6.203125 44.453125 7.46875 
Q 49.3125 8.734375 54.109375 11.28125 
L 54.109375 2.78125 
Q 49.265625 0.734375 44.1875 -0.34375 
Q 39.109375 -1.421875 33.890625 -1.421875 
Q 20.796875 -1.421875 13.15625 6.1875 
Q 5.515625 13.8125 5.515625 26.8125 
Q 5.515625 40.234375 12.765625 48.109375 
Q 20.015625 56 32.328125 56 
Q 43.359375 56 49.78125 48.890625 
Q 56.203125 41.796875 56.203125 29.59375 
z
M 47.21875 32.234375 
Q 47.125 39.59375 43.09375 43.984375 
Q 39.0625 48.390625 32.421875 48.390625 
Q 24.90625 48.390625 20.390625 44.140625 
Q 15.875 39.890625 15.1875 32.171875 
z
" id="DejaVuSans-101"/>
     </defs>
     <g transform="translate(403.563989 169.948313)scale(0.1 -0.1)">
      <use xlink:href="#DejaVuSans-101"/>
     </g>
    </g>
    <g id="line2d_33">
     <path d="M 375.563989 181.126438 
L 395.563989 181.126438 
" style="fill:none;stroke:#2ca02c;stroke-dasharray:9.6,2.4,1.5,2.4;stroke-dashoffset:0;stroke-width:1.5;"/>
    </g>
    <g id="line2d_34"/>
    <g id="text_18">
     <!-- y=b -->
     <g transform="translate(403.563989 184.626438)scale(0.1 -0.1)">
      <use xlink:href="#DejaVuSans-121"/>
      <use x="59.179688" xlink:href="#DejaVuSans-61"/>
      <use x="142.96875" xlink:href="#DejaVuSans-98"/>
     </g>
    </g>
    <g id="line2d_35">
     <path d="M 375.563989 195.804563 
L 395.563989 195.804563 
" style="fill:none;stroke:#d62728;stroke-dasharray:9.6,2.4,1.5,2.4;stroke-dashoffset:0;stroke-width:1.5;"/>
    </g>
    <g id="line2d_36"/>
    <g id="text_19">
     <!-- y=1-b -->
     <defs>
      <path d="M 4.890625 31.390625 
L 31.203125 31.390625 
L 31.203125 23.390625 
L 4.890625 23.390625 
z
" id="DejaVuSans-45"/>
     </defs>
     <g transform="translate(403.563989 199.304563)scale(0.1 -0.1)">
      <use xlink:href="#DejaVuSans-121"/>
      <use x="59.179688" xlink:href="#DejaVuSans-61"/>
      <use x="142.96875" xlink:href="#DejaVuSans-49"/>
      <use x="206.591797" xlink:href="#DejaVuSans-45"/>
      <use x="242.675781" xlink:href="#DejaVuSans-98"/>
     </g>
    </g>
   </g>
  </g>
  <g id="axes_2">
   <g id="patch_8">
    <path d="M 517.993412 307.584 
L 892.054588 307.584 
L 892.054588 41.472 
L 517.993412 41.472 
z
" style="fill:#ffffff;"/>
   </g>
   <g id="matplotlib.axis_3">
    <g id="xtick_7">
     <g id="line2d_37">
      <path clip-path="url(#pe1a8bd39d2)" d="M 517.993412 307.584 
L 517.993412 41.472 
" style="fill:none;stroke:#b0b0b0;stroke-dasharray:2.96,1.28;stroke-dashoffset:0;stroke-width:0.8;"/>
     </g>
     <g id="line2d_38">
      <g>
       <use style="stroke:#000000;stroke-width:0.8;" x="517.993412" xlink:href="#mc9ca4165d3" y="307.584"/>
      </g>
     </g>
     <g id="text_20">
      <!-- 0.0 -->
      <g transform="translate(510.041849 322.182437)scale(0.1 -0.1)">
       <use xlink:href="#DejaVuSans-48"/>
       <use x="63.623047" xlink:href="#DejaVuSans-46"/>
       <use x="95.410156" xlink:href="#DejaVuSans-48"/>
      </g>
     </g>
    </g>
    <g id="xtick_8">
     <g id="line2d_39">
      <path clip-path="url(#pe1a8bd39d2)" d="M 592.805647 307.584 
L 592.805647 41.472 
" style="fill:none;stroke:#b0b0b0;stroke-dasharray:2.96,1.28;stroke-dashoffset:0;stroke-width:0.8;"/>
     </g>
     <g id="line2d_40">
      <g>
       <use style="stroke:#000000;stroke-width:0.8;" x="592.805647" xlink:href="#mc9ca4165d3" y="307.584"/>
      </g>
     </g>
     <g id="text_21">
      <!-- 0.2 -->
      <g transform="translate(584.854085 322.182437)scale(0.1 -0.1)">
       <use xlink:href="#DejaVuSans-48"/>
       <use x="63.623047" xlink:href="#DejaVuSans-46"/>
       <use x="95.410156" xlink:href="#DejaVuSans-50"/>
      </g>
     </g>
    </g>
    <g id="xtick_9">
     <g id="line2d_41">
      <path clip-path="url(#pe1a8bd39d2)" d="M 667.617882 307.584 
L 667.617882 41.472 
" style="fill:none;stroke:#b0b0b0;stroke-dasharray:2.96,1.28;stroke-dashoffset:0;stroke-width:0.8;"/>
     </g>
     <g id="line2d_42">
      <g>
       <use style="stroke:#000000;stroke-width:0.8;" x="667.617882" xlink:href="#mc9ca4165d3" y="307.584"/>
      </g>
     </g>
     <g id="text_22">
      <!-- 0.4 -->
      <g transform="translate(659.66632 322.182437)scale(0.1 -0.1)">
       <use xlink:href="#DejaVuSans-48"/>
       <use x="63.623047" xlink:href="#DejaVuSans-46"/>
       <use x="95.410156" xlink:href="#DejaVuSans-52"/>
      </g>
     </g>
    </g>
    <g id="xtick_10">
     <g id="line2d_43">
      <path clip-path="url(#pe1a8bd39d2)" d="M 742.430118 307.584 
L 742.430118 41.472 
" style="fill:none;stroke:#b0b0b0;stroke-dasharray:2.96,1.28;stroke-dashoffset:0;stroke-width:0.8;"/>
     </g>
     <g id="line2d_44">
      <g>
       <use style="stroke:#000000;stroke-width:0.8;" x="742.430118" xlink:href="#mc9ca4165d3" y="307.584"/>
      </g>
     </g>
     <g id="text_23">
      <!-- 0.6 -->
      <g transform="translate(734.478555 322.182437)scale(0.1 -0.1)">
       <use xlink:href="#DejaVuSans-48"/>
       <use x="63.623047" xlink:href="#DejaVuSans-46"/>
       <use x="95.410156" xlink:href="#DejaVuSans-54"/>
      </g>
     </g>
    </g>
    <g id="xtick_11">
     <g id="line2d_45">
      <path clip-path="url(#pe1a8bd39d2)" d="M 817.242353 307.584 
L 817.242353 41.472 
" style="fill:none;stroke:#b0b0b0;stroke-dasharray:2.96,1.28;stroke-dashoffset:0;stroke-width:0.8;"/>
     </g>
     <g id="line2d_46">
      <g>
       <use style="stroke:#000000;stroke-width:0.8;" x="817.242353" xlink:href="#mc9ca4165d3" y="307.584"/>
      </g>
     </g>
     <g id="text_24">
      <!-- 0.8 -->
      <g transform="translate(809.29079 322.182437)scale(0.1 -0.1)">
       <use xlink:href="#DejaVuSans-48"/>
       <use x="63.623047" xlink:href="#DejaVuSans-46"/>
       <use x="95.410156" xlink:href="#DejaVuSans-56"/>
      </g>
     </g>
    </g>
    <g id="xtick_12">
     <g id="line2d_47">
      <path clip-path="url(#pe1a8bd39d2)" d="M 892.054588 307.584 
L 892.054588 41.472 
" style="fill:none;stroke:#b0b0b0;stroke-dasharray:2.96,1.28;stroke-dashoffset:0;stroke-width:0.8;"/>
     </g>
     <g id="line2d_48">
      <g>
       <use style="stroke:#000000;stroke-width:0.8;" x="892.054588" xlink:href="#mc9ca4165d3" y="307.584"/>
      </g>
     </g>
     <g id="text_25">
      <!-- 1.0 -->
      <g transform="translate(884.103026 322.182437)scale(0.1 -0.1)">
       <use xlink:href="#DejaVuSans-49"/>
       <use x="63.623047" xlink:href="#DejaVuSans-46"/>
       <use x="95.410156" xlink:href="#DejaVuSans-48"/>
      </g>
     </g>
    </g>
    <g id="text_26">
     <!-- a -->
     <g transform="translate(701.959938 335.860562)scale(0.1 -0.1)">
      <use xlink:href="#DejaVuSans-97"/>
     </g>
    </g>
   </g>
   <g id="matplotlib.axis_4">
    <g id="ytick_7">
     <g id="line2d_49">
      <path clip-path="url(#pe1a8bd39d2)" d="M 517.993412 307.584 
L 892.054588 307.584 
" style="fill:none;stroke:#b0b0b0;stroke-dasharray:2.96,1.28;stroke-dashoffset:0;stroke-width:0.8;"/>
     </g>
     <g id="line2d_50">
      <g>
       <use style="stroke:#000000;stroke-width:0.8;" x="517.993412" xlink:href="#mdba43f5d69" y="307.584"/>
      </g>
     </g>
     <g id="text_27">
      <!-- 0.0 -->
      <g transform="translate(495.090287 311.383219)scale(0.1 -0.1)">
       <use xlink:href="#DejaVuSans-48"/>
       <use x="63.623047" xlink:href="#DejaVuSans-46"/>
       <use x="95.410156" xlink:href="#DejaVuSans-48"/>
      </g>
     </g>
    </g>
    <g id="ytick_8">
     <g id="line2d_51">
      <path clip-path="url(#pe1a8bd39d2)" d="M 517.993412 254.3616 
L 892.054588 254.3616 
" style="fill:none;stroke:#b0b0b0;stroke-dasharray:2.96,1.28;stroke-dashoffset:0;stroke-width:0.8;"/>
     </g>
     <g id="line2d_52">
      <g>
       <use style="stroke:#000000;stroke-width:0.8;" x="517.993412" xlink:href="#mdba43f5d69" y="254.3616"/>
      </g>
     </g>
     <g id="text_28">
      <!-- 0.2 -->
      <g transform="translate(495.090287 258.160819)scale(0.1 -0.1)">
       <use xlink:href="#DejaVuSans-48"/>
       <use x="63.623047" xlink:href="#DejaVuSans-46"/>
       <use x="95.410156" xlink:href="#DejaVuSans-50"/>
      </g>
     </g>
    </g>
    <g id="ytick_9">
     <g id="line2d_53">
      <path clip-path="url(#pe1a8bd39d2)" d="M 517.993412 201.1392 
L 892.054588 201.1392 
" style="fill:none;stroke:#b0b0b0;stroke-dasharray:2.96,1.28;stroke-dashoffset:0;stroke-width:0.8;"/>
     </g>
     <g id="line2d_54">
      <g>
       <use style="stroke:#000000;stroke-width:0.8;" x="517.993412" xlink:href="#mdba43f5d69" y="201.1392"/>
      </g>
     </g>
     <g id="text_29">
      <!-- 0.4 -->
      <g transform="translate(495.090287 204.938419)scale(0.1 -0.1)">
       <use xlink:href="#DejaVuSans-48"/>
       <use x="63.623047" xlink:href="#DejaVuSans-46"/>
       <use x="95.410156" xlink:href="#DejaVuSans-52"/>
      </g>
     </g>
    </g>
    <g id="ytick_10">
     <g id="line2d_55">
      <path clip-path="url(#pe1a8bd39d2)" d="M 517.993412 147.9168 
L 892.054588 147.9168 
" style="fill:none;stroke:#b0b0b0;stroke-dasharray:2.96,1.28;stroke-dashoffset:0;stroke-width:0.8;"/>
     </g>
     <g id="line2d_56">
      <g>
       <use style="stroke:#000000;stroke-width:0.8;" x="517.993412" xlink:href="#mdba43f5d69" y="147.9168"/>
      </g>
     </g>
     <g id="text_30">
      <!-- 0.6 -->
      <g transform="translate(495.090287 151.716019)scale(0.1 -0.1)">
       <use xlink:href="#DejaVuSans-48"/>
       <use x="63.623047" xlink:href="#DejaVuSans-46"/>
       <use x="95.410156" xlink:href="#DejaVuSans-54"/>
      </g>
     </g>
    </g>
    <g id="ytick_11">
     <g id="line2d_57">
      <path clip-path="url(#pe1a8bd39d2)" d="M 517.993412 94.6944 
L 892.054588 94.6944 
" style="fill:none;stroke:#b0b0b0;stroke-dasharray:2.96,1.28;stroke-dashoffset:0;stroke-width:0.8;"/>
     </g>
     <g id="line2d_58">
      <g>
       <use style="stroke:#000000;stroke-width:0.8;" x="517.993412" xlink:href="#mdba43f5d69" y="94.6944"/>
      </g>
     </g>
     <g id="text_31">
      <!-- 0.8 -->
      <g transform="translate(495.090287 98.493619)scale(0.1 -0.1)">
       <use xlink:href="#DejaVuSans-48"/>
       <use x="63.623047" xlink:href="#DejaVuSans-46"/>
       <use x="95.410156" xlink:href="#DejaVuSans-56"/>
      </g>
     </g>
    </g>
    <g id="ytick_12">
     <g id="line2d_59">
      <path clip-path="url(#pe1a8bd39d2)" d="M 517.993412 41.472 
L 892.054588 41.472 
" style="fill:none;stroke:#b0b0b0;stroke-dasharray:2.96,1.28;stroke-dashoffset:0;stroke-width:0.8;"/>
     </g>
     <g id="line2d_60">
      <g>
       <use style="stroke:#000000;stroke-width:0.8;" x="517.993412" xlink:href="#mdba43f5d69" y="41.472"/>
      </g>
     </g>
     <g id="text_32">
      <!-- 1.0 -->
      <g transform="translate(495.090287 45.271219)scale(0.1 -0.1)">
       <use xlink:href="#DejaVuSans-49"/>
       <use x="63.623047" xlink:href="#DejaVuSans-46"/>
       <use x="95.410156" xlink:href="#DejaVuSans-48"/>
      </g>
     </g>
    </g>
    <g id="text_33">
     <!-- y -->
     <g transform="translate(489.010599 177.487375)rotate(-90)scale(0.1 -0.1)">
      <use xlink:href="#DejaVuSans-121"/>
     </g>
    </g>
   </g>
   <g id="line2d_61">
    <path clip-path="url(#pe1a8bd39d2)" d="M 517.993412 41.472 
L 521.734024 42.80256 
L 525.474635 44.13312 
L 529.215247 45.46368 
L 532.955859 46.79424 
L 536.696471 48.1248 
L 540.437082 49.45536 
L 544.177694 50.78592 
L 547.918306 52.11648 
L 551.658918 53.44704 
L 555.399529 54.7776 
L 559.140141 56.10816 
L 562.880753 57.43872 
L 566.621365 58.76928 
L 570.361976 60.09984 
L 574.102588 61.4304 
L 577.8432 62.76096 
L 581.583812 64.09152 
L 585.324424 65.42208 
L 589.065035 66.75264 
L 592.805647 68.0832 
L 596.546259 69.41376 
L 600.286871 70.74432 
L 604.027482 72.07488 
L 607.768094 73.40544 
L 611.508706 74.736 
L 615.249318 76.06656 
L 618.989929 77.39712 
L 622.730541 78.72768 
L 626.471153 80.05824 
L 630.211765 81.3888 
L 633.952376 82.71936 
L 637.692988 84.04992 
L 641.4336 85.38048 
L 645.174212 86.71104 
L 648.914824 88.0416 
L 652.655435 89.37216 
L 656.396047 90.70272 
L 660.136659 92.03328 
L 663.877271 93.36384 
L 667.617882 94.6944 
L 671.358494 96.02496 
L 675.099106 97.35552 
L 678.839718 98.68608 
L 682.580329 100.01664 
L 686.320941 101.3472 
L 690.061553 102.67776 
L 693.802165 104.00832 
L 697.542776 105.33888 
L 701.283388 106.66944 
L 705.024 108 
L 708.764612 109.33056 
L 712.505224 110.66112 
L 716.245835 111.99168 
L 719.986447 113.32224 
L 723.727059 114.6528 
L 727.467671 115.98336 
L 731.208282 117.31392 
L 734.948894 118.64448 
L 738.689506 119.97504 
L 742.430118 121.3056 
L 746.170729 122.63616 
L 749.911341 123.96672 
L 753.651953 125.29728 
L 757.392565 126.62784 
L 761.133176 127.9584 
L 764.873788 129.28896 
L 768.6144 130.61952 
L 772.355012 131.95008 
L 776.095624 133.28064 
L 779.836235 134.6112 
L 783.576847 135.94176 
L 787.317459 137.27232 
L 791.058071 138.60288 
L 794.798682 139.93344 
L 798.539294 141.264 
L 802.279906 142.59456 
L 806.020518 143.92512 
L 809.761129 145.25568 
L 813.501741 146.58624 
L 817.242353 147.9168 
L 820.982965 149.24736 
L 824.723576 150.57792 
L 828.464188 151.90848 
L 832.2048 153.23904 
L 835.945412 154.5696 
L 839.686024 155.90016 
L 843.426635 157.23072 
L 847.167247 158.56128 
L 850.907859 159.89184 
L 854.648471 161.2224 
L 858.389082 162.55296 
L 862.129694 163.88352 
L 865.870306 165.21408 
L 869.610918 166.54464 
L 873.351529 167.8752 
L 877.092141 169.20576 
L 880.832753 170.53632 
L 884.573365 171.86688 
L 888.313976 173.19744 
L 892.054588 174.528 
" style="fill:none;stroke:#1f77b4;stroke-linecap:square;stroke-width:1.5;"/>
   </g>
   <g id="line2d_62">
    <path clip-path="url(#pe1a8bd39d2)" d="M 517.993412 307.584 
L 521.734024 306.25344 
L 525.474635 304.92288 
L 529.215247 303.59232 
L 532.955859 302.26176 
L 536.696471 300.9312 
L 540.437082 299.60064 
L 544.177694 298.27008 
L 547.918306 296.93952 
L 551.658918 295.60896 
L 555.399529 294.2784 
L 559.140141 292.94784 
L 562.880753 291.61728 
L 566.621365 290.28672 
L 570.361976 288.95616 
L 574.102588 287.6256 
L 577.8432 286.29504 
L 581.583812 284.96448 
L 585.324424 283.63392 
L 589.065035 282.30336 
L 592.805647 280.9728 
L 596.546259 279.64224 
L 600.286871 278.31168 
L 604.027482 276.98112 
L 607.768094 275.65056 
L 611.508706 274.32 
L 615.249318 272.98944 
L 618.989929 271.65888 
L 622.730541 270.32832 
L 626.471153 268.99776 
L 630.211765 267.6672 
L 633.952376 266.33664 
L 637.692988 265.00608 
L 641.4336 263.67552 
L 645.174212 262.34496 
L 648.914824 261.0144 
L 652.655435 259.68384 
L 656.396047 258.35328 
L 660.136659 257.02272 
L 663.877271 255.69216 
L 667.617882 254.3616 
L 671.358494 253.03104 
L 675.099106 251.70048 
L 678.839718 250.36992 
L 682.580329 249.03936 
L 686.320941 247.7088 
L 690.061553 246.37824 
L 693.802165 245.04768 
L 697.542776 243.71712 
L 701.283388 242.38656 
L 705.024 241.056 
L 708.764612 239.72544 
L 712.505224 238.39488 
L 716.245835 237.06432 
L 719.986447 235.73376 
L 723.727059 234.4032 
L 727.467671 233.07264 
L 731.208282 231.74208 
L 734.948894 230.41152 
L 738.689506 229.08096 
L 742.430118 227.7504 
L 746.170729 226.41984 
L 749.911341 225.08928 
L 753.651953 223.75872 
L 757.392565 222.42816 
L 761.133176 221.0976 
L 764.873788 219.76704 
L 768.6144 218.43648 
L 772.355012 217.10592 
L 776.095624 215.77536 
L 779.836235 214.4448 
L 783.576847 213.11424 
L 787.317459 211.78368 
L 791.058071 210.45312 
L 794.798682 209.12256 
L 798.539294 207.792 
L 802.279906 206.46144 
L 806.020518 205.13088 
L 809.761129 203.80032 
L 813.501741 202.46976 
L 817.242353 201.1392 
L 820.982965 199.80864 
L 824.723576 198.47808 
L 828.464188 197.14752 
L 832.2048 195.81696 
L 835.945412 194.4864 
L 839.686024 193.15584 
L 843.426635 191.82528 
L 847.167247 190.49472 
L 850.907859 189.16416 
L 854.648471 187.8336 
L 858.389082 186.50304 
L 862.129694 185.17248 
L 865.870306 183.84192 
L 869.610918 182.51136 
L 873.351529 181.1808 
L 877.092141 179.85024 
L 880.832753 178.51968 
L 884.573365 177.18912 
L 888.313976 175.85856 
L 892.054588 174.528 
" style="fill:none;stroke:#ff7f0e;stroke-linecap:square;stroke-width:1.5;"/>
   </g>
   <g id="line2d_63">
    <path clip-path="url(#pe1a8bd39d2)" d="M 517.993412 174.528 
L 521.734024 174.528 
L 525.474635 174.528 
L 529.215247 174.528 
L 532.955859 174.528 
L 536.696471 174.528 
L 540.437082 174.528 
L 544.177694 174.528 
L 547.918306 174.528 
L 551.658918 174.528 
L 555.399529 174.528 
L 559.140141 174.528 
L 562.880753 174.528 
L 566.621365 174.528 
L 570.361976 174.528 
L 574.102588 174.528 
L 577.8432 174.528 
L 581.583812 174.528 
L 585.324424 174.528 
L 589.065035 174.528 
L 592.805647 174.528 
L 596.546259 174.528 
L 600.286871 174.528 
L 604.027482 174.528 
L 607.768094 174.528 
L 611.508706 174.528 
L 615.249318 174.528 
L 618.989929 174.528 
L 622.730541 174.528 
L 626.471153 174.528 
L 630.211765 174.528 
L 633.952376 174.528 
L 637.692988 174.528 
L 641.4336 174.528 
L 645.174212 174.528 
L 648.914824 174.528 
L 652.655435 174.528 
L 656.396047 174.528 
L 660.136659 174.528 
L 663.877271 174.528 
L 667.617882 174.528 
L 671.358494 174.528 
L 675.099106 174.528 
L 678.839718 174.528 
L 682.580329 174.528 
L 686.320941 174.528 
L 690.061553 174.528 
L 693.802165 174.528 
L 697.542776 174.528 
L 701.283388 174.528 
L 705.024 174.528 
L 708.764612 174.528 
L 712.505224 174.528 
L 716.245835 174.528 
L 719.986447 174.528 
L 723.727059 174.528 
L 727.467671 174.528 
L 731.208282 174.528 
L 734.948894 174.528 
L 738.689506 174.528 
L 742.430118 174.528 
L 746.170729 174.528 
L 749.911341 174.528 
L 753.651953 174.528 
L 757.392565 174.528 
L 761.133176 174.528 
L 764.873788 174.528 
L 768.6144 174.528 
L 772.355012 174.528 
L 776.095624 174.528 
L 779.836235 174.528 
L 783.576847 174.528 
L 787.317459 174.528 
L 791.058071 174.528 
L 794.798682 174.528 
L 798.539294 174.528 
L 802.279906 174.528 
L 806.020518 174.528 
L 809.761129 174.528 
L 813.501741 174.528 
L 817.242353 174.528 
L 820.982965 174.528 
L 824.723576 174.528 
L 828.464188 174.528 
L 832.2048 174.528 
L 835.945412 174.528 
L 839.686024 174.528 
L 843.426635 174.528 
L 847.167247 174.528 
L 850.907859 174.528 
L 854.648471 174.528 
L 858.389082 174.528 
L 862.129694 174.528 
L 865.870306 174.528 
L 869.610918 174.528 
L 873.351529 174.528 
L 877.092141 174.528 
L 880.832753 174.528 
L 884.573365 174.528 
L 888.313976 174.528 
L 892.054588 174.528 
" style="fill:none;stroke:#2ca02c;stroke-dasharray:9.6,2.4,1.5,2.4;stroke-dashoffset:0;stroke-width:1.5;"/>
   </g>
   <g id="patch_9">
    <path d="M 517.993412 307.584 
L 517.993412 41.472 
" style="fill:none;stroke:#000000;stroke-linecap:square;stroke-linejoin:miter;stroke-width:0.8;"/>
   </g>
   <g id="patch_10">
    <path d="M 892.054588 307.584 
L 892.054588 41.472 
" style="fill:none;stroke:#000000;stroke-linecap:square;stroke-linejoin:miter;stroke-width:0.8;"/>
   </g>
   <g id="patch_11">
    <path d="M 517.993412 307.584 
L 892.054588 307.584 
" style="fill:none;stroke:#000000;stroke-linecap:square;stroke-linejoin:miter;stroke-width:0.8;"/>
   </g>
   <g id="patch_12">
    <path d="M 517.993412 41.472 
L 892.054588 41.472 
" style="fill:none;stroke:#000000;stroke-linecap:square;stroke-linejoin:miter;stroke-width:0.8;"/>
   </g>
   <g id="text_34">
    <!-- b=0.5 -->
    <g transform="translate(686.64525 35.472)scale(0.12 -0.12)">
     <use xlink:href="#DejaVuSans-98"/>
     <use x="63.476562" xlink:href="#DejaVuSans-61"/>
     <use x="147.265625" xlink:href="#DejaVuSans-48"/>
     <use x="210.888672" xlink:href="#DejaVuSans-46"/>
     <use x="242.675781" xlink:href="#DejaVuSans-53"/>
    </g>
   </g>
   <g id="legend_2">
    <g id="patch_13">
     <path d="M 822.423338 93.506375 
L 885.054588 93.506375 
Q 887.054588 93.506375 887.054588 91.506375 
L 887.054588 48.472 
Q 887.054588 46.472 885.054588 46.472 
L 822.423338 46.472 
Q 820.423338 46.472 820.423338 48.472 
L 820.423338 91.506375 
Q 820.423338 93.506375 822.423338 93.506375 
z
" style="fill:#ffffff;opacity:0.8;stroke:#cccccc;stroke-linejoin:miter;"/>
    </g>
    <g id="line2d_64">
     <path d="M 824.423338 54.570438 
L 844.423338 54.570438 
" style="fill:none;stroke:#1f77b4;stroke-linecap:square;stroke-width:1.5;"/>
    </g>
    <g id="line2d_65"/>
    <g id="text_35">
     <!-- t -->
     <g transform="translate(852.423338 58.070438)scale(0.1 -0.1)">
      <use xlink:href="#DejaVuSans-116"/>
     </g>
    </g>
    <g id="line2d_66">
     <path d="M 824.423338 69.248563 
L 844.423338 69.248563 
" style="fill:none;stroke:#ff7f0e;stroke-linecap:square;stroke-width:1.5;"/>
    </g>
    <g id="line2d_67"/>
    <g id="text_36">
     <!-- e -->
     <g transform="translate(852.423338 72.748563)scale(0.1 -0.1)">
      <use xlink:href="#DejaVuSans-101"/>
     </g>
    </g>
    <g id="line2d_68">
     <path d="M 824.423338 83.926688 
L 844.423338 83.926688 
" style="fill:none;stroke:#2ca02c;stroke-dasharray:9.6,2.4,1.5,2.4;stroke-dashoffset:0;stroke-width:1.5;"/>
    </g>
    <g id="line2d_69"/>
    <g id="text_37">
     <!-- b=0.5 -->
     <g transform="translate(852.423338 87.426688)scale(0.1 -0.1)">
      <use xlink:href="#DejaVuSans-98"/>
      <use x="63.476562" xlink:href="#DejaVuSans-61"/>
      <use x="147.265625" xlink:href="#DejaVuSans-48"/>
      <use x="210.888672" xlink:href="#DejaVuSans-46"/>
      <use x="242.675781" xlink:href="#DejaVuSans-53"/>
     </g>
    </g>
   </g>
  </g>
  <g id="axes_3">
   <g id="patch_14">
    <path d="M 966.866824 307.584 
L 1340.928 307.584 
L 1340.928 41.472 
L 966.866824 41.472 
z
" style="fill:#ffffff;"/>
   </g>
   <g id="matplotlib.axis_5">
    <g id="xtick_13">
     <g id="line2d_70">
      <path clip-path="url(#p2a812b7781)" d="M 966.866824 307.584 
L 966.866824 41.472 
" style="fill:none;stroke:#b0b0b0;stroke-dasharray:2.96,1.28;stroke-dashoffset:0;stroke-width:0.8;"/>
     </g>
     <g id="line2d_71">
      <g>
       <use style="stroke:#000000;stroke-width:0.8;" x="966.866824" xlink:href="#mc9ca4165d3" y="307.584"/>
      </g>
     </g>
     <g id="text_38">
      <!-- 0.0 -->
      <g transform="translate(958.915261 322.182437)scale(0.1 -0.1)">
       <use xlink:href="#DejaVuSans-48"/>
       <use x="63.623047" xlink:href="#DejaVuSans-46"/>
       <use x="95.410156" xlink:href="#DejaVuSans-48"/>
      </g>
     </g>
    </g>
    <g id="xtick_14">
     <g id="line2d_72">
      <path clip-path="url(#p2a812b7781)" d="M 1041.679059 307.584 
L 1041.679059 41.472 
" style="fill:none;stroke:#b0b0b0;stroke-dasharray:2.96,1.28;stroke-dashoffset:0;stroke-width:0.8;"/>
     </g>
     <g id="line2d_73">
      <g>
       <use style="stroke:#000000;stroke-width:0.8;" x="1041.679059" xlink:href="#mc9ca4165d3" y="307.584"/>
      </g>
     </g>
     <g id="text_39">
      <!-- 0.2 -->
      <g transform="translate(1033.727496 322.182437)scale(0.1 -0.1)">
       <use xlink:href="#DejaVuSans-48"/>
       <use x="63.623047" xlink:href="#DejaVuSans-46"/>
       <use x="95.410156" xlink:href="#DejaVuSans-50"/>
      </g>
     </g>
    </g>
    <g id="xtick_15">
     <g id="line2d_74">
      <path clip-path="url(#p2a812b7781)" d="M 1116.491294 307.584 
L 1116.491294 41.472 
" style="fill:none;stroke:#b0b0b0;stroke-dasharray:2.96,1.28;stroke-dashoffset:0;stroke-width:0.8;"/>
     </g>
     <g id="line2d_75">
      <g>
       <use style="stroke:#000000;stroke-width:0.8;" x="1116.491294" xlink:href="#mc9ca4165d3" y="307.584"/>
      </g>
     </g>
     <g id="text_40">
      <!-- 0.4 -->
      <g transform="translate(1108.539732 322.182437)scale(0.1 -0.1)">
       <use xlink:href="#DejaVuSans-48"/>
       <use x="63.623047" xlink:href="#DejaVuSans-46"/>
       <use x="95.410156" xlink:href="#DejaVuSans-52"/>
      </g>
     </g>
    </g>
    <g id="xtick_16">
     <g id="line2d_76">
      <path clip-path="url(#p2a812b7781)" d="M 1191.303529 307.584 
L 1191.303529 41.472 
" style="fill:none;stroke:#b0b0b0;stroke-dasharray:2.96,1.28;stroke-dashoffset:0;stroke-width:0.8;"/>
     </g>
     <g id="line2d_77">
      <g>
       <use style="stroke:#000000;stroke-width:0.8;" x="1191.303529" xlink:href="#mc9ca4165d3" y="307.584"/>
      </g>
     </g>
     <g id="text_41">
      <!-- 0.6 -->
      <g transform="translate(1183.351967 322.182437)scale(0.1 -0.1)">
       <use xlink:href="#DejaVuSans-48"/>
       <use x="63.623047" xlink:href="#DejaVuSans-46"/>
       <use x="95.410156" xlink:href="#DejaVuSans-54"/>
      </g>
     </g>
    </g>
    <g id="xtick_17">
     <g id="line2d_78">
      <path clip-path="url(#p2a812b7781)" d="M 1266.115765 307.584 
L 1266.115765 41.472 
" style="fill:none;stroke:#b0b0b0;stroke-dasharray:2.96,1.28;stroke-dashoffset:0;stroke-width:0.8;"/>
     </g>
     <g id="line2d_79">
      <g>
       <use style="stroke:#000000;stroke-width:0.8;" x="1266.115765" xlink:href="#mc9ca4165d3" y="307.584"/>
      </g>
     </g>
     <g id="text_42">
      <!-- 0.8 -->
      <g transform="translate(1258.164202 322.182437)scale(0.1 -0.1)">
       <use xlink:href="#DejaVuSans-48"/>
       <use x="63.623047" xlink:href="#DejaVuSans-46"/>
       <use x="95.410156" xlink:href="#DejaVuSans-56"/>
      </g>
     </g>
    </g>
    <g id="xtick_18">
     <g id="line2d_80">
      <path clip-path="url(#p2a812b7781)" d="M 1340.928 307.584 
L 1340.928 41.472 
" style="fill:none;stroke:#b0b0b0;stroke-dasharray:2.96,1.28;stroke-dashoffset:0;stroke-width:0.8;"/>
     </g>
     <g id="line2d_81">
      <g>
       <use style="stroke:#000000;stroke-width:0.8;" x="1340.928" xlink:href="#mc9ca4165d3" y="307.584"/>
      </g>
     </g>
     <g id="text_43">
      <!-- 1.0 -->
      <g transform="translate(1332.976438 322.182437)scale(0.1 -0.1)">
       <use xlink:href="#DejaVuSans-49"/>
       <use x="63.623047" xlink:href="#DejaVuSans-46"/>
       <use x="95.410156" xlink:href="#DejaVuSans-48"/>
      </g>
     </g>
    </g>
    <g id="text_44">
     <!-- a -->
     <g transform="translate(1150.833349 335.860562)scale(0.1 -0.1)">
      <use xlink:href="#DejaVuSans-97"/>
     </g>
    </g>
   </g>
   <g id="matplotlib.axis_6">
    <g id="ytick_13">
     <g id="line2d_82">
      <path clip-path="url(#p2a812b7781)" d="M 966.866824 307.584 
L 1340.928 307.584 
" style="fill:none;stroke:#b0b0b0;stroke-dasharray:2.96,1.28;stroke-dashoffset:0;stroke-width:0.8;"/>
     </g>
     <g id="line2d_83">
      <g>
       <use style="stroke:#000000;stroke-width:0.8;" x="966.866824" xlink:href="#mdba43f5d69" y="307.584"/>
      </g>
     </g>
     <g id="text_45">
      <!-- 0.0 -->
      <g transform="translate(943.963699 311.383219)scale(0.1 -0.1)">
       <use xlink:href="#DejaVuSans-48"/>
       <use x="63.623047" xlink:href="#DejaVuSans-46"/>
       <use x="95.410156" xlink:href="#DejaVuSans-48"/>
      </g>
     </g>
    </g>
    <g id="ytick_14">
     <g id="line2d_84">
      <path clip-path="url(#p2a812b7781)" d="M 966.866824 254.3616 
L 1340.928 254.3616 
" style="fill:none;stroke:#b0b0b0;stroke-dasharray:2.96,1.28;stroke-dashoffset:0;stroke-width:0.8;"/>
     </g>
     <g id="line2d_85">
      <g>
       <use style="stroke:#000000;stroke-width:0.8;" x="966.866824" xlink:href="#mdba43f5d69" y="254.3616"/>
      </g>
     </g>
     <g id="text_46">
      <!-- 0.2 -->
      <g transform="translate(943.963699 258.160819)scale(0.1 -0.1)">
       <use xlink:href="#DejaVuSans-48"/>
       <use x="63.623047" xlink:href="#DejaVuSans-46"/>
       <use x="95.410156" xlink:href="#DejaVuSans-50"/>
      </g>
     </g>
    </g>
    <g id="ytick_15">
     <g id="line2d_86">
      <path clip-path="url(#p2a812b7781)" d="M 966.866824 201.1392 
L 1340.928 201.1392 
" style="fill:none;stroke:#b0b0b0;stroke-dasharray:2.96,1.28;stroke-dashoffset:0;stroke-width:0.8;"/>
     </g>
     <g id="line2d_87">
      <g>
       <use style="stroke:#000000;stroke-width:0.8;" x="966.866824" xlink:href="#mdba43f5d69" y="201.1392"/>
      </g>
     </g>
     <g id="text_47">
      <!-- 0.4 -->
      <g transform="translate(943.963699 204.938419)scale(0.1 -0.1)">
       <use xlink:href="#DejaVuSans-48"/>
       <use x="63.623047" xlink:href="#DejaVuSans-46"/>
       <use x="95.410156" xlink:href="#DejaVuSans-52"/>
      </g>
     </g>
    </g>
    <g id="ytick_16">
     <g id="line2d_88">
      <path clip-path="url(#p2a812b7781)" d="M 966.866824 147.9168 
L 1340.928 147.9168 
" style="fill:none;stroke:#b0b0b0;stroke-dasharray:2.96,1.28;stroke-dashoffset:0;stroke-width:0.8;"/>
     </g>
     <g id="line2d_89">
      <g>
       <use style="stroke:#000000;stroke-width:0.8;" x="966.866824" xlink:href="#mdba43f5d69" y="147.9168"/>
      </g>
     </g>
     <g id="text_48">
      <!-- 0.6 -->
      <g transform="translate(943.963699 151.716019)scale(0.1 -0.1)">
       <use xlink:href="#DejaVuSans-48"/>
       <use x="63.623047" xlink:href="#DejaVuSans-46"/>
       <use x="95.410156" xlink:href="#DejaVuSans-54"/>
      </g>
     </g>
    </g>
    <g id="ytick_17">
     <g id="line2d_90">
      <path clip-path="url(#p2a812b7781)" d="M 966.866824 94.6944 
L 1340.928 94.6944 
" style="fill:none;stroke:#b0b0b0;stroke-dasharray:2.96,1.28;stroke-dashoffset:0;stroke-width:0.8;"/>
     </g>
     <g id="line2d_91">
      <g>
       <use style="stroke:#000000;stroke-width:0.8;" x="966.866824" xlink:href="#mdba43f5d69" y="94.6944"/>
      </g>
     </g>
     <g id="text_49">
      <!-- 0.8 -->
      <g transform="translate(943.963699 98.493619)scale(0.1 -0.1)">
       <use xlink:href="#DejaVuSans-48"/>
       <use x="63.623047" xlink:href="#DejaVuSans-46"/>
       <use x="95.410156" xlink:href="#DejaVuSans-56"/>
      </g>
     </g>
    </g>
    <g id="ytick_18">
     <g id="line2d_92">
      <path clip-path="url(#p2a812b7781)" d="M 966.866824 41.472 
L 1340.928 41.472 
" style="fill:none;stroke:#b0b0b0;stroke-dasharray:2.96,1.28;stroke-dashoffset:0;stroke-width:0.8;"/>
     </g>
     <g id="line2d_93">
      <g>
       <use style="stroke:#000000;stroke-width:0.8;" x="966.866824" xlink:href="#mdba43f5d69" y="41.472"/>
      </g>
     </g>
     <g id="text_50">
      <!-- 1.0 -->
      <g transform="translate(943.963699 45.271219)scale(0.1 -0.1)">
       <use xlink:href="#DejaVuSans-49"/>
       <use x="63.623047" xlink:href="#DejaVuSans-46"/>
       <use x="95.410156" xlink:href="#DejaVuSans-48"/>
      </g>
     </g>
    </g>
    <g id="text_51">
     <!-- y -->
     <g transform="translate(937.884011 177.487375)rotate(-90)scale(0.1 -0.1)">
      <use xlink:href="#DejaVuSans-121"/>
     </g>
    </g>
   </g>
   <g id="line2d_94">
    <path clip-path="url(#p2a812b7781)" d="M 966.866824 41.472 
L 970.607435 43.46784 
L 974.348047 45.46368 
L 978.088659 47.45952 
L 981.829271 49.45536 
L 985.569882 51.4512 
L 989.310494 53.44704 
L 993.051106 55.44288 
L 996.791718 57.43872 
L 1000.532329 59.43456 
L 1004.272941 61.4304 
L 1008.013553 63.42624 
L 1011.754165 65.42208 
L 1015.494776 67.41792 
L 1019.235388 69.41376 
L 1022.976 71.4096 
L 1026.716612 73.40544 
L 1030.457224 75.40128 
L 1034.197835 77.39712 
L 1037.938447 79.39296 
L 1041.679059 81.3888 
L 1045.419671 83.38464 
L 1049.160282 85.38048 
L 1052.900894 87.37632 
L 1056.641506 89.37216 
L 1060.382118 91.368 
L 1064.122729 93.36384 
L 1067.863341 95.35968 
L 1071.603953 97.35552 
L 1075.344565 99.35136 
L 1079.085176 101.3472 
L 1082.825788 103.34304 
L 1086.5664 105.33888 
L 1090.307012 107.33472 
L 1094.047624 109.33056 
L 1097.788235 111.3264 
L 1101.528847 113.32224 
L 1105.269459 115.31808 
L 1109.010071 117.31392 
L 1112.750682 119.30976 
L 1116.491294 121.3056 
L 1120.231906 123.30144 
L 1123.972518 125.29728 
L 1127.713129 127.29312 
L 1131.453741 129.28896 
L 1135.194353 131.2848 
L 1138.934965 133.28064 
L 1142.675576 135.27648 
L 1146.416188 137.27232 
L 1150.1568 139.26816 
L 1153.897412 141.264 
L 1157.638024 143.25984 
L 1161.378635 145.25568 
L 1165.119247 147.25152 
L 1168.859859 149.24736 
L 1172.600471 151.2432 
L 1176.341082 153.23904 
L 1180.081694 155.23488 
L 1183.822306 157.23072 
L 1187.562918 159.22656 
L 1191.303529 161.2224 
L 1195.044141 163.21824 
L 1198.784753 165.21408 
L 1202.525365 167.20992 
L 1206.265976 169.20576 
L 1210.006588 171.2016 
L 1213.7472 173.19744 
L 1217.487812 175.19328 
L 1221.228424 177.18912 
L 1224.969035 179.18496 
L 1228.709647 181.1808 
L 1232.450259 183.17664 
L 1236.190871 185.17248 
L 1239.931482 187.16832 
L 1243.672094 189.16416 
L 1247.412706 191.16 
L 1251.153318 193.15584 
L 1254.893929 195.15168 
L 1258.634541 197.14752 
L 1262.375153 199.14336 
L 1266.115765 201.1392 
L 1269.856376 203.13504 
L 1273.596988 205.13088 
L 1277.3376 207.12672 
L 1281.078212 209.12256 
L 1284.818824 211.1184 
L 1288.559435 213.11424 
L 1292.300047 215.11008 
L 1296.040659 217.10592 
L 1299.781271 219.10176 
L 1303.521882 221.0976 
L 1307.262494 223.09344 
L 1311.003106 225.08928 
L 1314.743718 227.08512 
L 1318.484329 229.08096 
L 1322.224941 231.0768 
L 1325.965553 233.07264 
L 1329.706165 235.06848 
L 1333.446776 237.06432 
L 1337.187388 239.06016 
L 1340.928 241.056 
" style="fill:none;stroke:#1f77b4;stroke-linecap:square;stroke-width:1.5;"/>
   </g>
   <g id="line2d_95">
    <path clip-path="url(#p2a812b7781)" d="M 966.866824 307.584 
L 970.607435 305.58816 
L 974.348047 303.59232 
L 978.088659 301.59648 
L 981.829271 299.60064 
L 985.569882 297.6048 
L 989.310494 295.60896 
L 993.051106 293.61312 
L 996.791718 291.61728 
L 1000.532329 289.62144 
L 1004.272941 287.6256 
L 1008.013553 285.62976 
L 1011.754165 283.63392 
L 1015.494776 281.63808 
L 1019.235388 279.64224 
L 1022.976 277.6464 
L 1026.716612 275.65056 
L 1030.457224 273.65472 
L 1034.197835 271.65888 
L 1037.938447 269.66304 
L 1041.679059 267.6672 
L 1045.419671 265.67136 
L 1049.160282 263.67552 
L 1052.900894 261.67968 
L 1056.641506 259.68384 
L 1060.382118 257.688 
L 1064.122729 255.69216 
L 1067.863341 253.69632 
L 1071.603953 251.70048 
L 1075.344565 249.70464 
L 1079.085176 247.7088 
L 1082.825788 245.71296 
L 1086.5664 243.71712 
L 1090.307012 241.72128 
L 1094.047624 239.72544 
L 1097.788235 237.7296 
L 1101.528847 235.73376 
L 1105.269459 233.73792 
L 1109.010071 231.74208 
L 1112.750682 229.74624 
L 1116.491294 227.7504 
L 1120.231906 225.75456 
L 1123.972518 223.75872 
L 1127.713129 221.76288 
L 1131.453741 219.76704 
L 1135.194353 217.7712 
L 1138.934965 215.77536 
L 1142.675576 213.77952 
L 1146.416188 211.78368 
L 1150.1568 209.78784 
L 1153.897412 207.792 
L 1157.638024 205.79616 
L 1161.378635 203.80032 
L 1165.119247 201.80448 
L 1168.859859 199.80864 
L 1172.600471 197.8128 
L 1176.341082 195.81696 
L 1180.081694 193.82112 
L 1183.822306 191.82528 
L 1187.562918 189.82944 
L 1191.303529 187.8336 
L 1195.044141 185.83776 
L 1198.784753 183.84192 
L 1202.525365 181.84608 
L 1206.265976 179.85024 
L 1210.006588 177.8544 
L 1213.7472 175.85856 
L 1217.487812 173.86272 
L 1221.228424 171.86688 
L 1224.969035 169.87104 
L 1228.709647 167.8752 
L 1232.450259 165.87936 
L 1236.190871 163.88352 
L 1239.931482 161.88768 
L 1243.672094 159.89184 
L 1247.412706 157.896 
L 1251.153318 155.90016 
L 1254.893929 153.90432 
L 1258.634541 151.90848 
L 1262.375153 149.91264 
L 1266.115765 147.9168 
L 1269.856376 145.92096 
L 1273.596988 143.92512 
L 1277.3376 141.92928 
L 1281.078212 139.93344 
L 1284.818824 137.9376 
L 1288.559435 135.94176 
L 1292.300047 133.94592 
L 1296.040659 131.95008 
L 1299.781271 129.95424 
L 1303.521882 127.9584 
L 1307.262494 125.96256 
L 1311.003106 123.96672 
L 1314.743718 121.97088 
L 1318.484329 119.97504 
L 1322.224941 117.9792 
L 1325.965553 115.98336 
L 1329.706165 113.98752 
L 1333.446776 111.99168 
L 1337.187388 109.99584 
L 1340.928 108 
" style="fill:none;stroke:#ff7f0e;stroke-linecap:square;stroke-width:1.5;"/>
   </g>
   <g id="line2d_96">
    <path clip-path="url(#p2a812b7781)" d="M 966.866824 241.056 
L 970.607435 241.056 
L 974.348047 241.056 
L 978.088659 241.056 
L 981.829271 241.056 
L 985.569882 241.056 
L 989.310494 241.056 
L 993.051106 241.056 
L 996.791718 241.056 
L 1000.532329 241.056 
L 1004.272941 241.056 
L 1008.013553 241.056 
L 1011.754165 241.056 
L 1015.494776 241.056 
L 1019.235388 241.056 
L 1022.976 241.056 
L 1026.716612 241.056 
L 1030.457224 241.056 
L 1034.197835 241.056 
L 1037.938447 241.056 
L 1041.679059 241.056 
L 1045.419671 241.056 
L 1049.160282 241.056 
L 1052.900894 241.056 
L 1056.641506 241.056 
L 1060.382118 241.056 
L 1064.122729 241.056 
L 1067.863341 241.056 
L 1071.603953 241.056 
L 1075.344565 241.056 
L 1079.085176 241.056 
L 1082.825788 241.056 
L 1086.5664 241.056 
L 1090.307012 241.056 
L 1094.047624 241.056 
L 1097.788235 241.056 
L 1101.528847 241.056 
L 1105.269459 241.056 
L 1109.010071 241.056 
L 1112.750682 241.056 
L 1116.491294 241.056 
L 1120.231906 241.056 
L 1123.972518 241.056 
L 1127.713129 241.056 
L 1131.453741 241.056 
L 1135.194353 241.056 
L 1138.934965 241.056 
L 1142.675576 241.056 
L 1146.416188 241.056 
L 1150.1568 241.056 
L 1153.897412 241.056 
L 1157.638024 241.056 
L 1161.378635 241.056 
L 1165.119247 241.056 
L 1168.859859 241.056 
L 1172.600471 241.056 
L 1176.341082 241.056 
L 1180.081694 241.056 
L 1183.822306 241.056 
L 1187.562918 241.056 
L 1191.303529 241.056 
L 1195.044141 241.056 
L 1198.784753 241.056 
L 1202.525365 241.056 
L 1206.265976 241.056 
L 1210.006588 241.056 
L 1213.7472 241.056 
L 1217.487812 241.056 
L 1221.228424 241.056 
L 1224.969035 241.056 
L 1228.709647 241.056 
L 1232.450259 241.056 
L 1236.190871 241.056 
L 1239.931482 241.056 
L 1243.672094 241.056 
L 1247.412706 241.056 
L 1251.153318 241.056 
L 1254.893929 241.056 
L 1258.634541 241.056 
L 1262.375153 241.056 
L 1266.115765 241.056 
L 1269.856376 241.056 
L 1273.596988 241.056 
L 1277.3376 241.056 
L 1281.078212 241.056 
L 1284.818824 241.056 
L 1288.559435 241.056 
L 1292.300047 241.056 
L 1296.040659 241.056 
L 1299.781271 241.056 
L 1303.521882 241.056 
L 1307.262494 241.056 
L 1311.003106 241.056 
L 1314.743718 241.056 
L 1318.484329 241.056 
L 1322.224941 241.056 
L 1325.965553 241.056 
L 1329.706165 241.056 
L 1333.446776 241.056 
L 1337.187388 241.056 
L 1340.928 241.056 
" style="fill:none;stroke:#2ca02c;stroke-dasharray:9.6,2.4,1.5,2.4;stroke-dashoffset:0;stroke-width:1.5;"/>
   </g>
   <g id="line2d_97">
    <path clip-path="url(#p2a812b7781)" d="M 966.866824 108 
L 970.607435 108 
L 974.348047 108 
L 978.088659 108 
L 981.829271 108 
L 985.569882 108 
L 989.310494 108 
L 993.051106 108 
L 996.791718 108 
L 1000.532329 108 
L 1004.272941 108 
L 1008.013553 108 
L 1011.754165 108 
L 1015.494776 108 
L 1019.235388 108 
L 1022.976 108 
L 1026.716612 108 
L 1030.457224 108 
L 1034.197835 108 
L 1037.938447 108 
L 1041.679059 108 
L 1045.419671 108 
L 1049.160282 108 
L 1052.900894 108 
L 1056.641506 108 
L 1060.382118 108 
L 1064.122729 108 
L 1067.863341 108 
L 1071.603953 108 
L 1075.344565 108 
L 1079.085176 108 
L 1082.825788 108 
L 1086.5664 108 
L 1090.307012 108 
L 1094.047624 108 
L 1097.788235 108 
L 1101.528847 108 
L 1105.269459 108 
L 1109.010071 108 
L 1112.750682 108 
L 1116.491294 108 
L 1120.231906 108 
L 1123.972518 108 
L 1127.713129 108 
L 1131.453741 108 
L 1135.194353 108 
L 1138.934965 108 
L 1142.675576 108 
L 1146.416188 108 
L 1150.1568 108 
L 1153.897412 108 
L 1157.638024 108 
L 1161.378635 108 
L 1165.119247 108 
L 1168.859859 108 
L 1172.600471 108 
L 1176.341082 108 
L 1180.081694 108 
L 1183.822306 108 
L 1187.562918 108 
L 1191.303529 108 
L 1195.044141 108 
L 1198.784753 108 
L 1202.525365 108 
L 1206.265976 108 
L 1210.006588 108 
L 1213.7472 108 
L 1217.487812 108 
L 1221.228424 108 
L 1224.969035 108 
L 1228.709647 108 
L 1232.450259 108 
L 1236.190871 108 
L 1239.931482 108 
L 1243.672094 108 
L 1247.412706 108 
L 1251.153318 108 
L 1254.893929 108 
L 1258.634541 108 
L 1262.375153 108 
L 1266.115765 108 
L 1269.856376 108 
L 1273.596988 108 
L 1277.3376 108 
L 1281.078212 108 
L 1284.818824 108 
L 1288.559435 108 
L 1292.300047 108 
L 1296.040659 108 
L 1299.781271 108 
L 1303.521882 108 
L 1307.262494 108 
L 1311.003106 108 
L 1314.743718 108 
L 1318.484329 108 
L 1322.224941 108 
L 1325.965553 108 
L 1329.706165 108 
L 1333.446776 108 
L 1337.187388 108 
L 1340.928 108 
" style="fill:none;stroke:#d62728;stroke-dasharray:9.6,2.4,1.5,2.4;stroke-dashoffset:0;stroke-width:1.5;"/>
   </g>
   <g id="patch_15">
    <path d="M 966.866824 307.584 
L 966.866824 41.472 
" style="fill:none;stroke:#000000;stroke-linecap:square;stroke-linejoin:miter;stroke-width:0.8;"/>
   </g>
   <g id="patch_16">
    <path d="M 1340.928 307.584 
L 1340.928 41.472 
" style="fill:none;stroke:#000000;stroke-linecap:square;stroke-linejoin:miter;stroke-width:0.8;"/>
   </g>
   <g id="patch_17">
    <path d="M 966.866824 307.584 
L 1340.928 307.584 
" style="fill:none;stroke:#000000;stroke-linecap:square;stroke-linejoin:miter;stroke-width:0.8;"/>
   </g>
   <g id="patch_18">
    <path d="M 966.866824 41.472 
L 1340.928 41.472 
" style="fill:none;stroke:#000000;stroke-linecap:square;stroke-linejoin:miter;stroke-width:0.8;"/>
   </g>
   <g id="text_52">
    <!-- 0&lt;=b&lt;0.5 -->
    <g transform="translate(1121.645537 35.472)scale(0.12 -0.12)">
     <use xlink:href="#DejaVuSans-48"/>
     <use x="63.623047" xlink:href="#DejaVuSans-60"/>
     <use x="147.412109" xlink:href="#DejaVuSans-61"/>
     <use x="231.201172" xlink:href="#DejaVuSans-98"/>
     <use x="294.677734" xlink:href="#DejaVuSans-60"/>
     <use x="378.466797" xlink:href="#DejaVuSans-48"/>
     <use x="442.089844" xlink:href="#DejaVuSans-46"/>
     <use x="473.876953" xlink:href="#DejaVuSans-53"/>
    </g>
   </g>
   <g id="legend_3">
    <g id="patch_19">
     <path d="M 973.866824 205.38425 
L 1036.484011 205.38425 
Q 1038.484011 205.38425 1038.484011 203.38425 
L 1038.484011 145.67175 
Q 1038.484011 143.67175 1036.484011 143.67175 
L 973.866824 143.67175 
Q 971.866824 143.67175 971.866824 145.67175 
L 971.866824 203.38425 
Q 971.866824 205.38425 973.866824 205.38425 
z
" style="fill:#ffffff;opacity:0.8;stroke:#cccccc;stroke-linejoin:miter;"/>
    </g>
    <g id="line2d_98">
     <path d="M 975.866824 151.770188 
L 995.866824 151.770188 
" style="fill:none;stroke:#1f77b4;stroke-linecap:square;stroke-width:1.5;"/>
    </g>
    <g id="line2d_99"/>
    <g id="text_53">
     <!-- t -->
     <g transform="translate(1003.866824 155.270188)scale(0.1 -0.1)">
      <use xlink:href="#DejaVuSans-116"/>
     </g>
    </g>
    <g id="line2d_100">
     <path d="M 975.866824 166.448313 
L 995.866824 166.448313 
" style="fill:none;stroke:#ff7f0e;stroke-linecap:square;stroke-width:1.5;"/>
    </g>
    <g id="line2d_101"/>
    <g id="text_54">
     <!-- e -->
     <g transform="translate(1003.866824 169.948313)scale(0.1 -0.1)">
      <use xlink:href="#DejaVuSans-101"/>
     </g>
    </g>
    <g id="line2d_102">
     <path d="M 975.866824 181.126438 
L 995.866824 181.126438 
" style="fill:none;stroke:#2ca02c;stroke-dasharray:9.6,2.4,1.5,2.4;stroke-dashoffset:0;stroke-width:1.5;"/>
    </g>
    <g id="line2d_103"/>
    <g id="text_55">
     <!-- y=b -->
     <g transform="translate(1003.866824 184.626438)scale(0.1 -0.1)">
      <use xlink:href="#DejaVuSans-121"/>
      <use x="59.179688" xlink:href="#DejaVuSans-61"/>
      <use x="142.96875" xlink:href="#DejaVuSans-98"/>
     </g>
    </g>
    <g id="line2d_104">
     <path d="M 975.866824 195.804563 
L 995.866824 195.804563 
" style="fill:none;stroke:#d62728;stroke-dasharray:9.6,2.4,1.5,2.4;stroke-dashoffset:0;stroke-width:1.5;"/>
    </g>
    <g id="line2d_105"/>
    <g id="text_56">
     <!-- y=1-b -->
     <g transform="translate(1003.866824 199.304563)scale(0.1 -0.1)">
      <use xlink:href="#DejaVuSans-121"/>
      <use x="59.179688" xlink:href="#DejaVuSans-61"/>
      <use x="142.96875" xlink:href="#DejaVuSans-49"/>
      <use x="206.591797" xlink:href="#DejaVuSans-45"/>
      <use x="242.675781" xlink:href="#DejaVuSans-98"/>
     </g>
    </g>
   </g>
  </g>
 </g>
 <defs>
  <clipPath id="p4c91104094">
   <rect height="266.112" width="374.061176" x="69.12" y="41.472"/>
  </clipPath>
  <clipPath id="pe1a8bd39d2">
   <rect height="266.112" width="374.061176" x="517.993412" y="41.472"/>
  </clipPath>
  <clipPath id="p2a812b7781">
   <rect height="266.112" width="374.061176" x="966.866824" y="41.472"/>
  </clipPath>
 </defs>
</svg>
